SplineFontDB: 3.0
FontName: Belgika-8th
FullName: Belgika 8th
FamilyName: Belgika
Weight: 8th
Copyright: Copyright (c) 2014-2015, Pierre Huyghebaert\n\nOSP: Version 1.0 (http://ospublish.constantvzw.org/foundry)\n\nBelgica and Belgika fonts are released under the OFL 1.1 -- http://scripts.sil.org/OFL\n\nFor information on what you're allowed to change or modify, \nconsult the OFL-1.1.txt and OFL-FAQ.txt files.  The OFL-FAQ also gives a very general rationale and various recommendations regarding why you would want to contribute to the project or make your own version of the font.
UComments: "2014-12-26: Created with FontForge (http://fontforge.org)"
Version: 001.000
StrokeWidth: 50
ItalicAngle: 0
UnderlinePosition: -100
UnderlineWidth: 50
Ascent: 800
Descent: 200
InvalidEm: 0
sfntRevision: 0x00010000
LayerCount: 2
Layer: 0 0 "Back" 1
Layer: 1 0 "Fore" 0
XUID: [1021 878 1716694747 13563712]
FSType: 0
OS2Version: 0
OS2_WeightWidthSlopeOnly: 0
OS2_UseTypoMetrics: 1
CreationTime: 1419624870
ModificationTime: 1425459183
PfmFamily: 17
TTFWeight: 600
TTFWidth: 5
LineGap: 90
VLineGap: 0
OS2TypoAscent: 0
OS2TypoAOffset: 1
OS2TypoDescent: 0
OS2TypoDOffset: 1
OS2TypoLinegap: 90
OS2WinAscent: 0
OS2WinAOffset: 1
OS2WinDescent: 0
OS2WinDOffset: 1
HheadAscent: 0
HheadAOffset: 1
HheadDescent: 0
HheadDOffset: 1
OS2CapHeight: 0
OS2XHeight: 0
OS2Vendor: 'PfEd'
MarkAttachClasses: 1
DEI: 91125
Encoding: ISO8859-1
UnicodeInterp: none
NameList: AGL For New Fonts
DisplaySize: -48
AntiAlias: 1
FitToEm: 1
WidthSeparation: 150
WinInfo: 40 20 11
BeginPrivate: 0
EndPrivate
Grid
-588.869140625 -12.25 m 0
 2036.13085938 -12.25 l 1024
  Named: "accent-low"
-588.869140625 364 m 0
 2036.13085938 364 l 1024
  Named: "x-height"
EndSplineSet
BeginChars: 256 256

StartChar: A
Encoding: 65 65 0
Width: 639
VWidth: 43
Flags: W
HStem: 0.0625 21G<73.5703 84.9805 554.908 566.317> 0.0625 21G<73.5703 84.9805 554.908 566.317> 238 87.5<220.475 418.851> 767.5 20G<319.579 321.004> 767.5 20G<319.579 321.004>
VStem: 522.323 84.9883<6.14374 83.6985>
LayerCount: 2
Back
Fore
SplineSet
220.474609375 325.5 m 1x24
 418.850585938 325.5 l 1
 381.522460938 432.384765625 345.735351562 534.930664062 319.474609375 610.392578125 c 1
 220.474609375 325.5 l 1x24
360.810546875 758.405273438 m 0
 366.033203125 743.180664062 511.40234375 325.884765625 604.926757812 58.1796875 c 0
 606.544921875 53.546875 607.311523438 48.7919921875 607.311523438 44.0927734375 c 0
 607.311523438 25.974609375 595.91796875 8.689453125 578.0546875 2.4482421875 c 0
 573.421875 0.830078125 568.666015625 0.0634765625 563.967773438 0.0634765625 c 0
 545.848632812 0.0634765625 528.564453125 11.4560546875 522.323242188 29.3203125 c 0
 499.953125 93.3515625 474.827148438 165.256835938 449.415039062 238 c 1
 190.068359375 238 l 1
 117.576171875 29.3896484375 l 2
 111.356445312 11.4921875 94.052734375 0.0625 75.908203125 0.0625 c 0
 71.232421875 0.0625 66.501953125 0.8212890625 61.8896484375 2.423828125 c 0
 43.9912109375 8.6435546875 32.5625 25.9482421875 32.5625 44.091796875 c 0
 32.5625 48.767578125 33.3212890625 53.4990234375 34.923828125 58.1103515625 c 2
 278.173828125 758.110351562 l 2
 284.352539062 775.892578125 301.47265625 787.288085938 319.487304688 787.435546875 c 0
 319.536132812 787.478515625 319.5703125 787.5 319.587890625 787.5 c 0xb4
 322.420898438 787.5 325.21875 787.213867188 327.947265625 786.665039062 c 0
 329.930664062 786.282226562 331.90625 785.754882812 333.860351562 785.076171875 c 0
 338.872070312 783.334960938 343.375976562 780.723632812 347.264648438 777.46875 c 0
 353.310546875 772.518554688 358.083984375 765.978515625 360.810546875 758.405273438 c 0
EndSplineSet
Validated: 1
EndChar

StartChar: B
Encoding: 66 66 1
Width: 660
VWidth: 43
Flags: W
HStem: 0.875 87.3184<189.994 437.508> 420 87.5<189.994 347.328> 700 87.5<189.994 345.834>
VStem: 102.494 87.5<88.1934 420 507.5 700> 382.503 87.5<542.457 663.419> 522.5 87.501<173.075 335.224>
LayerCount: 2
Back
Fore
SplineSet
189.994140625 507.5 m 1
 299.381835938 507.5 l 2
 312.137695312 509.231445312 324.026367188 513.44921875 334.668945312 519.693359375 c 0
 363.198242188 536.43359375 382.502929688 567.379882812 382.502929688 603.610351562 c 0
 382.502929688 656.263671875 339.959960938 699.099609375 286.879882812 700 c 2
 189.994140625 700 l 1
 189.994140625 507.5 l 1
304.333984375 420 m 2
 298.3984375 419.430664062 292.283203125 419.125 286.331054688 419.125 c 0
 283.583007812 419.125 280.483398438 419.451171875 277.609375 420 c 2
 189.994140625 420 l 1
 189.994140625 88.193359375 l 1
 356.334960938 87.5 l 2
 447.990234375 87.5 522.5 161.272460938 522.5 253.639648438 c 0
 522.5 345.390625 449.291992188 419.311523438 357.829101562 420 c 2
 304.333984375 420 l 2
434.973632812 495.16015625 m 1
 536.930664062 461.9375 610.000976562 366.237304688 610.000976562 253.641601562 c 0
 610.000976562 112.734375 496.189453125 0 356.153320312 0 c 2
 146.061523438 0.875 l 2
 121.141601562 0.9794921875 102.494140625 23.0419921875 102.494140625 44.625 c 2
 102.494140625 743.75 l 2
 102.494140625 770.232421875 127.466796875 787.5 146.244140625 787.5 c 2
 287.3671875 787.5 l 2
 387.94921875 786.356445312 470.002929688 705.052734375 470.002929688 603.642578125 c 0
 470.002929688 562.754882812 456.975585938 525.59375 434.973632812 495.16015625 c 1
EndSplineSet
Validated: 1
EndChar

StartChar: C
Encoding: 67 67 2
Width: 718
VWidth: 43
Flags: W
HStem: 0 87.5<312.66 506.445> 700 87.5<312.66 506.456>
VStem: 85 87.5<227.333 560.167>
LayerCount: 2
Back
Fore
SplineSet
638.310546875 156.935546875 m 0
 646.736328125 148.510742188 650.94921875 137.254882812 650.94921875 126 c 0
 650.94921875 114.745117188 646.736328125 103.489257812 638.310546875 95.064453125 c 0
 579.912109375 36.6650390625 499.557617188 0 409.625 0 c 0
 230.75 0 85 144.561523438 85 323.75 c 2
 85 463.75 l 2
 85 642.938476562 230.75 787.5 409.625 787.5 c 0
 499.561523438 787.5 579.903320312 750.830078125 638.372070312 692.462890625 c 0
 646.814453125 684.03515625 651.036132812 672.767578125 651.036132812 661.499023438 c 0
 651.036132812 650.256835938 646.833984375 639.013671875 638.424804688 630.590820312 c 0
 629.997070312 622.1484375 618.729492188 617.926757812 607.4609375 617.926757812 c 0
 596.21875 617.926757812 584.9765625 622.12890625 576.553710938 630.537109375 c 0
 533.346679688 673.669921875 475.438476562 700 409.625 700 c 0
 278.75 700 172.5 594.311523438 172.5 463.75 c 2
 172.5 323.75 l 2
 172.5 193.188476562 278.75 87.5 409.625 87.5 c 0
 475.442382812 87.5 533.337890625 113.834960938 576.439453125 156.935546875 c 0
 584.864257812 165.361328125 596.120117188 169.57421875 607.375 169.57421875 c 0
 618.629882812 169.57421875 629.885742188 165.361328125 638.310546875 156.935546875 c 0
EndSplineSet
Validated: 1
EndChar

StartChar: D
Encoding: 68 68 3
Width: 781
VWidth: 43
Flags: W
HStem: 0 87.5<190 431.873> 700 87.5<190 432.581>
VStem: 102.5 87.5<87.5 700> 626.611 87.5273<281.676 505.824>
LayerCount: 2
Back
Fore
SplineSet
190 87.5 m 1
 320.375 87.5 l 2
 397.657226562 87.5 477.473632812 117.469726562 537.064453125 177.060546875 c 0
 596.76171875 236.758789062 626.611328125 315.25390625 626.611328125 393.75 c 0
 626.611328125 472.24609375 596.76171875 550.741210938 537.064453125 610.439453125 c 0
 477.259765625 670.244140625 399.379882812 700 321.25 700 c 2
 190 700 l 1
 190 87.5 l 1
102.5 43.75 m 2
 102.5 743.75 l 2
 102.5 770.232421875 127.47265625 787.5 146.25 787.5 c 2
 321.25 787.5 l 2
 421.620117188 787.5 522.240234375 749.005859375 598.935546875 672.310546875 c 0
 675.73828125 595.508789062 714.138671875 494.62890625 714.138671875 393.75 c 0
 714.138671875 292.87109375 675.73828125 191.991210938 598.935546875 115.189453125 c 0
 522.026367188 38.2802734375 419.842773438 0 320.375 0 c 2
 146.25 0 l 2
 119.767578125 0 102.5 24.97265625 102.5 43.75 c 2
EndSplineSet
Validated: 1
EndChar

StartChar: E
Encoding: 69 69 4
Width: 633
VWidth: 43
Flags: W
HStem: 0 87.5<190 568.589> 350 87.5<190 498.589> 700 87.5<190 568.589>
VStem: 102.5 87.5<87.5 350 437.5 700>
CounterMasks: 1 e0
LayerCount: 2
Back
Fore
SplineSet
575 743.75 m 0
 575 719.919921875 555.080078125 700 531.25 700 c 2
 190 700 l 1
 190 437.5 l 1
 461.25 437.5 l 2
 485.080078125 437.5 505 417.580078125 505 393.75 c 0
 505 369.919921875 485.080078125 350 461.25 350 c 2
 190 350 l 1
 190 87.5 l 1
 531.25 87.5 l 2
 555.080078125 87.5 575 67.580078125 575 43.75 c 0
 575 19.919921875 555.080078125 0 531.25 0 c 2
 146.25 0 l 2
 127.47265625 0 102.5 17.267578125 102.5 43.75 c 2
 102.5 393.75 l 1
 102.5 743.75 l 2
 102.5 762.52734375 119.767578125 787.5 146.25 787.5 c 2
 531.25 787.5 l 2
 555.080078125 787.5 575 767.580078125 575 743.75 c 0
EndSplineSet
Validated: 1
EndChar

StartChar: F
Encoding: 70 70 5
Width: 590
VWidth: 43
Flags: W
HStem: 0 21G<134.335 158.165> 0 21G<134.335 158.165> 350 87.5<190 498.589> 700 87.5<190 568.589>
VStem: 102.5 87.5<6.41116 350 437.5 700>
LayerCount: 2
Back
Fore
SplineSet
575 743.75 m 0xb8
 575 719.919921875 555.080078125 700 531.25 700 c 2
 190 700 l 1
 190 437.5 l 1
 461.25 437.5 l 2
 485.080078125 437.5 505 417.580078125 505 393.75 c 0
 505 369.919921875 485.080078125 350 461.25 350 c 2
 190 350 l 1
 190 43.75 l 2
 190 19.919921875 170.080078125 0 146.25 0 c 0
 122.419921875 0 102.5 19.919921875 102.5 43.75 c 2
 102.5 393.75 l 1
 102.5 743.75 l 2
 102.5 762.52734375 119.767578125 787.5 146.25 787.5 c 2
 531.25 787.5 l 2
 555.080078125 787.5 575 767.580078125 575 743.75 c 0xb8
EndSplineSet
Validated: 1
EndChar

StartChar: G
Encoding: 71 71 6
Width: 837
VWidth: 43
Flags: W
HStem: 0 87.5<349.36 574.179> 328.125 87.5<478.161 665.125> 700 87.5<348.836 572.274>
VStem: 67.5 87.5<281.86 505.64> 665.125 87.5<148.918 328.125>
LayerCount: 2
Back
Fore
SplineSet
471.75 371.875 m 0
 471.75 395.705078125 491.669921875 415.625 515.5 415.625 c 2
 708.875 415.625 l 2
 735.357421875 415.625 752.625 390.65234375 752.625 371.875 c 2
 752.625 146.125 l 2
 752.625 134.303710938 746.625 122.002929688 739.810546875 115.189453125 c 0
 663 38.3779296875 561.5625 0 461.25 0 c 0
 360.9375 0 259.500976562 38.3779296875 182.689453125 115.189453125 c 0
 105.877929688 192 67.5 293.4375 67.5 393.75 c 0
 67.5 494.0625 105.877929688 595.499023438 182.689453125 672.310546875 c 0
 259.384765625 749.005859375 360.004882812 787.5 460.375 787.5 c 0
 560.384765625 787.5 661.944335938 750.166015625 739.00390625 673.206054688 c 0
 747.44140625 664.779296875 751.661132812 653.514648438 751.661132812 642.249023438 c 0
 751.661132812 631.00390625 747.456054688 619.7578125 739.04296875 611.333984375 c 0
 730.616210938 602.896484375 719.3515625 598.676757812 708.0859375 598.676757812 c 0
 696.840820312 598.676757812 685.594726562 602.881835938 677.171875 611.293945312 c 0
 617.555664062 670.833984375 538.865234375 700 460.375 700 c 0
 382.245117188 700 304.365234375 670.244140625 244.560546875 610.439453125 c 0
 184.872070312 550.750976562 155 471.9375 155 393.75 c 0
 155 315.5625 184.872070312 236.75 244.560546875 177.060546875 c 0
 304.249023438 117.372070312 383.0625 87.5 461.25 87.5 c 0
 533.958984375 87.5 607.0390625 113.225585938 665.125 164.959960938 c 1
 665.125 328.125 l 1
 515.5 328.125 l 2
 491.669921875 328.125 471.75 348.044921875 471.75 371.875 c 0
EndSplineSet
Validated: 1
EndChar

StartChar: H
Encoding: 72 72 7
Width: 712
VWidth: 43
Flags: W
HStem: 0 21G<134.335 158.165 554.335 578.165> 0 21G<134.335 158.165 554.335 578.165> 350 87.5<190 522.5> 767.5 20G<134.335 158.165 554.335 578.165> 767.5 20G<134.335 158.165 554.335 578.165>
VStem: 102.5 87.5<6.41116 350 437.5 781.089> 522.5 87.5<6.41116 350 437.5 781.089>
LayerCount: 2
Back
Fore
SplineSet
146.25 0 m 0xb6
 122.419921875 0 102.5 19.919921875 102.5 43.75 c 2
 102.5 393.75 l 1
 102.5 743.75 l 2
 102.5 767.580078125 122.419921875 787.5 146.25 787.5 c 0
 170.080078125 787.5 190 767.580078125 190 743.75 c 2
 190 437.5 l 1
 522.5 437.5 l 1
 522.5 743.75 l 2
 522.5 767.580078125 542.419921875 787.5 566.25 787.5 c 0
 590.080078125 787.5 610 767.580078125 610 743.75 c 2
 610 43.75 l 2
 610 19.919921875 590.080078125 0 566.25 0 c 0
 542.419921875 0 522.5 19.919921875 522.5 43.75 c 2
 522.5 350 l 1
 190 350 l 1
 190 43.75 l 2
 190 19.919921875 170.080078125 0 146.25 0 c 0xb6
EndSplineSet
Validated: 1
EndChar

StartChar: I
Encoding: 73 73 8
Width: 313
VWidth: 43
Flags: W
HStem: 0 21G<144.835 168.665> 0 21G<144.835 168.665> 767.5 20G<144.835 168.665> 767.5 20G<144.835 168.665>
VStem: 113 87.5<6.41116 781.089>
LayerCount: 2
Back
Fore
SplineSet
156.75 787.5 m 0xa8
 180.580078125 787.5 200.5 767.580078125 200.5 743.75 c 2
 200.5 43.75 l 2
 200.5 19.919921875 180.580078125 0 156.75 0 c 0
 132.919921875 0 113 19.919921875 113 43.75 c 2
 113 743.75 l 2
 113 767.580078125 132.919921875 787.5 156.75 787.5 c 0xa8
EndSplineSet
Validated: 1
EndChar

StartChar: J
Encoding: 74 74 9
Width: 477
VWidth: 43
Flags: W
HStem: 0 87.5<145.635 266.814> 767.5 20G<336.46 360.29> 767.5 20G<336.46 360.29>
VStem: 304.625 87.5<125.867 781.089>
LayerCount: 2
Back
Fore
SplineSet
59.2724609375 168.946289062 m 0xd0
 64.666015625 171.217773438 70.30859375 172.290039062 75.8896484375 172.290039062 c 0
 93.033203125 172.290039062 109.595703125 162.171875 116.571289062 145.602539062 c 0
 121.260742188 134.466796875 127.369140625 125.592773438 137.27734375 116.34375 c 0
 155.62890625 97.9931640625 179.864257812 87.5 206.625 87.5 c 0
 261.3203125 87.5 304.625 130.8046875 304.625 185.5 c 2
 304.625 743.75 l 2
 304.625 767.580078125 324.544921875 787.5 348.375 787.5 c 0
 372.205078125 787.5 392.125 767.580078125 392.125 743.75 c 2
 392.125 185.5 l 2
 392.125 82.6953125 309.4296875 0 206.625 0 c 0
 156.45703125 0 110.34375 19.9443359375 76.4765625 53.4033203125 c 0
 60.1875 68.810546875 45.2734375 89.4521484375 35.9287109375 111.647460938 c 0
 33.6572265625 117.041015625 32.5849609375 122.68359375 32.5849609375 128.264648438 c 0
 32.5849609375 145.408203125 42.7041015625 161.969726562 59.2724609375 168.946289062 c 0xd0
EndSplineSet
Validated: 1
EndChar

StartChar: K
Encoding: 75 75 10
Width: 642
VWidth: 43
Flags: W
HStem: 0 21.1768G<134.335 158.165 543.152 554.407> 0 21.1768G<134.335 158.165 543.152 554.407> 767.5 20G<134.335 158.165 543.152 554.407> 767.5 20G<134.335 158.165 543.152 554.407>
VStem: 102.5 87.5<6.41116 337.382 450.118 781.089>
LayerCount: 2
Back
Fore
SplineSet
579.83984375 774.53125 m 0xa8
 588.166992188 766.12109375 592.323242188 754.938476562 592.323242188 743.7578125 c 0
 592.323242188 732.427734375 588.0546875 721.099609375 579.53125 712.66015625 c 2
 257.431640625 393.75 l 1
 579.53125 74.83984375 l 2
 588.0546875 66.400390625 592.32421875 55.072265625 592.32421875 43.7421875 c 0
 592.32421875 32.5615234375 588.166992188 21.37890625 579.83984375 12.96875 c 0
 571.400390625 4.4453125 560.072265625 0.1767578125 548.7421875 0.1767578125 c 0
 537.561523438 0.1767578125 526.37890625 4.3330078125 517.96875 12.66015625 c 2
 190 337.381835938 l 1
 190 43.75 l 2
 190 19.919921875 170.080078125 0 146.25 0 c 0
 122.419921875 0 102.5 19.919921875 102.5 43.75 c 2
 102.5 743.75 l 2
 102.5 767.580078125 122.419921875 787.5 146.25 787.5 c 0
 170.080078125 787.5 190 767.580078125 190 743.75 c 2
 190 450.118164062 l 1
 517.96875 774.83984375 l 2
 526.37890625 783.166992188 537.561523438 787.32421875 548.7421875 787.32421875 c 0
 560.072265625 787.32421875 571.400390625 783.0546875 579.83984375 774.53125 c 0xa8
EndSplineSet
Validated: 1
EndChar

StartChar: L
Encoding: 76 76 11
Width: 642
VWidth: 43
Flags: W
HStem: 0 87.5<190 603.589> 767.5 20G<134.335 158.165> 767.5 20G<134.335 158.165>
VStem: 102.5 87.5<87.5 781.089>
LayerCount: 2
Back
Fore
SplineSet
146.25 787.5 m 0xd0
 170.080078125 787.5 190 767.580078125 190 743.75 c 2
 190 87.5 l 1
 566.25 87.5 l 2
 590.080078125 87.5 610 67.580078125 610 43.75 c 0
 610 19.919921875 590.080078125 0 566.25 0 c 2
 146.25 0 l 2
 127.47265625 0 102.5 17.267578125 102.5 43.75 c 2
 102.5 743.75 l 2
 102.5 767.580078125 122.419921875 787.5 146.25 787.5 c 0xd0
EndSplineSet
Validated: 1
EndChar

StartChar: M
Encoding: 77 77 12
Width: 994
VWidth: 43
Flags: W
HStem: 0 21G<134.335 158.165 836.085 859.915> 0 21G<134.335 158.165 836.085 859.915> 767.5 20G<134.175 154.924 843.82 849.727> 767.5 20G<134.175 154.924 843.82 849.727>
VStem: 102.5 87.5<6.41116 559.247 762.735 781.407> 804.25 87.5<6.41116 558.423>
LayerCount: 2
Back
Fore
SplineSet
102.5 743.75 m 2xac
 102.5 767.900390625 122.099609375 787.5 146.25 787.5 c 0
 163.598632812 787.5 178.599609375 777.385742188 185.671875 762.735351562 c 2
 497.90234375 141.381835938 l 1
 808.869140625 763.315429688 l 2
 812.600585938 770.779296875 818.302734375 776.721679688 825.052734375 780.834960938 c 0
 831.759765625 785.047851562 839.639648438 787.5 848 787.5 c 0
 851.453125 787.5 854.823242188 787.08203125 858.063476562 786.293945312 c 0
 861.30078125 785.549804688 864.489257812 784.418945312 867.565429688 782.880859375 c 0
 875.037109375 779.145507812 880.984375 773.434570312 885.098632812 766.67578125 c 0
 889.302734375 759.973632812 891.75 752.1015625 891.75 743.75 c 2
 891.75 43.75 l 2
 891.75 19.919921875 871.830078125 0 848 0 c 0
 824.169921875 0 804.25 19.919921875 804.25 43.75 c 2
 804.25 558.422851562 l 1
 537.130859375 24.1845703125 l 2
 534.98828125 19.900390625 532.197265625 16.1171875 528.930664062 12.892578125 c 0
 525.7109375 9.615234375 521.9296875 6.8115234375 517.643554688 4.658203125 c 0
 511.393554688 1.517578125 504.673828125 0.0615234375 498.028320312 0.1103515625 c 0
 491.392578125 0.052734375 484.681640625 1.49609375 478.434570312 4.619140625 c 0
 474.15234375 6.759765625 470.372070312 9.5498046875 467.149414062 12.8134765625 c 0
 463.868164062 16.0341796875 461.063476562 19.818359375 458.908203125 24.1064453125 c 2
 190 559.247070312 l 1
 190 43.75 l 2
 190 19.919921875 170.080078125 0 146.25 0 c 0
 122.419921875 0 102.5 19.919921875 102.5 43.75 c 2
 102.5 743.75 l 2xac
EndSplineSet
Validated: 1
EndChar

StartChar: N
Encoding: 78 78 13
Width: 782
VWidth: 43
Flags: W
HStem: 0 21G<134.335 158.165 632.638 638.529> 0 21G<134.335 158.165 632.638 638.529> 767.5 20G<143.971 149.862 624.335 648.165> 767.5 20G<143.971 149.862 624.335 648.165>
VStem: 102.5 87.5<6.41116 604.959> 592.5 87.5<182.541 781.089>
LayerCount: 2
Back
Fore
SplineSet
636.25 787.5 m 0xac
 660.080078125 787.5 680 767.580078125 680 743.75 c 2
 680 43.75 l 2
 680 36.525390625 678.168945312 29.66015625 674.953125 23.6005859375 c 0
 671.833007812 17.490234375 667.258789062 12.0517578125 661.338867188 7.908203125 c 0
 657.602539062 5.29296875 653.564453125 3.357421875 649.381835938 2.07421875 c 0
 645.221679688 0.728515625 640.807617188 0 636.25 0 c 0
 629.025390625 0 622.16015625 1.8310546875 616.100585938 5.046875 c 0
 609.990234375 8.1669921875 604.551757812 12.7412109375 600.408203125 18.6611328125 c 2
 190 604.958984375 l 1
 190 43.75 l 2
 190 19.919921875 170.080078125 0 146.25 0 c 0
 122.419921875 0 102.5 19.919921875 102.5 43.75 c 2
 102.5 743.75 l 2
 102.5 750.974609375 104.331054688 757.83984375 107.546875 763.899414062 c 0
 110.666992188 770.009765625 115.241210938 775.448242188 121.161132812 779.591796875 c 0
 124.897460938 782.20703125 128.935546875 784.142578125 133.118164062 785.42578125 c 0
 137.278320312 786.771484375 141.692382812 787.5 146.25 787.5 c 0
 153.474609375 787.5 160.33984375 785.668945312 166.399414062 782.453125 c 0
 172.509765625 779.333007812 177.948242188 774.758789062 182.091796875 768.838867188 c 2
 592.5 182.541015625 l 1
 592.5 743.75 l 2
 592.5 767.580078125 612.419921875 787.5 636.25 787.5 c 0xac
EndSplineSet
Validated: 1
EndChar

StartChar: O
Encoding: 79 79 14
Width: 922
VWidth: 43
Flags: W
HStem: 0 87.5<351.177 571.323> 700 87.5<351.177 571.323>
VStem: 67.5 87.5<283.677 503.823> 767.5 87.5<283.677 503.823>
LayerCount: 2
Back
Fore
SplineSet
461.25 87.5 m 0
 630.475585938 87.5 767.5 224.524414062 767.5 393.75 c 0
 767.5 562.975585938 630.475585938 700 461.25 700 c 0
 292.024414062 700 155 562.975585938 155 393.75 c 0
 155 224.524414062 292.024414062 87.5 461.25 87.5 c 0
461.25 0 m 0
 243.725585938 0 67.5 176.225585938 67.5 393.75 c 0
 67.5 611.274414062 243.725585938 787.5 461.25 787.5 c 0
 678.774414062 787.5 855 611.274414062 855 393.75 c 0
 855 176.225585938 678.774414062 0 461.25 0 c 0
EndSplineSet
Validated: 1
EndChar

StartChar: P
Encoding: 80 80 15
Width: 658
VWidth: 43
Flags: W
HStem: 0 21G<134.335 158.165> 0 21G<134.335 158.165> 280 87.5<190 435.782> 700 87.5<190 434.808>
VStem: 102.5 87.5<6.41116 280 367.5 700> 520.756 87.501<453.071 615.457>
LayerCount: 2
Back
Fore
SplineSet
190 280 m 1xbc
 190 43.75 l 2
 190 19.919921875 170.080078125 0 146.25 0 c 0
 122.419921875 0 102.5 19.919921875 102.5 43.75 c 2
 102.5 743.75 l 2
 102.5 762.52734375 119.767578125 787.5 146.25 787.5 c 2
 356.4140625 787.5 l 2
 496.609375 786.446289062 608.256835938 673.12890625 608.256835938 533.638671875 c 0
 608.256835938 392.731445312 494.373046875 280 354.5 280 c 2
 190 280 l 1xbc
190 367.5 m 1
 354.5 367.5 l 2
 446.319335938 367.5 520.755859375 441.270507812 520.755859375 533.626953125 c 0
 520.755859375 625.38671875 447.551757812 699.311523438 356.0859375 700 c 2
 190 700 l 1
 190 367.5 l 1
EndSplineSet
Validated: 1
EndChar

StartChar: Q
Encoding: 81 81 16
Width: 926
VWidth: 43
Flags: W
HStem: 0 87.5<352.73 575.738> 0.175781 21G<807.373 818.627> 700 87.5<352.73 573.27>
VStem: 67.5 87.5<283.685 503.815> 771 87.5<280.607 503.815>
LayerCount: 2
Back
Fore
SplineSet
463 0 m 0xb8
 245.68359375 0 67.5 175.932617188 67.5 393.75 c 0
 67.5 611.567382812 245.68359375 787.5 463 787.5 c 0
 680.31640625 787.5 858.5 611.567382812 858.5 393.75 c 0
 858.5 300.407226562 825.77734375 214.755859375 771.275390625 147.345703125 c 1
 843.935546875 74.685546875 l 2
 852.361328125 66.2607421875 856.57421875 55.0048828125 856.57421875 43.75 c 0
 856.57421875 32.4951171875 852.361328125 21.2392578125 843.935546875 12.814453125 c 0
 835.510742188 4.388671875 824.254882812 0.17578125 813 0.17578125 c 0x78
 801.745117188 0.17578125 790.489257812 4.388671875 782.064453125 12.814453125 c 2
 709.11328125 85.765625 l 1
 641.420898438 32.0654296875 555.776367188 0 463 0 c 0xb8
577.314453125 279.435546875 m 0
 585.739257812 287.861328125 596.995117188 292.07421875 608.25 292.07421875 c 0
 619.504882812 292.07421875 630.760742188 287.861328125 639.185546875 279.435546875 c 2
 708.926757812 209.694335938 l 1
 747.858398438 260.95703125 771 324.713867188 771 393.75 c 0
 771 562.682617188 632.43359375 700 463 700 c 0
 293.56640625 700 155 562.682617188 155 393.75 c 0
 155 224.817382812 293.56640625 87.5 463 87.5 c 0xb8
 531.700195312 87.5 595.326171875 110.076171875 646.697265625 148.181640625 c 1
 577.314453125 217.564453125 l 2
 568.888671875 225.989257812 564.67578125 237.245117188 564.67578125 248.5 c 0
 564.67578125 259.754882812 568.888671875 271.010742188 577.314453125 279.435546875 c 0
EndSplineSet
Validated: 1
EndChar

StartChar: R
Encoding: 82 82 17
Width: 607
VWidth: 43
Flags: W
HStem: 0 21G<134.327 158.157 471.041 482.365> 0 21G<134.327 158.157 471.041 482.365> 350 87.5<189.992 275.889> 700 87.5<189.992 392.964>
VStem: 102.492 87.5<6.41116 350 437.5 700> 452.5 87.5<498.215 639.026>
LayerCount: 2
Back
Fore
SplineSet
189.9921875 350 m 1xbc
 189.9921875 43.75 l 2
 189.9921875 19.919921875 170.072265625 0 146.2421875 0 c 0
 122.412109375 0 102.4921875 19.919921875 102.4921875 43.75 c 2
 102.4921875 743.75 l 2
 102.4921875 770.232421875 127.46484375 787.5 146.2421875 787.5 c 2
 322.9921875 787.5 l 2
 444.233398438 787.5 540 688.56640625 540 568.65234375 c 0
 540 464.108398438 467.629882812 378.018554688 370.974609375 355.650390625 c 1
 517.833984375 63.3935546875 l 2
 520.923828125 57.2451171875 522.3828125 50.6416015625 522.3828125 44.1025390625 c 0
 522.3828125 27.994140625 513.530273438 12.267578125 498.385742188 4.658203125 c 0
 492.237304688 1.568359375 485.634765625 0.109375 479.094726562 0.109375 c 0
 462.986328125 0.109375 447.260742188 8.9619140625 439.650390625 24.1064453125 c 2
 275.888671875 350 l 1
 189.9921875 350 l 1xbc
189.9921875 437.5 m 1
 321.2421875 437.5 l 2
 393.859375 437.5 452.5 495.53515625 452.5 568.654296875 c 0
 452.5 641.487304688 394.897460938 700 322.9921875 700 c 2
 189.9921875 700 l 1
 189.9921875 437.5 l 1
EndSplineSet
Validated: 1
EndChar

StartChar: S
Encoding: 83 83 18
Width: 555
VWidth: 43
Flags: W
HStem: 0 87.5<199.246 340.763> 700 87.5<208.565 329.984>
VStem: 67.584 84.0508<131.624 187.361> 83.25 87.5<546.179 661.836> 400 87.5<146.119 288.514>
LayerCount: 2
Back
Fore
SplineSet
94.4228515625 190.009765625 m 0xe8
 99.7724609375 192.23828125 105.362304688 193.291015625 110.889648438 193.291015625 c 0
 128.091796875 193.291015625 144.698242188 183.099609375 151.634765625 166.452148438 c 0xe8
 158.284179688 150.493164062 167.224609375 137.146484375 178.935546875 125.435546875 c 0
 202.431640625 101.940429688 235.040039062 87.5 271.375 87.5 c 0
 342.328125 87.5 400 145.540039062 400 217 c 0
 400 253.852539062 386.62109375 288.756835938 355.8828125 311.125 c 2
 159.859375 453.766601562 l 2
 115.024414062 486.484375 83.25 545.926757812 83.25 602 c 0
 83.25 703.881835938 165.706054688 787.5 268.75 787.5 c 0
 319.1953125 787.5 366.231445312 766.37109375 398.8984375 734.096679688 c 0
 416.6875 717.26953125 430.018554688 698.173828125 439.458007812 676.032226562 c 0
 441.779296875 670.5859375 442.875976562 664.879882812 442.875976562 659.236328125 c 0
 442.875976562 642.161132812 432.844726562 625.653320312 416.370117188 618.629882812 c 0
 410.923828125 616.307617188 405.217773438 615.211914062 399.573242188 615.211914062 c 0
 382.498046875 615.211914062 365.990234375 625.243164062 358.966796875 641.717773438 c 0
 354.15234375 653.010742188 348.021484375 661.892578125 338.09765625 671.15625 c 0
 319.749023438 689.50390625 295.508789062 700 268.75 700 c 0
 214.293945312 700 170.75 655.868164062 170.75 602 c 0xd8
 170.75 579.31640625 191.453125 539.032226562 211.4140625 524.465820312 c 2
 407.3671875 381.875 l 2
 465.473632812 339.591796875 487.5 274.647460938 487.5 217 c 0
 487.5 97.7099609375 391.171875 0 271.375 0 c 0
 211.459960938 0 156.568359375 24.0595703125 117.064453125 63.564453125 c 0
 97.275390625 83.353515625 81.7158203125 106.756835938 70.865234375 132.797851562 c 0
 68.63671875 138.147460938 67.583984375 143.737304688 67.583984375 149.264648438 c 0
 67.583984375 166.466796875 77.7763671875 183.073242188 94.4228515625 190.009765625 c 0xe8
EndSplineSet
Validated: 1
EndChar

StartChar: T
Encoding: 84 84 19
Width: 642
VWidth: 43
Flags: W
HStem: 0 21G<309.335 333.165> 0 21G<309.335 333.165> 700 87.5<3.91116 277.5 365 638.589>
VStem: 277.5 87.5<6.41116 700>
LayerCount: 2
Back
Fore
SplineSet
-2.5 743.75 m 0xb0
 -2.5 767.580078125 17.419921875 787.5 41.25 787.5 c 2
 321.25 787.5 l 1
 601.25 787.5 l 2
 625.080078125 787.5 645 767.580078125 645 743.75 c 0
 645 719.919921875 625.080078125 700 601.25 700 c 2
 365 700 l 1
 365 43.75 l 2
 365 19.919921875 345.080078125 0 321.25 0 c 0
 297.419921875 0 277.5 19.919921875 277.5 43.75 c 2
 277.5 700 l 1
 41.25 700 l 2
 17.419921875 700 -2.5 719.919921875 -2.5 743.75 c 0xb0
EndSplineSet
Validated: 1
EndChar

StartChar: U
Encoding: 85 85 20
Width: 817
VWidth: 43
Flags: W
HStem: 0 87.5<311.906 505.595> 767.5 20G<116.835 140.665 676.835 700.665> 767.5 20G<116.835 140.665 676.835 700.665>
VStem: 85 87.5<227.435 781.089> 645 87.5<227.401 781.089>
LayerCount: 2
Back
Fore
SplineSet
688.75 787.5 m 0xd8
 712.580078125 787.5 732.5 767.580078125 732.5 743.75 c 2
 732.5 323.75 l 2
 732.5 144.745117188 587.754882812 0 408.75 0 c 0
 229.732421875 0 85 144.836914062 85 323.75 c 2
 85 743.75 l 2
 85 767.580078125 104.919921875 787.5 128.75 787.5 c 0
 152.580078125 787.5 172.5 767.580078125 172.5 743.75 c 2
 172.5 323.75 l 2
 172.5 193.092773438 278.017578125 87.5 408.75 87.5 c 0
 539.495117188 87.5 645 193.004882812 645 323.75 c 2
 645 743.75 l 2
 645 767.580078125 664.919921875 787.5 688.75 787.5 c 0xd8
EndSplineSet
Validated: 1
EndChar

StartChar: V
Encoding: 86 86 21
Width: 677
VWidth: 43
Flags: W
HStem: 767.43 20G<73.3892 84.7798 592.721 604.111> 767.43 20G<73.3892 84.7798 592.721 604.111>
LayerCount: 2
Back
Fore
SplineSet
60.888671875 784.71484375 m 0x80
 65.8037109375 786.557617188 70.8798828125 787.4296875 75.8984375 787.4296875 c 0
 93.6611328125 787.4296875 110.690429688 776.509765625 117.21484375 759.111328125 c 2
 338.75 168.349609375 l 1
 560.28515625 759.111328125 l 2
 566.809570312 776.508789062 583.838867188 787.4296875 601.602539062 787.4296875 c 0
 606.620117188 787.4296875 611.696289062 786.557617188 616.611328125 784.71484375 c 0
 634.009765625 778.190429688 644.9296875 761.161132812 644.9296875 743.3984375 c 0
 644.9296875 738.379882812 644.057617188 733.303710938 642.21484375 728.388671875 c 2
 379.71484375 28.388671875 l 2
 369.818359375 1.9990234375 357.416992188 -6.7978515625 345.279296875 -6.7978515625 c 0
 321.00390625 -6.7978515625 297.78515625 28.388671875 297.78515625 28.388671875 c 1
 35.28515625 728.388671875 l 2
 33.4423828125 733.303710938 32.5703125 738.379882812 32.5703125 743.397460938 c 0
 32.5703125 761.161132812 43.4912109375 778.190429688 60.888671875 784.71484375 c 0x80
EndSplineSet
Validated: 1
EndChar

StartChar: W
Encoding: 87 87 22
Width: 1004
VWidth: 43
Flags: W
HStem: 767.45 20G<73.8711 85.3169 919.443 930.888> 767.45 20G<73.8711 85.3169 919.443 930.888>
VStem: 32.5498 85.5615<733.421 781.331> 886.653 85.5469<733.563 781.342>
LayerCount: 2
Back
Fore
SplineSet
489.659179688 785.611328125 m 0xb0
 493.87890625 786.893554688 498.168945312 787.483398438 502.403320312 787.44921875 c 0
 506.634765625 787.477539062 510.921875 786.8828125 515.138671875 785.596679688 c 0
 522.193359375 783.4453125 528.333007812 779.577148438 533.2421875 774.586914062 c 0
 538.229492188 769.670898438 542.091796875 763.525390625 544.236328125 756.465820312 c 2
 715.0859375 193.998046875 l 1
 886.653320312 756.513671875 l 2
 892.348632812 775.1875 910.067382812 787.450195312 928.819335938 787.450195312 c 0
 932.956054688 787.450195312 937.143554688 786.853515625 941.263671875 785.596679688 c 0
 959.9375 779.901367188 972.200195312 762.18359375 972.200195312 743.430664062 c 0
 972.200195312 739.293945312 971.603515625 735.106445312 970.346679688 730.986328125 c 2
 756.846679688 30.986328125 l 2
 754.6953125 23.931640625 750.827148438 17.7919921875 745.836914062 12.8828125 c 0
 740.920898438 7.8955078125 734.775390625 4.033203125 727.715820312 1.888671875 c 0
 723.5 0.6083984375 719.213867188 0.017578125 714.983398438 0.05078125 c 0
 710.748046875 0.021484375 706.45703125 0.6162109375 702.236328125 1.9033203125 c 0
 695.181640625 4.0546875 689.041992188 7.9228515625 684.1328125 12.9140625 c 0
 679.145507812 17.8291015625 675.283203125 23.974609375 673.138671875 31.0341796875 c 2
 502.2890625 593.501953125 l 1
 330.721679688 30.986328125 l 2
 328.5703125 23.931640625 324.702148438 17.7919921875 319.711914062 12.8828125 c 0
 314.795898438 7.8955078125 308.650390625 4.033203125 301.590820312 1.888671875 c 0
 297.375 0.6083984375 293.088867188 0.017578125 288.858398438 0.05078125 c 0
 284.623046875 0.021484375 280.33203125 0.6162109375 276.111328125 1.9033203125 c 0
 269.056640625 4.0546875 262.916992188 7.9228515625 258.0078125 12.9140625 c 0
 253.020507812 17.8291015625 249.158203125 23.974609375 247.013671875 31.0341796875 c 2
 34.388671875 731.034179688 l 2
 33.1416015625 735.138671875 32.5498046875 739.309570312 32.5498046875 743.430664062 c 0
 32.5498046875 762.202148438 44.837890625 779.932617188 63.5341796875 785.611328125 c 0
 67.638671875 786.858398438 71.810546875 787.450195312 75.931640625 787.450195312 c 0
 94.7021484375 787.450195312 112.432617188 775.163085938 118.111328125 756.465820312 c 2
 288.9609375 193.998046875 l 1
 460.528320312 756.513671875 l 2
 462.6796875 763.568359375 466.547851562 769.708007812 471.5390625 774.6171875 c 0
 476.454101562 779.604492188 482.599609375 783.466796875 489.659179688 785.611328125 c 0xb0
EndSplineSet
Validated: 1
EndChar

StartChar: X
Encoding: 88 88 23
Width: 719
VWidth: 43
Flags: W
HStem: 0.146484 21G<124.352 135.632 583.867 595.147> 0.146484 21G<124.352 135.632 583.867 595.147> 767.354 20G<124.352 135.632 583.867 595.147> 767.354 20G<124.352 135.632 583.867 595.147>
LayerCount: 2
Back
Fore
SplineSet
104.650390625 7.2353515625 m 0xa0
 92.0341796875 15.5625 85.146484375 29.7119140625 85.146484375 44.0224609375 c 0
 85.146484375 52.2724609375 87.435546875 60.576171875 92.2353515625 67.849609375 c 2
 307.330078125 393.75 l 1
 92.2353515625 719.650390625 l 2
 87.435546875 726.923828125 85.146484375 735.227539062 85.146484375 743.477539062 c 0
 85.146484375 757.788085938 92.0341796875 771.9375 104.650390625 780.264648438 c 0
 111.922851562 785.064453125 120.2265625 787.353515625 128.4765625 787.353515625 c 0
 142.788085938 787.353515625 156.9375 780.465820312 165.264648438 767.849609375 c 2
 359.75 473.174804688 l 1
 554.235351562 767.849609375 l 2
 562.5625 780.465820312 576.711914062 787.353515625 591.022460938 787.353515625 c 0
 599.272460938 787.353515625 607.576171875 785.064453125 614.849609375 780.264648438 c 0
 627.465820312 771.9375 634.353515625 757.788085938 634.353515625 743.4765625 c 0
 634.353515625 735.2265625 632.064453125 726.922851562 627.264648438 719.650390625 c 2
 412.169921875 393.75 l 1
 627.264648438 67.849609375 l 2
 632.064453125 60.5771484375 634.353515625 52.2734375 634.353515625 44.0234375 c 0
 634.353515625 29.7119140625 627.465820312 15.5625 614.849609375 7.2353515625 c 0
 607.576171875 2.435546875 599.272460938 0.146484375 591.022460938 0.146484375 c 0
 576.711914062 0.146484375 562.5625 7.0341796875 554.235351562 19.650390625 c 2
 359.75 314.325195312 l 1
 165.264648438 19.650390625 l 2
 156.9375 7.0341796875 142.788085938 0.146484375 128.4765625 0.146484375 c 0
 120.2265625 0.146484375 111.922851562 2.435546875 104.650390625 7.2353515625 c 0xa0
EndSplineSet
Validated: 1
EndChar

StartChar: Y
Encoding: 89 89 24
Width: 659
VWidth: 43
Flags: W
HStem: 0 21G<317.21 341.04> 0 21G<317.21 341.04> 767.343 20G<71.5874 82.8579 576.278 587.548> 767.343 20G<71.5874 82.8579 576.278 587.548>
VStem: 285.375 87.5<6.41116 379.559>
LayerCount: 2
Back
Fore
SplineSet
50.6279296875 779.212890625 m 0xa8
 58.2314453125 784.706054688 67.1513671875 787.342773438 76.0234375 787.342773438 c 0
 89.6923828125 787.342773438 103.25 781.084960938 111.712890625 769.372070312 c 2
 329.186523438 468.370117188 l 1
 547.454101562 769.4296875 l 2
 555.920898438 781.107421875 569.456054688 787.342773438 583.099609375 787.342773438 c 0
 591.997070312 787.342773438 600.939453125 784.69140625 608.5546875 779.170898438 c 0
 620.233398438 770.704101562 626.467773438 757.168945312 626.467773438 743.525390625 c 0
 626.467773438 734.62890625 623.81640625 725.685546875 618.295898438 718.0703125 c 2
 372.875 379.55859375 l 1
 372.875 43.75 l 2
 372.875 19.919921875 352.955078125 0 329.125 0 c 0
 305.294921875 0 285.375 19.919921875 285.375 43.75 c 2
 285.375 379.59765625 l 1
 40.787109375 718.127929688 l 2
 35.2939453125 725.731445312 32.6572265625 734.650390625 32.6572265625 743.5234375 c 0
 32.6572265625 757.192382812 38.9150390625 770.75 50.6279296875 779.212890625 c 0xa8
EndSplineSet
Validated: 1
EndChar

StartChar: Z
Encoding: 90 90 25
Width: 677
VWidth: 43
Flags: W
HStem: 0 87.5<206.021 586.089> 700 87.5<91.4112 471.479>
LayerCount: 2
Back
Fore
SplineSet
85 743.75 m 0
 85 767.580078125 104.919921875 787.5 128.75 787.5 c 2
 548.75 787.5 l 2
 552.776367188 787.5 556.69140625 786.931640625 560.41796875 785.87109375 c 0
 564.157226562 784.86328125 567.806640625 783.336914062 571.258789062 781.265625 c 0
 577.91796875 777.270507812 583.1328125 771.673828125 586.712890625 765.23828125 c 0
 590.38671875 758.859375 592.5 751.51171875 592.5 743.75 c 0
 592.5 739.731445312 591.93359375 735.82421875 590.877929688 732.10546875 c 0
 589.869140625 728.357421875 588.340820312 724.700195312 586.265625 721.241210938 c 2
 206.020507812 87.5 l 1
 548.75 87.5 l 2
 572.580078125 87.5 592.5 67.580078125 592.5 43.75 c 0
 592.5 19.919921875 572.580078125 0 548.75 0 c 2
 128.75 0 l 2
 89.294921875 0 79.005859375 15.166015625 79.005859375 30.986328125 c 0
 79.005859375 48.234375 91.234375 66.2587890625 91.234375 66.2587890625 c 1
 471.479492188 700 l 1
 128.75 700 l 2
 104.919921875 700 85 719.919921875 85 743.75 c 0
EndSplineSet
Validated: 1
EndChar

StartChar: one
Encoding: 49 49 26
Width: 581
VWidth: 43
Flags: W
HStem: 0 21G<331.21 355.04> 0 21G<331.21 355.04> 544.25 87.5<148.374 251.185>
VStem: 299.375 87.5<6.41116 579.462 679.219 773.29>
LayerCount: 2
Back
Fore
SplineSet
343.125 0 m 0xb0
 319.294921875 0 299.375 19.919921875 299.375 43.75 c 2
 299.375 579.461914062 l 1
 267.065429688 557.267578125 227.936523438 544.25 185.712890625 544.25 c 0
 161.8828125 544.25 141.962890625 564.169921875 141.962890625 588 c 0
 141.962890625 611.830078125 161.8828125 631.75 185.712890625 631.75 c 0
 248.142578125 631.75 298.74609375 682.362304688 299.376953125 744.196289062 c 0
 299.499023438 756.14453125 304.618164062 767.057617188 312.697265625 774.940429688 c 0
 320.37890625 782.440429688 330.741210938 787.201171875 342.048828125 787.486328125 c 0
 342.5546875 787.499023438 343.061523438 787.502929688 343.571289062 787.498046875 c 0
 355.77734375 787.373046875 366.904296875 782.033203125 374.822265625 773.649414062 c 0
 382.028320312 766.026367188 386.581054688 755.879882812 386.861328125 744.83203125 c 0
 386.872070312 744.41796875 386.876953125 744.002929688 386.875 743.586914062 c 2
 386.875 43.75 l 2
 386.875 19.919921875 366.955078125 0 343.125 0 c 0xb0
EndSplineSet
Validated: 1
EndChar

StartChar: two
Encoding: 50 50 27
Width: 581
VWidth: 43
Flags: W
HStem: 0 87.5<194.099 495.089> 700 87.5<231.066 351.555>
VStem: 390.375 87.5<545.419 662.178>
LayerCount: 2
Back
Fore
SplineSet
145.022460938 618.553710938 m 0
 128.454101562 625.530273438 118.334960938 642.091796875 118.334960938 659.235351562 c 0
 118.334960938 664.81640625 119.407226562 670.458984375 121.678710938 675.852539062 c 0
 131.0234375 698.046875 145.939453125 718.690429688 162.225585938 734.095703125 c 0
 195.778320312 767.259765625 241.198242188 787.5 291.5 787.5 c 0
 393.125 787.5 477.875 705.404296875 477.875 602 c 0
 477.875 572.567382812 468.344726562 544.423828125 455.413085938 519.637695312 c 0
 455.006835938 518.859375 454.395507812 517.787109375 454.05859375 517.23046875 c 2
 194.098632812 87.5 l 1
 457.75 87.5 l 2
 481.580078125 87.5 501.5 67.580078125 501.5 43.75 c 0
 501.5 19.919921875 481.580078125 0 457.75 0 c 2
 116.5 0 l 2
 77.044921875 0 66.7392578125 15.146484375 66.7392578125 30.9697265625 c 0
 66.7392578125 48.2763671875 79.06640625 66.39453125 79.06640625 66.39453125 c 1
 378.426757812 561.254882812 l 2
 385.774414062 575.693359375 390.375 593.157226562 390.375 602 c 0
 390.375 656.095703125 345.625 700 291.5 700 c 0
 264.880859375 700 241.684570312 689.8125 223.02734375 671.15625 c 0
 213.119140625 661.907226562 207.010742188 653.033203125 202.321289062 641.897460938 c 0
 195.345703125 625.328125 178.783203125 615.209960938 161.639648438 615.209960938 c 0
 156.05859375 615.209960938 150.416015625 616.282226562 145.022460938 618.553710938 c 0
EndSplineSet
Validated: 5
EndChar

StartChar: three
Encoding: 51 51 28
Width: 581
VWidth: 43
Flags: W
HStem: 0 87.5<213.994 366.908> 384.125 87.5<250.661 352.843> 700 87.5<223.148 353.048>
VStem: 54.4629 87.5<158.858 271.824> 86.75 87.498<550.689 651.917> 401.75 87.5<520.297 651.298> 439.375 87.5<158.576 308.038>
LayerCount: 2
Back
Fore
SplineSet
244.25 427.875 m 0xf2
 244.25 451.705078125 264.169921875 471.625 288 471.625 c 2
 288.061523438 471.625 l 2
 350.890625 471.625 401.75 523.393554688 401.75 586.25 c 0
 401.75 648.647460938 350.397460938 700 288 700 c 0
 225.462890625 700 174.87890625 649.375976562 174.248046875 587.553710938 c 0
 174.006835938 563.870117188 154.126953125 544.25 130.490234375 544.25 c 0
 106.502929688 544.25 86.75 564.286132812 86.75 588.009765625 c 0
 86.75 697.991210938 177.866210938 787.5 288 787.5 c 0
 398.852539062 787.5 489.25 697.102539062 489.25 586.25 c 0xec
 489.25 525.076171875 461.879882812 469.6328125 418.409179688 432.353515625 c 1
 483.321289062 389.70703125 526.875 316.596679688 526.875 234.5 c 0
 526.875 104.017578125 420.190429688 0 290.625 0 c 0
 160.221679688 0 54.462890625 104.08984375 54.462890625 234.3359375 c 0
 54.462890625 258.293945312 74.2900390625 278.25 98.2138671875 278.25 c 0
 122.056640625 278.240234375 141.962890625 258.328125 141.962890625 234.499023438 c 0
 141.9296875 153.064453125 207.546875 87.5 290.625 87.5 c 0
 372.809570312 87.5 439.375 153.232421875 439.375 234.5 c 0
 439.375 314.70703125 369.802734375 384.125 288 384.125 c 0
 264.169921875 384.125 244.25 404.044921875 244.25 427.875 c 0xf2
EndSplineSet
Validated: 33
EndChar

StartChar: four
Encoding: 52 52 29
Width: 581
VWidth: 43
Flags: W
HStem: 0 21G<367.085 390.915> 0 21G<367.085 390.915> 199.5 87.5<143.229 335.25 422.75 546.714> 767.5 20G<375.203 381.093> 767.5 20G<375.203 381.093>
VStem: 335.25 87.5<6.41116 199.5 287 592.101>
LayerCount: 2
Back
Fore
SplineSet
335.25 287 m 1x24
 335.25 592.100585938 l 1
 143.228515625 287 l 1
 335.25 287 l 1x24
379 0 m 0xb4
 355.169921875 0 335.25 19.919921875 335.25 43.75 c 2
 335.25 199.5 l 1
 64 199.5 l 2
 24.341796875 199.5 13.8720703125 214.438476562 13.8720703125 230.213867188 c 0
 13.8720703125 247.860351562 26.97265625 266.553710938 26.97265625 266.553710938 c 1
 341.97265625 767.053710938 l 2
 346.024414062 773.4921875 351.583007812 778.512695312 357.928710938 781.950195312 c 0
 364.209960938 785.477539062 371.40625 787.5 379 787.5 c 0
 383.186523438 787.5 387.251953125 786.885742188 391.109375 785.7421875 c 0
 394.986328125 784.654296875 398.7578125 783.008789062 402.303710938 780.77734375 c 0
 408.740234375 776.7265625 413.758789062 771.170898438 417.196289062 764.827148438 c 0
 420.725585938 758.544921875 422.75 751.345703125 422.75 743.75 c 2
 422.75 287 l 1
 509.375 287 l 2
 533.205078125 287 553.125 267.080078125 553.125 243.25 c 0
 553.125 219.419921875 533.205078125 199.5 509.375 199.5 c 2
 422.75 199.5 l 1
 422.75 43.75 l 2
 422.75 19.919921875 402.830078125 0 379 0 c 0xb4
EndSplineSet
Validated: 1
EndChar

StartChar: five
Encoding: 53 53 30
Width: 581
VWidth: 43
Flags: W
HStem: 0 87.5<201.775 362.909> 415.625 87.5<196.125 359.168> 700 87.5<196.125 470.589>
VStem: 47.4609 83.9502<153.564 208.284> 108.625 87.5<503.125 700> 445.5 87.5<170.091 331.594>
LayerCount: 2
Back
Fore
SplineSet
74.0625 210.911132812 m 0xf4
 79.48046875 213.206054688 85.1533203125 214.2890625 90.763671875 214.2890625 c 0
 107.875976562 214.2890625 124.412109375 204.212890625 131.411132812 187.6875 c 0xf4
 156.340820312 128.82421875 214.411132812 87.5 281.875 87.5 c 0
 372.358398438 87.5 445.5 160.642578125 445.5 251.125 c 0
 445.5 341.094726562 373.424804688 413.2265625 283.969726562 415.625 c 2
 152.375 415.625 l 2
 128.544921875 415.625 108.625 435.544921875 108.625 459.375 c 2
 108.625 743.75 l 2
 108.625 767.580078125 128.544921875 787.5 152.375 787.5 c 2
 433.25 787.5 l 2
 457.080078125 787.5 477 767.580078125 477 743.75 c 0
 477 719.919921875 457.080078125 700 433.25 700 c 2
 196.125 700 l 1
 196.125 503.125 l 1xec
 285.004882812 503.125 l 2
 423.092773438 499.938476562 533 388.90625 533 251.125 c 0
 533 112.357421875 420.641601562 0 281.875 0 c 0
 177.838867188 0 88.9091796875 63.67578125 50.8388671875 153.5625 c 0
 48.5439453125 158.98046875 47.4609375 164.653320312 47.4609375 170.263671875 c 0
 47.4609375 187.375 57.5380859375 203.912109375 74.0625 210.911132812 c 0xf4
EndSplineSet
Validated: 1
EndChar

StartChar: six
Encoding: 54 54 31
Width: 581
VWidth: 43
Flags: W
HStem: 0 87.5<209.768 371.822> 415.625 87.5<209.185 371.814> 700 87.5<209.436 370.824>
VStem: 38.625 87.5234<171.586 332.822 441.76 616.194> 437.77 82.874<589.655 641.309> 455.125 87.5<170.098 332.314>
LayerCount: 2
Back
Fore
SplineSet
126.125 441.759765625 m 1xf8
 170.329101562 479.705078125 228.216796875 503.125 290.625 503.125 c 0
 429.46484375 503.125 542.625 389.963867188 542.625 251.125 c 0xf4
 542.625 112.110351562 429.216796875 0 290.625 0 c 0
 152.033203125 0 38.625 112.110351562 38.625 251.125 c 2
 38.625 535.5 l 2
 38.625 674.33984375 151.786132812 787.5 290.625 787.5 c 0
 390.1640625 787.5 475.12109375 730.013671875 516.23046875 646.7421875 c 0
 519.228515625 640.669921875 520.643554688 634.16796875 520.643554688 627.73046875 c 0
 520.643554688 611.512695312 511.662109375 595.6953125 496.3671875 588.14453125 c 0
 490.294921875 585.147460938 483.793945312 583.731445312 477.35546875 583.731445312 c 0
 461.137695312 583.731445312 445.321289062 592.711914062 437.76953125 608.0078125 c 0
 410.62890625 662.986328125 355.5859375 700 290.625 700 c 0
 200.213867188 700 126.125 625.91015625 126.125 535.5 c 2
 126.125 441.759765625 l 1xf8
126.1484375 248.349609375 m 0
 127.5078125 159.303710938 200.81640625 87.5 290.625 87.5 c 0
 381.283203125 87.5 455.125 160.889648438 455.125 251.125 c 0
 455.125 341.536132812 381.03515625 415.625 290.625 415.625 c 0
 200.208984375 415.625 126.143554688 341.540039062 126.212890625 251.158203125 c 0
 126.212890625 250.283203125 126.203125 250.137695312 126.1484375 248.349609375 c 0
EndSplineSet
Validated: 33
EndChar

StartChar: seven
Encoding: 55 55 32
Width: 581
VWidth: 43
Flags: W
HStem: 0.078125 21G<217.605 228.979> 0.078125 21G<217.605 228.979> 700 87.5<43.2862 436.005>
LayerCount: 2
Back
Fore
SplineSet
36.875 743.75 m 0xa0
 36.875 767.580078125 56.794921875 787.5 80.625 787.5 c 2
 500.625 787.5 l 2
 503.444335938 787.5 506.208984375 787.221679688 508.891601562 786.690429688 c 0
 511.58203125 786.186523438 514.25390625 785.418945312 516.873046875 784.37109375 c 0
 525.2265625 781.029296875 532.0078125 775.258789062 536.737304688 768.1796875 c 0
 541.54296875 761.1640625 544.375 752.735351562 544.375 743.75 c 0
 544.375 740.938476562 544.09765625 738.180664062 543.569335938 735.50390625 c 0
 543.065429688 732.806640625 542.296875 730.127929688 541.24609375 727.501953125 c 2
 261.24609375 27.501953125 l 2
 254.467773438 10.5556640625 237.69140625 0.078125 220.267578125 0.078125 c 0
 214.942382812 0.078125 209.556640625 1.056640625 204.376953125 3.12890625 c 0
 187.430664062 9.9072265625 176.954101562 26.6845703125 176.954101562 44.1083984375 c 0
 176.954101562 49.43359375 177.932617188 54.8193359375 180.00390625 59.998046875 c 2
 436.004882812 700 l 1
 80.625 700 l 2
 56.794921875 700 36.875 719.919921875 36.875 743.75 c 0xa0
EndSplineSet
Validated: 1
EndChar

StartChar: eight
Encoding: 56 56 33
Width: 581
VWidth: 43
Flags: W
HStem: 0 87.5<209.436 371.814> 416.5 87.5<230.489 350.762> 700 87.5<230.794 350.456>
VStem: 38.625 87.5<170.811 331.948> 105.125 87.5<541.505 661.831> 388.625 87.5<541.505 661.831> 455.125 87.5<170.811 331.948>
LayerCount: 2
Back
Fore
SplineSet
290.625 416.5 m 0xf2
 200.21484375 416.5 126.125 342.411132812 126.125 252 c 0
 126.125 161.58984375 200.213867188 87.5 290.625 87.5 c 0
 381.03515625 87.5 455.125 161.588867188 455.125 252 c 0
 455.125 342.41015625 381.036132812 416.5 290.625 416.5 c 0xf2
542.625 252 m 0
 542.625 113.161132812 429.46484375 0 290.625 0 c 0
 151.786132812 0 38.625 113.16015625 38.625 252 c 0xf2
 38.625 343.901367188 88.2060546875 424.552734375 161.997070312 468.580078125 c 1
 126.97265625 502.36328125 105.125 549.725585938 105.125 602 c 0
 105.125 704.12109375 188.50390625 787.5 290.625 787.5 c 0
 392.74609375 787.5 476.125 704.12109375 476.125 602 c 0xec
 476.125 549.725585938 454.27734375 502.36328125 419.252929688 468.580078125 c 1
 493.043945312 424.552734375 542.625 343.90234375 542.625 252 c 0
388.625 602 m 0xec
 388.625 655.62890625 344.25390625 700 290.625 700 c 0
 236.99609375 700 192.625 655.62890625 192.625 602 c 0
 192.625 548.37109375 236.99609375 504 290.625 504 c 0
 344.25390625 504 388.625 548.37109375 388.625 602 c 0xec
EndSplineSet
Validated: 1
EndChar

StartChar: nine
Encoding: 57 57 34
Width: 581
VWidth: 43
Flags: W
HStem: 0 87.5<210.146 371.497> 283.5 87.5<209.436 372.067> 700 87.5<209.436 371.814>
VStem: 38.625 87.5<454.311 616.689> 59.7314 82.874<146.286 197.845> 455.125 87.5<171.825 344.857 453.814 616.194>
LayerCount: 2
Back
Fore
SplineSet
455.125 344.857421875 m 1xec
 410.916015625 306.916992188 353.036132812 283.5 290.625 283.5 c 0
 151.786132812 283.5 38.625 396.66015625 38.625 535.5 c 0xf4
 38.625 674.338867188 151.78515625 787.5 290.625 787.5 c 0
 429.463867188 787.5 542.625 674.33984375 542.625 535.5 c 2
 542.625 253.861328125 l 2
 542.68359375 252.944335938 542.713867188 252.021484375 542.712890625 251.091796875 c 0
 542.606445312 112.106445312 429.221679688 0 290.625 0 c 0
 191.219726562 0 105.37109375 57.248046875 64.14453125 140.7578125 c 0
 61.146484375 146.830078125 59.7314453125 153.33203125 59.7314453125 159.76953125 c 0
 59.7314453125 175.987304688 68.712890625 191.8046875 84.0078125 199.35546875 c 0
 90.080078125 202.352539062 96.5810546875 203.768554688 103.01953125 203.768554688 c 0
 119.237304688 203.768554688 135.053710938 194.788085938 142.60546875 179.4921875 c 0
 169.62890625 124.751953125 225.530273438 87.5 290.625 87.5 c 0
 380.459960938 87.5 453.807617188 159.57421875 455.193359375 248.716796875 c 0
 455.147460938 249.514648438 455.125 250.317382812 455.125 251.125 c 2
 455.125 344.857421875 l 1xec
455.125 535.5 m 0
 455.125 625.91015625 381.036132812 700 290.625 700 c 0
 200.21484375 700 126.125 625.911132812 126.125 535.5 c 0
 126.125 445.08984375 200.213867188 371 290.625 371 c 0
 381.03515625 371 455.125 445.088867188 455.125 535.5 c 0
EndSplineSet
Validated: 1
EndChar

StartChar: zero
Encoding: 48 48 35
Width: 581
VWidth: 43
Flags: W
HStem: 0 87.5<213.811 367.44> 700.035 87.5<213.811 367.44>
VStem: 53.6738 87.5<160.903 626.633> 440.076 87.5<160.902 626.632>
LayerCount: 2
Back
Fore
SplineSet
53.673828125 550.584960938 m 2
 53.673828125 681.58203125 159.6328125 787.53515625 290.625 787.53515625 c 0
 421.622070312 787.53515625 527.576171875 681.579101562 527.576171875 550.584960938 c 2
 527.576171875 236.950195312 l 2
 527.576171875 105.954101562 421.619140625 0 290.625 0 c 0
 159.629882812 0 53.673828125 105.956054688 53.673828125 236.950195312 c 2
 53.673828125 550.584960938 l 2
141.173828125 550.584960938 m 2
 141.173828125 236.950195312 l 2
 141.173828125 154.216796875 207.89453125 87.5 290.625 87.5 c 0
 373.359375 87.5 440.076171875 154.21875 440.076171875 236.950195312 c 2
 440.076171875 550.584960938 l 2
 440.076171875 633.318359375 373.357421875 700.03515625 290.625 700.03515625 c 0
 207.891601562 700.03515625 141.173828125 633.31640625 141.173828125 550.584960938 c 2
EndSplineSet
Validated: 1
EndChar

StartChar: period
Encoding: 46 46 36
Width: 294
VWidth: 43
Flags: W
HStem: 0 87.5<108.299 184.201>
VStem: 102.5 87.5<5.79899 81.701>
LayerCount: 2
Back
Fore
SplineSet
102.5 43.75 m 0
 102.5 67.900390625 122.099609375 87.5 146.25 87.5 c 0
 170.400390625 87.5 190 67.900390625 190 43.75 c 0
 190 19.599609375 170.400390625 0 146.25 0 c 0
 122.099609375 0 102.5 19.599609375 102.5 43.75 c 0
EndSplineSet
Validated: 1
EndChar

StartChar: colon
Encoding: 58 58 37
Width: 292
VWidth: 43
Flags: W
HStem: 0 87.5<108.299 184.201> 379.75 87.5<108.299 184.201>
VStem: 102.5 87.5<5.79899 81.701 385.549 461.451>
LayerCount: 2
Back
Fore
SplineSet
102.5 43.75 m 0
 102.5 67.900390625 122.099609375 87.5 146.25 87.5 c 0
 170.400390625 87.5 190 67.900390625 190 43.75 c 0
 190 19.599609375 170.400390625 0 146.25 0 c 0
 122.099609375 0 102.5 19.599609375 102.5 43.75 c 0
102.5 423.5 m 0
 102.5 447.650390625 122.099609375 467.25 146.25 467.25 c 0
 170.400390625 467.25 190 447.650390625 190 423.5 c 0
 190 399.349609375 170.400390625 379.75 146.25 379.75 c 0
 122.099609375 379.75 102.5 399.349609375 102.5 423.5 c 0
EndSplineSet
Validated: 1
EndChar

StartChar: comma
Encoding: 44 44 38
Width: 292
VWidth: 43
Flags: W
HStem: -132.125 219.625<108.911 183.589>
VStem: 102.5 87.5<-125.714 81.0888>
LayerCount: 2
Back
Fore
SplineSet
146.25 -132.125 m 0
 122.419921875 -132.125 102.5 -112.205078125 102.5 -88.375 c 2
 102.5 43.75 l 2
 102.5 67.580078125 122.419921875 87.5 146.25 87.5 c 0
 170.080078125 87.5 190 67.580078125 190 43.75 c 2
 190 -88.375 l 2
 190 -112.205078125 170.080078125 -132.125 146.25 -132.125 c 0
EndSplineSet
Validated: 1
EndChar

StartChar: hyphen
Encoding: 45 45 39
Width: 522
VWidth: 43
Flags: W
HStem: 287 87.5<108.911 413.714>
VStem: 102.5 317.625<293.411 368.089>
LayerCount: 2
Back
Fore
SplineSet
102.5 330.75 m 0
 102.5 354.580078125 122.419921875 374.5 146.25 374.5 c 2
 376.375 374.5 l 2
 400.205078125 374.5 420.125 354.580078125 420.125 330.75 c 0
 420.125 306.919921875 400.205078125 287 376.375 287 c 2
 146.25 287 l 2
 122.419921875 287 102.5 306.919921875 102.5 330.75 c 0
EndSplineSet
Validated: 1
EndChar

StartChar: exclam
Encoding: 33 33 40
Width: 292
VWidth: 43
Flags: W
HStem: 0 87.5<108.299 184.201> 767.5 20G<134.335 158.165> 767.5 20G<134.335 158.165>
VStem: 102.5 87.5<5.79899 81.701 170.911 781.089>
LayerCount: 2
Back
Fore
SplineSet
146.25 164.5 m 0xd0
 122.419921875 164.5 102.5 184.419921875 102.5 208.25 c 2
 102.5 743.75 l 2
 102.5 767.580078125 122.419921875 787.5 146.25 787.5 c 0
 170.080078125 787.5 190 767.580078125 190 743.75 c 2
 190 208.25 l 2
 190 184.419921875 170.080078125 164.5 146.25 164.5 c 0xd0
102.5 43.75 m 0
 102.5 67.900390625 122.099609375 87.5 146.25 87.5 c 0
 170.400390625 87.5 190 67.900390625 190 43.75 c 0
 190 19.599609375 170.400390625 0 146.25 0 c 0
 122.099609375 0 102.5 19.599609375 102.5 43.75 c 0
EndSplineSet
Validated: 1
EndChar

StartChar: question
Encoding: 63 63 41
Width: 564
VWidth: 43
Flags: W
HStem: 0.875 87.5<229.924 305.826> 700 87.5<233.135 354.31>
VStem: 224.125 87.5<6.67399 82.576 171.863 309.023> 392.125 87.5<546.008 661.836>
LayerCount: 2
Back
Fore
SplineSet
146.772460938 617.678710938 m 0
 130.204101562 624.655273438 120.084960938 641.216796875 120.084960938 658.360351562 c 0
 120.084960938 663.94140625 121.157226562 669.583984375 123.428710938 674.977539062 c 0
 132.5390625 696.616210938 146.962890625 717.966796875 163.9765625 734.096679688 c 0
 197.84375 767.555664062 243.95703125 787.5 294.125 787.5 c 0
 397.168945312 787.5 479.625 703.881835938 479.625 602 c 0
 479.625 572.567382812 470.094726562 544.423828125 457.163085938 519.637695312 c 0
 456.7890625 518.921875 456.229492188 517.932617188 455.921875 517.418945312 c 2
 346.546875 334.543945312 l 2
 316.170898438 283.752929688 311.711914062 253.260742188 311.711914062 210.36328125 c 0
 311.711914062 185.69921875 292.59375 165.397460938 267.96484375 165.375 c 0
 243.697265625 165.375 224.211914062 185.494140625 224.211914062 209.870117188 c 0
 224.211914062 262.345703125 233.442382812 315.901367188 271.453125 379.456054688 c 2
 380.130859375 561.165039062 l 2
 387.55859375 575.76171875 392.125 593.133789062 392.125 602 c 0
 392.125 655.868164062 348.581054688 700 294.125 700 c 0
 267.364257812 700 243.12890625 689.506835938 224.77734375 671.15625 c 0
 215.607421875 662.596679688 209.001953125 652.732421875 204.071289062 641.022460938 c 0
 197.095703125 624.453125 180.533203125 614.334960938 163.389648438 614.334960938 c 0
 157.80859375 614.334960938 152.166015625 615.407226562 146.772460938 617.678710938 c 0
224.125 44.625 m 0
 224.125 68.775390625 243.724609375 88.375 267.875 88.375 c 0
 292.025390625 88.375 311.625 68.775390625 311.625 44.625 c 0
 311.625 20.474609375 292.025390625 0.875 267.875 0.875 c 0
 243.724609375 0.875 224.125 20.474609375 224.125 44.625 c 0
EndSplineSet
Validated: 1
EndChar

StartChar: parenleft
Encoding: 40 40 42
Width: 356
VWidth: 43
Flags: W
HStem: 0.0732422 21G<200.864 212.25> 0.0732422 21G<200.864 212.25> 767.428 20G<201.625 213.012> 767.428 20G<201.625 213.012>
VStem: 102.5 87.5<189.232 593.164> 168.48 84.5332<5.90165 87.4451 694.483 781.964>
LayerCount: 2
Back
Fore
SplineSet
225.630859375 784.66015625 m 0xa8
 242.956054688 778.09375 253.802734375 761.104492188 253.802734375 743.397460938 c 0
 253.802734375 738.329101562 252.915039062 733.202148438 251.03515625 728.244140625 c 0
 211.7421875 624.578125 190 511.701171875 190 394.625 c 0xa8
 190 277.3125 211.033203125 161.6640625 250.194335938 59.3955078125 c 0
 252.109375 54.3955078125 253.013671875 49.220703125 253.013671875 44.1044921875 c 0
 253.013671875 26.4501953125 242.237304688 9.5 224.982421875 2.892578125 c 0
 219.982421875 0.978515625 214.807617188 0.0732421875 209.69140625 0.0732421875 c 0
 192.037109375 0.0732421875 175.087890625 10.8505859375 168.48046875 28.1044921875 c 0xa4
 125.216796875 141.0859375 102.5 266.9375 102.5 394.625 c 0
 102.5 522.548828125 126.2578125 645.921875 169.21484375 759.255859375 c 0
 175.78125 776.581054688 192.770507812 787.427734375 210.478515625 787.427734375 c 0
 215.545898438 787.427734375 220.672851562 786.5390625 225.630859375 784.66015625 c 0xa8
EndSplineSet
Validated: 1
EndChar

StartChar: parenright
Encoding: 41 41 43
Width: 356
VWidth: 43
Flags: W
HStem: 0.0732422 21G<143.436 154.823> 0.0732422 21G<143.436 154.823> 767.428 20G<143.363 154.75> 767.428 20G<143.363 154.75>
VStem: 102.66 84.5566<5.9157 87.308 699.863 781.565> 166.375 87.5<194.344 592.798>
LayerCount: 2
Back
Fore
SplineSet
130.744140625 784.66015625 m 0xa4
 135.702148438 786.5390625 140.829101562 787.427734375 145.896484375 787.427734375 c 0
 163.604492188 787.427734375 180.59375 776.581054688 187.16015625 759.255859375 c 0
 230.142578125 645.853515625 253.875 521.66796875 253.875 393.75 c 0xa4
 253.875 265.842773438 230.181640625 140.84375 187.216796875 28.1630859375 c 0
 180.626953125 10.87890625 163.661132812 0.0732421875 145.984375 0.0732421875 c 0
 140.887695312 0.0732421875 135.732421875 0.970703125 130.75 2.87109375 c 0
 113.465820312 9.4619140625 102.66015625 26.427734375 102.66015625 44.103515625 c 0xa8
 102.66015625 49.2001953125 103.55859375 54.3544921875 105.458007812 59.3369140625 c 0
 144.568359375 161.90625 166.375 276.657226562 166.375 393.75 c 0
 166.375 510.83203125 144.607421875 624.646484375 105.33984375 728.244140625 c 0
 103.459960938 733.202148438 102.572265625 738.329101562 102.572265625 743.397460938 c 0
 102.572265625 761.104492188 113.418945312 778.09375 130.744140625 784.66015625 c 0xa4
EndSplineSet
Validated: 1
EndChar

StartChar: slash
Encoding: 47 47 45
Width: 515
VWidth: 43
Flags: W
HStem: 0.0537109 21G<143.766 155.199> 0.0537109 21G<143.766 155.199> 767.446 20G<360.426 371.859> 767.446 20G<360.426 371.859>
VStem: 327.691 85.3799<735.076 781.422>
LayerCount: 2
Back
Fore
SplineSet
382.662109375 785.43359375 m 0xa8
 401.083984375 779.561523438 413.071289062 761.975585938 413.071289062 743.421875 c 0
 413.071289062 739.109375 412.423828125 734.745117188 411.05859375 730.462890625 c 2
 187.93359375 30.462890625 l 2
 182.061523438 12.041015625 164.475585938 0.0537109375 145.921875 0.0537109375 c 0
 141.609375 0.0537109375 137.245117188 0.701171875 132.962890625 2.06640625 c 0
 114.541015625 7.9384765625 102.553710938 25.5244140625 102.553710938 44.078125 c 0
 102.553710938 48.390625 103.201171875 52.7548828125 104.56640625 57.037109375 c 2
 327.69140625 757.037109375 l 2
 333.563476562 775.458984375 351.149414062 787.446289062 369.703125 787.446289062 c 0
 374.015625 787.446289062 378.379882812 786.798828125 382.662109375 785.43359375 c 0xa8
EndSplineSet
Validated: 1
EndChar

StartChar: plus
Encoding: 43 43 46
Width: 522
VWidth: 43
Flags: W
HStem: 287 87.5<108.911 217.562 305.062 413.714>
VStem: 217.562 87.5<178.349 287 374.5 483.151>
LayerCount: 2
Back
Fore
SplineSet
261.3125 171.9375 m 0
 237.482421875 171.9375 217.5625 191.857421875 217.5625 215.6875 c 2
 217.5625 287 l 1
 146.25 287 l 2
 122.419921875 287 102.5 306.919921875 102.5 330.75 c 0
 102.5 354.580078125 122.419921875 374.5 146.25 374.5 c 2
 217.5625 374.5 l 1
 217.5625 445.8125 l 2
 217.5625 469.642578125 237.482421875 489.5625 261.3125 489.5625 c 0
 285.142578125 489.5625 305.0625 469.642578125 305.0625 445.8125 c 2
 305.0625 374.5 l 1
 376.375 374.5 l 2
 400.205078125 374.5 420.125 354.580078125 420.125 330.75 c 0
 420.125 306.919921875 400.205078125 287 376.375 287 c 2
 305.0625 287 l 1
 305.0625 215.6875 l 2
 305.0625 191.857421875 285.142578125 171.9375 261.3125 171.9375 c 0
EndSplineSet
Validated: 1
EndChar

StartChar: asterisk
Encoding: 42 42 47
Width: 491
VWidth: 43
Flags: W
HStem: 527.535 202.305<131.352 196.3 295.495 360.443> 767.5 20G<233.982 257.812> 767.5 20G<233.982 257.812>
VStem: 202.147 87.5<476.286 552.91 704.465 781.089>
LayerCount: 2
Back
Fore
SplineSet
289.647460938 513.625 m 2xd0
 289.647460938 489.794921875 269.727539062 469.875 245.897460938 469.875 c 0
 222.067382812 469.875 202.147460938 489.794921875 202.147460938 513.625 c 2
 202.147460938 552.91015625 l 1
 168.125 533.267578125 l 2
 161.387695312 529.377929688 153.950195312 527.53515625 146.573242188 527.53515625 c 0
 131.3515625 527.53515625 116.38671875 535.380859375 108.361328125 549.28125 c 0
 104.471679688 556.018554688 102.62890625 563.455078125 102.62890625 570.833007812 c 0
 102.62890625 586.0546875 110.474609375 601.01953125 124.375 609.044921875 c 2
 158.397460938 628.6875 l 1
 124.375 648.330078125 l 2
 110.474609375 656.35546875 102.62890625 671.3203125 102.62890625 686.541992188 c 0
 102.62890625 693.919921875 104.471679688 701.356445312 108.361328125 708.09375 c 0
 116.38671875 721.994140625 131.3515625 729.83984375 146.573242188 729.83984375 c 0
 153.950195312 729.83984375 161.387695312 727.997070312 168.125 724.107421875 c 2
 202.147460938 704.46484375 l 1
 202.147460938 743.75 l 2
 202.147460938 767.580078125 222.067382812 787.5 245.897460938 787.5 c 0
 269.727539062 787.5 289.647460938 767.580078125 289.647460938 743.75 c 2
 289.647460938 704.46484375 l 1
 323.669921875 724.107421875 l 2
 330.407226562 727.997070312 337.84375 729.83984375 345.221679688 729.83984375 c 0
 360.443359375 729.83984375 375.408203125 721.994140625 383.43359375 708.09375 c 0
 387.323242188 701.356445312 389.166015625 693.918945312 389.166015625 686.541992188 c 0
 389.166015625 671.3203125 381.3203125 656.35546875 367.419921875 648.330078125 c 2
 333.397460938 628.6875 l 1
 367.419921875 609.044921875 l 2
 381.3203125 601.01953125 389.166015625 586.0546875 389.166015625 570.833007812 c 0
 389.166015625 563.456054688 387.323242188 556.018554688 383.43359375 549.28125 c 0
 375.408203125 535.380859375 360.443359375 527.53515625 345.221679688 527.53515625 c 0
 337.84375 527.53515625 330.407226562 529.377929688 323.669921875 533.267578125 c 2
 289.647460938 552.91015625 l 1
 289.647460938 513.625 l 2xd0
EndSplineSet
Validated: 1
EndChar

StartChar: quotedbl
Encoding: 34 34 48
Width: 436
VWidth: 43
Flags: W
HStem: 567.875 219.625<108.911 183.589 252.411 327.089>
VStem: 102.5 87.5<574.286 781.089> 246 87.5<574.286 781.089>
LayerCount: 2
Back
Fore
SplineSet
289.75 567.875 m 0
 265.919921875 567.875 246 587.794921875 246 611.625 c 2
 246 743.75 l 2
 246 767.580078125 265.919921875 787.5 289.75 787.5 c 0
 313.580078125 787.5 333.5 767.580078125 333.5 743.75 c 2
 333.5 611.625 l 2
 333.5 587.794921875 313.580078125 567.875 289.75 567.875 c 0
146.25 567.875 m 0
 122.419921875 567.875 102.5 587.794921875 102.5 611.625 c 2
 102.5 743.75 l 2
 102.5 767.580078125 122.419921875 787.5 146.25 787.5 c 0
 170.080078125 787.5 190 767.580078125 190 743.75 c 2
 190 611.625 l 2
 190 587.794921875 170.080078125 567.875 146.25 567.875 c 0
EndSplineSet
Validated: 1
EndChar

StartChar: quotesingle
Encoding: 39 39 49
Width: 292
VWidth: 43
Flags: W
HStem: 567.875 219.625<108.911 183.589>
VStem: 102.5 87.5<574.286 781.089>
LayerCount: 2
Back
Fore
SplineSet
146.25 567.875 m 0
 122.419921875 567.875 102.5 587.794921875 102.5 611.625 c 2
 102.5 743.75 l 2
 102.5 767.580078125 122.419921875 787.5 146.25 787.5 c 0
 170.080078125 787.5 190 767.580078125 190 743.75 c 2
 190 611.625 l 2
 190 587.794921875 170.080078125 567.875 146.25 567.875 c 0
EndSplineSet
Validated: 1
EndChar

StartChar: numbersign
Encoding: 35 35 50
Width: 794
VWidth: 43
Flags: W
HStem: 0.0537109 21G<172.203 183.636 417.203 428.636> 0.0537109 21G<172.203 183.636 417.203 428.636> 230.125 87.5<108.911 188.176 307.904 433.176 552.904 627.214> 424.375 87.5<176.286 250.093 369.821 495.093 614.821 685.839> 767.446 20G<388.864 400.297 633.864 645.297> 767.446 20G<388.864 400.297 633.864 645.297>
VStem: 130.991 85.3799<6.07775 52.4236> 356.129 85.3799<735.076 781.422> 375.991 85.3799<6.07775 52.4236> 601.129 85.3799<735.076 781.422>
LayerCount: 2
Back
Fore
SplineSet
461.06640625 317.625 m 1x3240
 495.092773438 424.375 l 1
 341.930664062 424.375 l 1
 307.904296875 317.625 l 1
 461.06640625 317.625 l 1x3240
411.099609375 785.43359375 m 0
 429.521484375 779.561523438 441.508789062 761.975585938 441.508789062 743.421875 c 0xbb40
 441.508789062 739.109375 440.861328125 734.745117188 439.49609375 730.462890625 c 2
 369.821289062 511.875 l 1
 522.983398438 511.875 l 1
 601.12890625 757.037109375 l 2
 607.000976562 775.458984375 624.586914062 787.446289062 643.140625 787.446289062 c 0
 647.453125 787.446289062 651.817382812 786.798828125 656.099609375 785.43359375 c 0
 674.521484375 779.561523438 686.508789062 761.975585938 686.508789062 743.421875 c 0
 686.508789062 739.109375 685.861328125 734.745117188 684.49609375 730.462890625 c 2
 614.821289062 511.875 l 1
 648.5 511.875 l 2
 672.330078125 511.875 692.25 491.955078125 692.25 468.125 c 0
 692.25 444.294921875 672.330078125 424.375 648.5 424.375 c 2
 586.930664062 424.375 l 1
 552.904296875 317.625 l 1
 589.875 317.625 l 2
 613.705078125 317.625 633.625 297.705078125 633.625 273.875 c 0
 633.625 250.044921875 613.705078125 230.125 589.875 230.125 c 2
 525.013671875 230.125 l 1
 461.37109375 30.462890625 l 2
 455.499023438 12.041015625 437.913085938 0.0537109375 419.359375 0.0537109375 c 0
 415.046875 0.0537109375 410.682617188 0.701171875 406.400390625 2.06640625 c 0
 387.978515625 7.9384765625 375.991210938 25.5244140625 375.991210938 44.078125 c 0xbac0
 375.991210938 48.390625 376.638671875 52.7548828125 378.00390625 57.037109375 c 2
 433.17578125 230.125 l 1
 280.013671875 230.125 l 1
 216.37109375 30.462890625 l 2
 210.499023438 12.041015625 192.913085938 0.0537109375 174.359375 0.0537109375 c 0
 170.046875 0.0537109375 165.682617188 0.701171875 161.400390625 2.06640625 c 0
 142.978515625 7.9384765625 130.991210938 25.5244140625 130.991210938 44.078125 c 0
 130.991210938 48.390625 131.638671875 52.7548828125 133.00390625 57.037109375 c 2
 188.17578125 230.125 l 1
 146.25 230.125 l 2
 122.419921875 230.125 102.5 250.044921875 102.5 273.875 c 0
 102.5 297.705078125 122.419921875 317.625 146.25 317.625 c 2
 216.06640625 317.625 l 1
 250.092773438 424.375 l 1
 213.625 424.375 l 2
 189.794921875 424.375 169.875 444.294921875 169.875 468.125 c 0
 169.875 491.955078125 189.794921875 511.875 213.625 511.875 c 2
 277.983398438 511.875 l 1
 356.12890625 757.037109375 l 2
 362.000976562 775.458984375 379.586914062 787.446289062 398.140625 787.446289062 c 0xbb40
 402.453125 787.446289062 406.817382812 786.798828125 411.099609375 785.43359375 c 0
EndSplineSet
Validated: 1
EndChar

StartChar: dollar
Encoding: 36 36 51
Width: 625
VWidth: 43
Flags: W
HStem: -62.125 148.75<268.966 342.636> 700 148.75<267.045 340.783>
VStem: 102.584 84.0508<130.749 186.486> 118.25 87.5<546.179 661.413> 260 87.5<-53.9606 8.16621 776.739 842.339> 435 87.5<144.938 286.546>
LayerCount: 2
Back
Fore
SplineSet
129.422851562 189.134765625 m 0xec
 134.772460938 191.36328125 140.362304688 192.416015625 145.889648438 192.416015625 c 0
 163.091796875 192.416015625 179.698242188 182.224609375 186.634765625 165.577148438 c 0xec
 193.284179688 149.618164062 202.224609375 136.271484375 213.935546875 124.560546875 c 0
 237.431640625 101.065429688 270.040039062 86.625 306.375 86.625 c 0
 377.328125 86.625 435 144.665039062 435 216.125 c 0
 435 252.525390625 420.818359375 288.083984375 390.493164062 311.408203125 c 2
 194.859375 453.766601562 l 2
 150.024414062 486.484375 118.25 545.926757812 118.25 602 c 0
 118.25 688.962890625 178.325195312 762.618164062 260 782.326171875 c 1
 260 805 l 2
 260 828.830078125 279.919921875 848.75 303.75 848.75 c 0
 327.580078125 848.75 347.5 828.830078125 347.5 805 c 2
 347.5 782.171875 l 1
 380.862304688 773.96875 410.931640625 756.787109375 433.8984375 734.096679688 c 0
 451.6875 717.26953125 465.018554688 698.173828125 474.458007812 676.032226562 c 0
 476.779296875 670.5859375 477.875976562 664.879882812 477.875976562 659.236328125 c 0
 477.875976562 642.161132812 467.844726562 625.653320312 451.370117188 618.629882812 c 0
 445.923828125 616.307617188 440.217773438 615.211914062 434.573242188 615.211914062 c 0
 417.498046875 615.211914062 400.990234375 625.243164062 393.966796875 641.717773438 c 0
 389.15234375 653.010742188 383.021484375 661.892578125 373.09765625 671.15625 c 0
 354.749023438 689.50390625 330.508789062 700 303.75 700 c 0
 249.293945312 700 205.75 655.868164062 205.75 602 c 0xdc
 205.75 579.31640625 226.453125 539.032226562 246.4140625 524.465820312 c 2
 442.735351562 381.607421875 l 2
 499.876953125 338.1796875 522.5 274.396484375 522.5 216.125 c 0
 522.5 111.770507812 448.783203125 23.9306640625 350.125 3.5703125 c 1
 350.125 -18.375 l 2
 350.125 -42.205078125 330.205078125 -62.125 306.375 -62.125 c 0
 282.544921875 -62.125 262.625 -42.205078125 262.625 -18.375 c 2
 262.625 3.4853515625 l 1
 220.025390625 12.0927734375 181.711914062 33.0419921875 152.064453125 62.689453125 c 0
 132.275390625 82.478515625 116.715820312 105.881835938 105.865234375 131.922851562 c 0
 103.63671875 137.272460938 102.583984375 142.862304688 102.583984375 148.389648438 c 0
 102.583984375 165.591796875 112.776367188 182.198242188 129.422851562 189.134765625 c 0xec
EndSplineSet
Validated: 1
EndChar

StartChar: percent
Encoding: 37 37 52
Width: 747
VWidth: 43
Flags: W
HStem: 0 87.5<436.841 538.159> 0.145508 21G<141.897 153.179> 227.5 87.5<436.841 538.159> 472.5 87.5<209.341 310.659> 700 87.5<209.341 310.659> 767.355 20G<594.321 605.603>
VStem: 102.5 87.5<579.341 680.659> 330 87.5<106.841 208.159 579.341 680.659> 557.5 87.5<106.841 208.159>
CounterMasks: 1 0380
LayerCount: 2
Back
Fore
SplineSet
417.5 157.5 m 0xb380
 417.5 118.612304688 448.607421875 87.5 487.5 87.5 c 0
 526.387695312 87.5 557.5 118.607421875 557.5 157.5 c 0
 557.5 196.387695312 526.392578125 227.5 487.5 227.5 c 0
 448.612304688 227.5 417.5 196.392578125 417.5 157.5 c 0xb380
330 157.5 m 0
 330 244.607421875 400.387695312 315 487.5 315 c 0
 574.607421875 315 645 244.612304688 645 157.5 c 0
 645 70.392578125 574.612304688 0 487.5 0 c 0
 400.392578125 0 330 70.3876953125 330 157.5 c 0
190 630 m 0
 190 591.112304688 221.107421875 560 260 560 c 0
 298.887695312 560 330 591.107421875 330 630 c 0
 330 668.887695312 298.892578125 700 260 700 c 0x3b80
 221.112304688 700 190 668.892578125 190 630 c 0
102.5 630 m 0
 102.5 717.107421875 172.887695312 787.5 260 787.5 c 0
 347.107421875 787.5 417.5 717.112304688 417.5 630 c 0
 417.5 542.892578125 347.112304688 472.5 260 472.5 c 0
 172.892578125 472.5 102.5 542.887695312 102.5 630 c 0
625.092773438 780.431640625 m 0
 637.859375 772.133789062 644.854492188 757.887695312 644.854492188 743.470703125 c 0
 644.854492188 735.323242188 642.62109375 727.12109375 637.931640625 719.907226562 c 2
 182.931640625 19.9072265625 l 2
 174.633789062 7.140625 160.387695312 0.1455078125 145.970703125 0.1455078125 c 0
 137.823242188 0.1455078125 129.62109375 2.37890625 122.407226562 7.068359375 c 0
 109.640625 15.3662109375 102.64453125 29.6123046875 102.64453125 44.029296875 c 0
 102.64453125 52.1767578125 104.87890625 60.37890625 109.568359375 67.5927734375 c 2
 564.568359375 767.592773438 l 2
 572.866210938 780.359375 587.112304688 787.35546875 601.529296875 787.35546875 c 0x7780
 609.676757812 787.35546875 617.87890625 785.12109375 625.092773438 780.431640625 c 0
EndSplineSet
Validated: 1
EndChar

StartChar: ampersand
Encoding: 38 38 53
Width: 802
VWidth: 43
Flags: W
HStem: -0.875 87.5<275.487 418.769> 700 87.5<287.315 407.685>
VStem: 128.75 87.5<145.244 287.779> 162 87.5<548.559 661.836> 445.5 87.5<546.177 661.836>
LayerCount: 2
Back
Fore
SplineSet
577.322265625 259.333984375 m 1xd8
 611.206054688 294.142578125 623.14453125 343.875 677.462890625 343.875 c 0
 701.291992188 343.875 721.212890625 323.955078125 721.212890625 300.125 c 0
 721.212890625 289.044921875 716.981445312 278.296875 709.294921875 270.112304688 c 0
 705.375 266.037109375 677.720703125 237.047851562 641.586914062 199.909179688 c 1
 712.328125 134.497070312 l 2
 721.533203125 125.985351562 726.200195312 114.16015625 726.200195312 102.315429688 c 0
 726.200195312 91.6474609375 722.4140625 80.9638671875 714.747070312 72.671875 c 0
 706.235351562 63.466796875 694.41015625 58.7998046875 682.565429688 58.7998046875 c 0
 671.897460938 58.7998046875 661.213867188 62.5859375 652.921875 70.2529296875 c 2
 580.182617188 137.514648438 l 1
 539.615234375 96.876953125 507.606445312 63.9609375 484.8515625 49.4228515625 c 1
 445.974609375 13.4150390625 398.013671875 -0.875 344.875 -0.875 c 0
 225.075195312 -0.875 128.75 96.8369140625 128.75 216.125 c 0xe8
 128.75 274.40234375 151.362304688 338.171875 208.514648438 381.607421875 c 2
 268.782226562 425.462890625 l 1
 234.671875 457.00390625 l 2
 199.45703125 489.567382812 162 542.940429688 162 602 c 0
 162 703.881835938 244.456054688 787.5 347.5 787.5 c 0
 450.543945312 787.5 533 703.881835938 533 602 c 0
 533 545.874023438 501.178710938 486.450195312 456.390625 453.766601562 c 2
 406.396484375 417.387695312 l 1
 577.322265625 259.333984375 l 1xd8
340.90625 477.9453125 m 1
 404.8828125 524.5 l 2
 424.803710938 539.037109375 445.5 579.379882812 445.5 602 c 0
 445.5 655.868164062 401.956054688 700 347.5 700 c 0
 293.043945312 700 249.5 655.868164062 249.5 602 c 0xd8
 249.5 582.309570312 270.637695312 542.922851562 294.078125 521.24609375 c 2
 340.90625 477.9453125 l 1
334.272460938 364.904296875 m 1
 260.756835938 311.408203125 l 2
 229.735351562 287.547851562 216.25 252.298828125 216.25 216.125 c 0xe8
 216.25 144.663085938 273.924804688 86.625 344.875 86.625 c 0
 385.998046875 86.625 405.219726562 93.703125 427.939453125 116.059570312 c 0
 431.055664062 119.125 435.166015625 121.948242188 438.591796875 123.7734375 c 0
 448.024414062 130.88671875 481.602539062 162.670898438 515.891601562 196.963867188 c 1
 334.272460938 364.904296875 l 1
EndSplineSet
Validated: 1
EndChar

StartChar: semicolon
Encoding: 59 59 54
Width: 292
VWidth: 43
Flags: W
HStem: -132.125 219.625<106.286 180.964> 379.75 87.5<108.299 184.201>
VStem: 99.875 87.5<-125.714 81.0888 387.225 459.775>
LayerCount: 2
Back
Fore
SplineSet
102.5 423.5 m 0
 102.5 447.650390625 122.099609375 467.25 146.25 467.25 c 0
 170.400390625 467.25 190 447.650390625 190 423.5 c 0
 190 399.349609375 170.400390625 379.75 146.25 379.75 c 0
 122.099609375 379.75 102.5 399.349609375 102.5 423.5 c 0
143.625 -132.125 m 0
 119.794921875 -132.125 99.875 -112.205078125 99.875 -88.375 c 2
 99.875 43.75 l 2
 99.875 67.580078125 119.794921875 87.5 143.625 87.5 c 0
 167.455078125 87.5 187.375 67.580078125 187.375 43.75 c 2
 187.375 -88.375 l 2
 187.375 -112.205078125 167.455078125 -132.125 143.625 -132.125 c 0
EndSplineSet
Validated: 1
EndChar

StartChar: at
Encoding: 64 64 55
Width: 992
VWidth: 43
Flags: W
HStem: 0.3125 87.5<387.92 609.139> 190.776 87.5<690.293 776.959> 200.909 87.5<435.079 549.158> 497.863 87.5<439.948 555.288> 699.863 87.5<387.779 604.406>
VStem: 102.5 87.5<285.415 501.954> 312.441 87.5<325.626 455.96> 590.396 87.5<330.704 461.04> 802.806 87.5<304.364 501.209>
LayerCount: 2
Back
Fore
SplineSet
473.625 290.349609375 m 0xbf80
 479.70703125 289.033203125 485.721679688 288.409179688 491.677734375 288.409179688 c 0
 533.892578125 288.409179688 576.68359375 321.1484375 587.779296875 373.178710938 c 0
 587.813476562 373.344726562 587.84765625 373.509765625 587.8828125 373.674804688 c 0
 587.892578125 373.720703125 587.90234375 373.766601562 587.912109375 373.8125 c 0
 589.600585938 381.946289062 590.395507812 389.9375 590.395507812 397.711914062 c 0
 590.395507812 447.079101562 559.080078125 486.717773438 516.711914062 495.890625 c 0
 510.526367188 497.229492188 504.420898438 497.86328125 498.368164062 497.86328125 c 0
 455.912109375 497.86328125 413.366210938 465.41796875 402.46875 413.408203125 c 0
 400.750976562 405.208984375 399.94140625 397.131835938 399.94140625 389.2578125 c 0
 399.94140625 339.55078125 431.501953125 299.46875 473.625 290.349609375 c 0xbf80
455.111328125 204.830078125 m 0
 368.45703125 223.590820312 312.44140625 302.950195312 312.44140625 389.2578125 c 0
 312.44140625 403.142578125 313.874023438 417.25 316.828125 431.3515625 c 0
 335.62109375 521.045898438 411.46484375 585.36328125 498.368164062 585.36328125 c 0
 510.571289062 585.36328125 522.938476562 584.0703125 535.225585938 581.409179688 c 0
 621.635742188 562.702148438 677.895507812 484.045898438 677.895507812 397.711914062 c 0
 677.895507812 383.844726562 676.4609375 369.752929688 673.508789062 355.658203125 c 0
 673.485351562 355.546875 673.461914062 355.435546875 673.438476562 355.325195312 c 0
 672.333984375 350.0078125 671.8203125 344.801757812 671.8203125 339.797851562 c 0
 671.8203125 316.61328125 699.338867188 283.265625 718.787109375 279.051757812 c 0
 721.23828125 278.521484375 723.608398438 278.276367188 725.987304688 278.276367188 c 0
 753.602539062 278.276367188 790.1484375 301.014648438 796.295898438 330.108398438 c 0
 800.677734375 351.14453125 802.805664062 372.321289062 802.805664062 393.021484375 c 0
 802.805664062 534.815429688 703.924804688 662.354492188 559.625 693.084960938 c 0
 538.088867188 697.670898438 516.674804688 699.86328125 495.59765625 699.86328125 c 0
 354.3671875 699.86328125 227.434570312 601.208007812 196.779296875 457.263671875 c 0
 192.192382812 435.725585938 190 414.309570312 190 393.233398438 c 0
 190 252.009765625 288.72265625 125.056640625 432.521484375 94.4326171875 c 0
 453.793945312 89.984375 475.286132812 87.8125 496.240234375 87.8125 c 0
 544.544921875 87.8125 591.186523438 99.185546875 633.172851562 120.03125 c 0
 639.26953125 123.05859375 645.803710938 124.487304688 652.274414062 124.487304688 c 0
 668.456054688 124.487304688 684.244140625 115.548828125 691.814453125 100.30078125 c 0
 694.841796875 94.2041015625 696.271484375 87.669921875 696.271484375 81.19921875 c 0
 696.271484375 65.0166015625 687.331054688 49.2294921875 672.083984375 41.6591796875 c 0
 618.325195312 14.9677734375 558.333007812 0.3125 496.240234375 0.3125 c 0
 469.205078125 0.3125 441.99609375 3.0595703125 414.455078125 8.8173828125 c 0
 229.340820312 48.240234375 102.5 211.286132812 102.5 393.233398438 c 0
 102.5 420.385742188 105.33203125 447.939453125 111.197265625 475.486328125 c 0
 150.58984375 660.45703125 313.654296875 787.36328125 495.59765625 787.36328125 c 0
 522.749023438 787.36328125 550.302734375 784.532226562 577.8515625 778.665039062 c 0
 763.310546875 739.169921875 890.305664062 575.3984375 890.305664062 393.021484375 c 0
 890.305664062 366.298828125 887.598632812 339.346679688 881.930664062 312.141601562 c 0
 864.724609375 230.696289062 786.301757812 190.776367188 725.987304688 190.776367188 c 0xdf80
 717.45703125 190.776367188 708.821289062 191.681640625 700.265625 193.53515625 c 0
 666.239257812 200.907226562 636.069335938 222.383789062 615.041015625 250.729492188 c 1
 581.87890625 219.595703125 538.422851562 200.909179688 491.677734375 200.909179688 c 0
 479.568359375 200.909179688 467.306640625 202.190429688 455.111328125 204.830078125 c 0
EndSplineSet
Validated: 1
EndChar

StartChar: equal
Encoding: 61 61 56
Width: 522
VWidth: 43
Flags: W
HStem: 194.25 87.5<108.911 413.714> 379.75 87.5<108.911 413.714>
VStem: 102.5 317.625<200.661 275.339 386.161 460.839>
LayerCount: 2
Back
Fore
SplineSet
420.125 238 m 0
 420.125 214.169921875 400.205078125 194.25 376.375 194.25 c 2
 146.25 194.25 l 2
 122.419921875 194.25 102.5 214.169921875 102.5 238 c 0
 102.5 261.830078125 122.419921875 281.75 146.25 281.75 c 2
 376.375 281.75 l 2
 400.205078125 281.75 420.125 261.830078125 420.125 238 c 0
420.125 423.5 m 0
 420.125 399.669921875 400.205078125 379.75 376.375 379.75 c 2
 146.25 379.75 l 2
 122.419921875 379.75 102.5 399.669921875 102.5 423.5 c 0
 102.5 447.330078125 122.419921875 467.25 146.25 467.25 c 2
 376.375 467.25 l 2
 400.205078125 467.25 420.125 447.330078125 420.125 423.5 c 0
EndSplineSet
Validated: 1
EndChar

StartChar: less
Encoding: 60 60 57
Width: 516
VWidth: 43
Flags: W
VStem: 99.79 314.039
LayerCount: 2
Back
Fore
SplineSet
403.559570312 13.634765625 m 0
 395.009765625 3.5947265625 382.590820312 -1.5791015625 370.12890625 -1.5791015625 c 0
 360.072265625 -1.5791015625 349.987304688 1.7900390625 341.884765625 8.6904296875 c 2
 117.884765625 199.440429688 l 2
 111.662109375 204.740234375 99.7900390625 217.447265625 99.7900390625 233.409179688 c 0
 99.7900390625 243.362304688 104.40625 254.581054688 117.884765625 266.059570312 c 2
 341.884765625 456.809570312 l 2
 349.987304688 463.708984375 360.073242188 467.078125 370.129882812 467.078125 c 0
 382.590820312 467.078125 395.009765625 461.905273438 403.559570312 451.865234375 c 0
 410.459960938 443.762695312 413.829101562 433.677734375 413.829101562 423.62109375 c 0
 413.829101562 411.159179688 408.655273438 398.740234375 398.615234375 390.190429688 c 2
 213.73046875 232.75 l 1
 398.615234375 75.3095703125 l 2
 408.655273438 66.759765625 413.828125 54.3408203125 413.828125 41.8798828125 c 0
 413.828125 31.8232421875 410.458984375 21.7373046875 403.559570312 13.634765625 c 0
EndSplineSet
Validated: 1
EndChar

StartChar: greater
Encoding: 62 62 58
Width: 516
VWidth: 43
Flags: W
VStem: 102.672 314.038
LayerCount: 2
Back
Fore
SplineSet
112.940429688 13.634765625 m 0
 106.041015625 21.7373046875 102.671875 31.8232421875 102.671875 41.8798828125 c 0
 102.671875 54.3408203125 107.844726562 66.759765625 117.884765625 75.3095703125 c 2
 302.76953125 232.75 l 1
 117.884765625 390.190429688 l 2
 107.844726562 398.740234375 102.670898438 411.159179688 102.670898438 423.62109375 c 0
 102.670898438 433.677734375 106.040039062 443.762695312 112.940429688 451.865234375 c 0
 121.490234375 461.905273438 133.909179688 467.078125 146.370117188 467.078125 c 0
 156.426757812 467.078125 166.512695312 463.708984375 174.615234375 456.809570312 c 2
 398.615234375 266.059570312 l 2
 412.09375 254.581054688 416.709960938 243.362304688 416.709960938 233.409179688 c 0
 416.709960938 217.447265625 404.837890625 204.740234375 398.615234375 199.440429688 c 2
 174.615234375 8.6904296875 l 2
 166.512695312 1.7900390625 156.427734375 -1.5791015625 146.37109375 -1.5791015625 c 0
 133.909179688 -1.5791015625 121.490234375 3.5947265625 112.940429688 13.634765625 c 0
EndSplineSet
Validated: 1
EndChar

StartChar: bracketleft
Encoding: 91 91 59
Width: 356
VWidth: 43
Flags: W
HStem: 0 87.5<190.055 246.589> 700 87.5<190.82 247.464>
VStem: 102.5 150.5<6.41116 81.0888 705.869 780.233>
LayerCount: 2
Back
Fore
SplineSet
253 43.75 m 0
 253 19.919921875 233.080078125 0 209.25 0 c 2
 146.25 0 l 2
 122.442382812 0 102.469726562 19.8740234375 102.5 43.8046875 c 2
 103.375 743.8046875 l 2
 103.40625 768.677734375 125.307617188 787.5 147.125 787.5 c 2
 210.125 787.5 l 2
 233.955078125 787.5 253.875 767.580078125 253.875 743.75 c 0
 253.875 719.919921875 233.955078125 700 210.125 700 c 2
 190.8203125 700 l 1
 190.0546875 87.5 l 1
 209.25 87.5 l 2
 233.080078125 87.5 253 67.580078125 253 43.75 c 0
EndSplineSet
Validated: 33
EndChar

StartChar: backslash
Encoding: 92 92 60
Width: 516
VWidth: 43
Flags: W
HStem: 0.0537109 21G<361.31 372.742> 0.0537109 21G<361.31 372.742> 767.446 20G<143.757 155.189> 767.446 20G<143.757 155.189>
VStem: 102.554 311.393
LayerCount: 2
Back
Fore
SplineSet
132.916015625 785.418945312 m 0xa8
 137.212890625 786.793945312 141.592773438 787.446289062 145.920898438 787.446289062 c 0
 164.45703125 787.446289062 182.030273438 775.483398438 187.918945312 757.083984375 c 2
 411.918945312 57.083984375 l 2
 413.293945312 52.787109375 413.946289062 48.4072265625 413.946289062 44.0791015625 c 0
 413.946289062 25.54296875 401.983398438 7.9697265625 383.583984375 2.0810546875 c 0
 379.287109375 0.7060546875 374.90625 0.0537109375 370.578125 0.0537109375 c 0
 352.041992188 0.0537109375 334.46875 12.0166015625 328.581054688 30.416015625 c 2
 104.581054688 730.416015625 l 2
 103.206054688 734.712890625 102.553710938 739.09375 102.553710938 743.421875 c 0
 102.553710938 761.958007812 114.516601562 779.53125 132.916015625 785.418945312 c 0xa8
EndSplineSet
Validated: 1
EndChar

StartChar: bracketright
Encoding: 93 93 61
Width: 356
VWidth: 43
Flags: W
HStem: 0 87.5<109.786 166.32> 700 87.5<108.911 165.555>
VStem: 103.375 150.5<6.41116 81.0888 705.869 780.233>
LayerCount: 2
Back
Fore
SplineSet
103.375 43.75 m 0
 103.375 67.580078125 123.294921875 87.5 147.125 87.5 c 2
 166.3203125 87.5 l 1
 165.5546875 700 l 1
 146.25 700 l 2
 122.419921875 700 102.5 719.919921875 102.5 743.75 c 0
 102.5 767.580078125 122.419921875 787.5 146.25 787.5 c 2
 209.25 787.5 l 2
 231.067382812 787.5 252.96875 768.677734375 253 743.8046875 c 2
 253.875 43.8046875 l 2
 253.905273438 19.8740234375 233.932617188 0 210.125 0 c 2
 147.125 0 l 2
 123.294921875 0 103.375 19.919921875 103.375 43.75 c 0
EndSplineSet
Validated: 33
EndChar

StartChar: asciicircum
Encoding: 94 94 62
Width: 560
VWidth: 43
Flags: W
HStem: 756.154 180.968
LayerCount: 2
Back
Fore
SplineSet
110.408203125 774.661132812 m 0
 105.165039062 782.15234375 102.654296875 790.853515625 102.654296875 799.505859375 c 0
 102.654296875 813.401367188 109.129882812 827.169921875 121.161132812 835.591796875 c 2
 255.036132812 929.303710938 l 2
 262.486328125 934.518554688 271.305664062 937.122070312 280.123046875 937.122070312 c 0
 288.94921875 937.122070312 297.772460938 934.512695312 305.213867188 929.303710938 c 2
 439.088867188 835.591796875 l 2
 451.120117188 827.169921875 457.595703125 813.401367188 457.595703125 799.505859375 c 0
 457.595703125 790.853515625 455.084960938 782.15234375 449.841796875 774.661132812 c 0
 441.419921875 762.629882812 427.651367188 756.154296875 413.755859375 756.154296875 c 0
 405.103515625 756.154296875 396.40234375 758.665039062 388.911132812 763.908203125 c 2
 280.125 840.05859375 l 1
 171.338867188 763.908203125 l 2
 163.84765625 758.665039062 155.146484375 756.154296875 146.494140625 756.154296875 c 0
 132.598632812 756.154296875 118.830078125 762.629882812 110.408203125 774.661132812 c 0
EndSplineSet
Validated: 1
EndChar

StartChar: a
Encoding: 97 97 63
Width: 639
VWidth: 43
Flags: W
HStem: 0.0625 21G<73.5703 84.9805 554.908 566.317> 0.0625 21G<73.5703 84.9805 554.908 566.317> 238 87.5<220.475 418.851> 767.5 20G<319.579 321.004> 767.5 20G<319.579 321.004>
VStem: 522.323 84.9883<6.14374 83.6985>
LayerCount: 2
Back
Fore
SplineSet
220.474609375 325.5 m 1x24
 418.850585938 325.5 l 1
 381.522460938 432.384765625 345.735351562 534.930664062 319.474609375 610.392578125 c 1
 220.474609375 325.5 l 1x24
360.810546875 758.405273438 m 0
 366.033203125 743.180664062 511.40234375 325.884765625 604.926757812 58.1796875 c 0
 606.544921875 53.546875 607.311523438 48.7919921875 607.311523438 44.0927734375 c 0
 607.311523438 25.974609375 595.91796875 8.689453125 578.0546875 2.4482421875 c 0
 573.421875 0.830078125 568.666015625 0.0634765625 563.967773438 0.0634765625 c 0
 545.848632812 0.0634765625 528.564453125 11.4560546875 522.323242188 29.3203125 c 0
 499.953125 93.3515625 474.827148438 165.256835938 449.415039062 238 c 1
 190.068359375 238 l 1
 117.576171875 29.3896484375 l 2
 111.356445312 11.4921875 94.052734375 0.0625 75.908203125 0.0625 c 0
 71.232421875 0.0625 66.501953125 0.8212890625 61.8896484375 2.423828125 c 0
 43.9912109375 8.6435546875 32.5625 25.9482421875 32.5625 44.091796875 c 0
 32.5625 48.767578125 33.3212890625 53.4990234375 34.923828125 58.1103515625 c 2
 278.173828125 758.110351562 l 2
 284.352539062 775.892578125 301.47265625 787.288085938 319.487304688 787.435546875 c 0
 319.536132812 787.478515625 319.5703125 787.5 319.587890625 787.5 c 0xb4
 322.420898438 787.5 325.21875 787.213867188 327.947265625 786.665039062 c 0
 329.930664062 786.282226562 331.90625 785.754882812 333.860351562 785.076171875 c 0
 338.872070312 783.334960938 343.375976562 780.723632812 347.264648438 777.46875 c 0
 353.310546875 772.518554688 358.083984375 765.978515625 360.810546875 758.405273438 c 0
EndSplineSet
Validated: 1
EndChar

StartChar: b
Encoding: 98 98 64
Width: 660
VWidth: 43
Flags: W
HStem: 0.875 87.3184<189.994 437.508> 420 87.5<189.994 347.328> 700 87.5<189.994 345.834>
VStem: 102.494 87.5<88.1934 420 507.5 700> 382.503 87.5<542.457 663.419> 522.5 87.501<173.075 335.224>
LayerCount: 2
Back
Fore
SplineSet
189.994140625 507.5 m 1
 299.381835938 507.5 l 2
 312.137695312 509.231445312 324.026367188 513.44921875 334.668945312 519.693359375 c 0
 363.198242188 536.43359375 382.502929688 567.379882812 382.502929688 603.610351562 c 0
 382.502929688 656.263671875 339.959960938 699.099609375 286.879882812 700 c 2
 189.994140625 700 l 1
 189.994140625 507.5 l 1
304.333984375 420 m 2
 298.3984375 419.430664062 292.283203125 419.125 286.331054688 419.125 c 0
 283.583007812 419.125 280.483398438 419.451171875 277.609375 420 c 2
 189.994140625 420 l 1
 189.994140625 88.193359375 l 1
 356.334960938 87.5 l 2
 447.990234375 87.5 522.5 161.272460938 522.5 253.639648438 c 0
 522.5 345.390625 449.291992188 419.311523438 357.829101562 420 c 2
 304.333984375 420 l 2
434.973632812 495.16015625 m 1
 536.930664062 461.9375 610.000976562 366.237304688 610.000976562 253.641601562 c 0
 610.000976562 112.734375 496.189453125 0 356.153320312 0 c 2
 146.061523438 0.875 l 2
 121.141601562 0.9794921875 102.494140625 23.0419921875 102.494140625 44.625 c 2
 102.494140625 743.75 l 2
 102.494140625 770.232421875 127.466796875 787.5 146.244140625 787.5 c 2
 287.3671875 787.5 l 2
 387.94921875 786.356445312 470.002929688 705.052734375 470.002929688 603.642578125 c 0
 470.002929688 562.754882812 456.975585938 525.59375 434.973632812 495.16015625 c 1
EndSplineSet
Validated: 1
EndChar

StartChar: c
Encoding: 99 99 65
Width: 718
VWidth: 43
Flags: W
HStem: 0 87.5<312.66 506.445> 700 87.5<312.66 506.456>
VStem: 85 87.5<227.333 560.167>
LayerCount: 2
Back
Fore
SplineSet
638.310546875 156.935546875 m 0
 646.736328125 148.510742188 650.94921875 137.254882812 650.94921875 126 c 0
 650.94921875 114.745117188 646.736328125 103.489257812 638.310546875 95.064453125 c 0
 579.912109375 36.6650390625 499.557617188 0 409.625 0 c 0
 230.75 0 85 144.561523438 85 323.75 c 2
 85 463.75 l 2
 85 642.938476562 230.75 787.5 409.625 787.5 c 0
 499.561523438 787.5 579.903320312 750.830078125 638.372070312 692.462890625 c 0
 646.814453125 684.03515625 651.036132812 672.767578125 651.036132812 661.499023438 c 0
 651.036132812 650.256835938 646.833984375 639.013671875 638.424804688 630.590820312 c 0
 629.997070312 622.1484375 618.729492188 617.926757812 607.4609375 617.926757812 c 0
 596.21875 617.926757812 584.9765625 622.12890625 576.553710938 630.537109375 c 0
 533.346679688 673.669921875 475.438476562 700 409.625 700 c 0
 278.75 700 172.5 594.311523438 172.5 463.75 c 2
 172.5 323.75 l 2
 172.5 193.188476562 278.75 87.5 409.625 87.5 c 0
 475.442382812 87.5 533.337890625 113.834960938 576.439453125 156.935546875 c 0
 584.864257812 165.361328125 596.120117188 169.57421875 607.375 169.57421875 c 0
 618.629882812 169.57421875 629.885742188 165.361328125 638.310546875 156.935546875 c 0
EndSplineSet
Validated: 1
EndChar

StartChar: d
Encoding: 100 100 66
Width: 781
VWidth: 43
Flags: W
HStem: 0 87.5<190 431.873> 700 87.5<190 432.581>
VStem: 102.5 87.5<87.5 700> 626.611 87.5273<281.676 505.824>
LayerCount: 2
Back
Fore
SplineSet
190 87.5 m 1
 320.375 87.5 l 2
 397.657226562 87.5 477.473632812 117.469726562 537.064453125 177.060546875 c 0
 596.76171875 236.758789062 626.611328125 315.25390625 626.611328125 393.75 c 0
 626.611328125 472.24609375 596.76171875 550.741210938 537.064453125 610.439453125 c 0
 477.259765625 670.244140625 399.379882812 700 321.25 700 c 2
 190 700 l 1
 190 87.5 l 1
102.5 43.75 m 2
 102.5 743.75 l 2
 102.5 770.232421875 127.47265625 787.5 146.25 787.5 c 2
 321.25 787.5 l 2
 421.620117188 787.5 522.240234375 749.005859375 598.935546875 672.310546875 c 0
 675.73828125 595.508789062 714.138671875 494.62890625 714.138671875 393.75 c 0
 714.138671875 292.87109375 675.73828125 191.991210938 598.935546875 115.189453125 c 0
 522.026367188 38.2802734375 419.842773438 0 320.375 0 c 2
 146.25 0 l 2
 119.767578125 0 102.5 24.97265625 102.5 43.75 c 2
EndSplineSet
Validated: 1
EndChar

StartChar: e
Encoding: 101 101 67
Width: 633
VWidth: 43
Flags: W
HStem: 0 87.5<190 568.589> 350 87.5<190 498.589> 700 87.5<190 568.589>
VStem: 102.5 87.5<87.5 350 437.5 700>
CounterMasks: 1 e0
LayerCount: 2
Back
Fore
SplineSet
575 743.75 m 0
 575 719.919921875 555.080078125 700 531.25 700 c 2
 190 700 l 1
 190 437.5 l 1
 461.25 437.5 l 2
 485.080078125 437.5 505 417.580078125 505 393.75 c 0
 505 369.919921875 485.080078125 350 461.25 350 c 2
 190 350 l 1
 190 87.5 l 1
 531.25 87.5 l 2
 555.080078125 87.5 575 67.580078125 575 43.75 c 0
 575 19.919921875 555.080078125 0 531.25 0 c 2
 146.25 0 l 2
 127.47265625 0 102.5 17.267578125 102.5 43.75 c 2
 102.5 393.75 l 1
 102.5 743.75 l 2
 102.5 762.52734375 119.767578125 787.5 146.25 787.5 c 2
 531.25 787.5 l 2
 555.080078125 787.5 575 767.580078125 575 743.75 c 0
EndSplineSet
Validated: 1
EndChar

StartChar: f
Encoding: 102 102 68
Width: 590
VWidth: 43
Flags: W
HStem: 0 21G<134.335 158.165> 0 21G<134.335 158.165> 350 87.5<190 498.589> 700 87.5<190 568.589>
VStem: 102.5 87.5<6.41116 350 437.5 700>
LayerCount: 2
Back
Fore
SplineSet
575 743.75 m 0xb8
 575 719.919921875 555.080078125 700 531.25 700 c 2
 190 700 l 1
 190 437.5 l 1
 461.25 437.5 l 2
 485.080078125 437.5 505 417.580078125 505 393.75 c 0
 505 369.919921875 485.080078125 350 461.25 350 c 2
 190 350 l 1
 190 43.75 l 2
 190 19.919921875 170.080078125 0 146.25 0 c 0
 122.419921875 0 102.5 19.919921875 102.5 43.75 c 2
 102.5 393.75 l 1
 102.5 743.75 l 2
 102.5 762.52734375 119.767578125 787.5 146.25 787.5 c 2
 531.25 787.5 l 2
 555.080078125 787.5 575 767.580078125 575 743.75 c 0xb8
EndSplineSet
Validated: 1
EndChar

StartChar: g
Encoding: 103 103 69
Width: 837
VWidth: 43
Flags: W
HStem: 0 87.5<349.36 574.179> 328.125 87.5<478.161 665.125> 700 87.5<348.836 572.274>
VStem: 67.5 87.5<281.86 505.64> 665.125 87.5<148.918 328.125>
LayerCount: 2
Back
Fore
SplineSet
471.75 371.875 m 0
 471.75 395.705078125 491.669921875 415.625 515.5 415.625 c 2
 708.875 415.625 l 2
 735.357421875 415.625 752.625 390.65234375 752.625 371.875 c 2
 752.625 146.125 l 2
 752.625 134.303710938 746.625 122.002929688 739.810546875 115.189453125 c 0
 663 38.3779296875 561.5625 0 461.25 0 c 0
 360.9375 0 259.500976562 38.3779296875 182.689453125 115.189453125 c 0
 105.877929688 192 67.5 293.4375 67.5 393.75 c 0
 67.5 494.0625 105.877929688 595.499023438 182.689453125 672.310546875 c 0
 259.384765625 749.005859375 360.004882812 787.5 460.375 787.5 c 0
 560.384765625 787.5 661.944335938 750.166015625 739.00390625 673.206054688 c 0
 747.44140625 664.779296875 751.661132812 653.514648438 751.661132812 642.249023438 c 0
 751.661132812 631.00390625 747.456054688 619.7578125 739.04296875 611.333984375 c 0
 730.616210938 602.896484375 719.3515625 598.676757812 708.0859375 598.676757812 c 0
 696.840820312 598.676757812 685.594726562 602.881835938 677.171875 611.293945312 c 0
 617.555664062 670.833984375 538.865234375 700 460.375 700 c 0
 382.245117188 700 304.365234375 670.244140625 244.560546875 610.439453125 c 0
 184.872070312 550.750976562 155 471.9375 155 393.75 c 0
 155 315.5625 184.872070312 236.75 244.560546875 177.060546875 c 0
 304.249023438 117.372070312 383.0625 87.5 461.25 87.5 c 0
 533.958984375 87.5 607.0390625 113.225585938 665.125 164.959960938 c 1
 665.125 328.125 l 1
 515.5 328.125 l 2
 491.669921875 328.125 471.75 348.044921875 471.75 371.875 c 0
EndSplineSet
Validated: 1
EndChar

StartChar: h
Encoding: 104 104 70
Width: 712
VWidth: 43
Flags: W
HStem: 0 21G<134.335 158.165 554.335 578.165> 0 21G<134.335 158.165 554.335 578.165> 350 87.5<190 522.5> 767.5 20G<134.335 158.165 554.335 578.165> 767.5 20G<134.335 158.165 554.335 578.165>
VStem: 102.5 87.5<6.41116 350 437.5 781.089> 522.5 87.5<6.41116 350 437.5 781.089>
LayerCount: 2
Back
Fore
SplineSet
146.25 0 m 0xb6
 122.419921875 0 102.5 19.919921875 102.5 43.75 c 2
 102.5 393.75 l 1
 102.5 743.75 l 2
 102.5 767.580078125 122.419921875 787.5 146.25 787.5 c 0
 170.080078125 787.5 190 767.580078125 190 743.75 c 2
 190 437.5 l 1
 522.5 437.5 l 1
 522.5 743.75 l 2
 522.5 767.580078125 542.419921875 787.5 566.25 787.5 c 0
 590.080078125 787.5 610 767.580078125 610 743.75 c 2
 610 43.75 l 2
 610 19.919921875 590.080078125 0 566.25 0 c 0
 542.419921875 0 522.5 19.919921875 522.5 43.75 c 2
 522.5 350 l 1
 190 350 l 1
 190 43.75 l 2
 190 19.919921875 170.080078125 0 146.25 0 c 0xb6
EndSplineSet
Validated: 1
EndChar

StartChar: i
Encoding: 105 105 71
Width: 313
VWidth: 43
Flags: W
HStem: 0 21G<144.835 168.665> 0 21G<144.835 168.665> 767.5 20G<144.835 168.665> 767.5 20G<144.835 168.665>
VStem: 113 87.5<6.41116 781.089>
LayerCount: 2
Back
Fore
SplineSet
156.75 787.5 m 0xa8
 180.580078125 787.5 200.5 767.580078125 200.5 743.75 c 2
 200.5 43.75 l 2
 200.5 19.919921875 180.580078125 0 156.75 0 c 0
 132.919921875 0 113 19.919921875 113 43.75 c 2
 113 743.75 l 2
 113 767.580078125 132.919921875 787.5 156.75 787.5 c 0xa8
EndSplineSet
Validated: 1
EndChar

StartChar: j
Encoding: 106 106 72
Width: 477
VWidth: 43
Flags: W
HStem: 0 87.5<145.635 266.814> 767.5 20G<336.46 360.29> 767.5 20G<336.46 360.29>
VStem: 304.625 87.5<125.867 781.089>
LayerCount: 2
Back
Fore
SplineSet
59.2724609375 168.946289062 m 0xd0
 64.666015625 171.217773438 70.30859375 172.290039062 75.8896484375 172.290039062 c 0
 93.033203125 172.290039062 109.595703125 162.171875 116.571289062 145.602539062 c 0
 121.260742188 134.466796875 127.369140625 125.592773438 137.27734375 116.34375 c 0
 155.62890625 97.9931640625 179.864257812 87.5 206.625 87.5 c 0
 261.3203125 87.5 304.625 130.8046875 304.625 185.5 c 2
 304.625 743.75 l 2
 304.625 767.580078125 324.544921875 787.5 348.375 787.5 c 0
 372.205078125 787.5 392.125 767.580078125 392.125 743.75 c 2
 392.125 185.5 l 2
 392.125 82.6953125 309.4296875 0 206.625 0 c 0
 156.45703125 0 110.34375 19.9443359375 76.4765625 53.4033203125 c 0
 60.1875 68.810546875 45.2734375 89.4521484375 35.9287109375 111.647460938 c 0
 33.6572265625 117.041015625 32.5849609375 122.68359375 32.5849609375 128.264648438 c 0
 32.5849609375 145.408203125 42.7041015625 161.969726562 59.2724609375 168.946289062 c 0xd0
EndSplineSet
Validated: 1
EndChar

StartChar: k
Encoding: 107 107 73
Width: 642
VWidth: 43
Flags: W
HStem: 0 21.1768G<134.335 158.165 543.152 554.407> 0 21.1768G<134.335 158.165 543.152 554.407> 767.5 20G<134.335 158.165 543.152 554.407> 767.5 20G<134.335 158.165 543.152 554.407>
VStem: 102.5 87.5<6.41116 337.382 450.118 781.089>
LayerCount: 2
Back
Fore
SplineSet
579.83984375 774.53125 m 0xa8
 588.166992188 766.12109375 592.323242188 754.938476562 592.323242188 743.7578125 c 0
 592.323242188 732.427734375 588.0546875 721.099609375 579.53125 712.66015625 c 2
 257.431640625 393.75 l 1
 579.53125 74.83984375 l 2
 588.0546875 66.400390625 592.32421875 55.072265625 592.32421875 43.7421875 c 0
 592.32421875 32.5615234375 588.166992188 21.37890625 579.83984375 12.96875 c 0
 571.400390625 4.4453125 560.072265625 0.1767578125 548.7421875 0.1767578125 c 0
 537.561523438 0.1767578125 526.37890625 4.3330078125 517.96875 12.66015625 c 2
 190 337.381835938 l 1
 190 43.75 l 2
 190 19.919921875 170.080078125 0 146.25 0 c 0
 122.419921875 0 102.5 19.919921875 102.5 43.75 c 2
 102.5 743.75 l 2
 102.5 767.580078125 122.419921875 787.5 146.25 787.5 c 0
 170.080078125 787.5 190 767.580078125 190 743.75 c 2
 190 450.118164062 l 1
 517.96875 774.83984375 l 2
 526.37890625 783.166992188 537.561523438 787.32421875 548.7421875 787.32421875 c 0
 560.072265625 787.32421875 571.400390625 783.0546875 579.83984375 774.53125 c 0xa8
EndSplineSet
Validated: 1
EndChar

StartChar: l
Encoding: 108 108 74
Width: 642
VWidth: 43
Flags: W
HStem: 0 87.5<190 603.589> 767.5 20G<134.335 158.165> 767.5 20G<134.335 158.165>
VStem: 102.5 87.5<87.5 781.089>
LayerCount: 2
Back
Fore
SplineSet
146.25 787.5 m 0xd0
 170.080078125 787.5 190 767.580078125 190 743.75 c 2
 190 87.5 l 1
 566.25 87.5 l 2
 590.080078125 87.5 610 67.580078125 610 43.75 c 0
 610 19.919921875 590.080078125 0 566.25 0 c 2
 146.25 0 l 2
 127.47265625 0 102.5 17.267578125 102.5 43.75 c 2
 102.5 743.75 l 2
 102.5 767.580078125 122.419921875 787.5 146.25 787.5 c 0xd0
EndSplineSet
Validated: 1
EndChar

StartChar: m
Encoding: 109 109 75
Width: 994
VWidth: 43
Flags: W
HStem: 0 21G<134.335 158.165 836.085 859.915> 0 21G<134.335 158.165 836.085 859.915> 767.5 20G<134.175 154.924 843.82 849.727> 767.5 20G<134.175 154.924 843.82 849.727>
VStem: 102.5 87.5<6.41116 559.247 762.735 781.407> 804.25 87.5<6.41116 558.423>
LayerCount: 2
Back
Fore
SplineSet
102.5 743.75 m 2xac
 102.5 767.900390625 122.099609375 787.5 146.25 787.5 c 0
 163.598632812 787.5 178.599609375 777.385742188 185.671875 762.735351562 c 2
 497.90234375 141.381835938 l 1
 808.869140625 763.315429688 l 2
 812.600585938 770.779296875 818.302734375 776.721679688 825.052734375 780.834960938 c 0
 831.759765625 785.047851562 839.639648438 787.5 848 787.5 c 0
 851.453125 787.5 854.823242188 787.08203125 858.063476562 786.293945312 c 0
 861.30078125 785.549804688 864.489257812 784.418945312 867.565429688 782.880859375 c 0
 875.037109375 779.145507812 880.984375 773.434570312 885.098632812 766.67578125 c 0
 889.302734375 759.973632812 891.75 752.1015625 891.75 743.75 c 2
 891.75 43.75 l 2
 891.75 19.919921875 871.830078125 0 848 0 c 0
 824.169921875 0 804.25 19.919921875 804.25 43.75 c 2
 804.25 558.422851562 l 1
 537.130859375 24.1845703125 l 2
 534.98828125 19.900390625 532.197265625 16.1171875 528.930664062 12.892578125 c 0
 525.7109375 9.615234375 521.9296875 6.8115234375 517.643554688 4.658203125 c 0
 511.393554688 1.517578125 504.673828125 0.0615234375 498.028320312 0.1103515625 c 0
 491.392578125 0.052734375 484.681640625 1.49609375 478.434570312 4.619140625 c 0
 474.15234375 6.759765625 470.372070312 9.5498046875 467.149414062 12.8134765625 c 0
 463.868164062 16.0341796875 461.063476562 19.818359375 458.908203125 24.1064453125 c 2
 190 559.247070312 l 1
 190 43.75 l 2
 190 19.919921875 170.080078125 0 146.25 0 c 0
 122.419921875 0 102.5 19.919921875 102.5 43.75 c 2
 102.5 743.75 l 2xac
EndSplineSet
Validated: 1
EndChar

StartChar: n
Encoding: 110 110 76
Width: 782
VWidth: 43
Flags: W
HStem: 0 21G<134.335 158.165 632.638 638.529> 0 21G<134.335 158.165 632.638 638.529> 767.5 20G<143.971 149.862 624.335 648.165> 767.5 20G<143.971 149.862 624.335 648.165>
VStem: 102.5 87.5<6.41116 604.959> 592.5 87.5<182.541 781.089>
LayerCount: 2
Back
Fore
SplineSet
636.25 787.5 m 0xac
 660.080078125 787.5 680 767.580078125 680 743.75 c 2
 680 43.75 l 2
 680 36.525390625 678.168945312 29.66015625 674.953125 23.6005859375 c 0
 671.833007812 17.490234375 667.258789062 12.0517578125 661.338867188 7.908203125 c 0
 657.602539062 5.29296875 653.564453125 3.357421875 649.381835938 2.07421875 c 0
 645.221679688 0.728515625 640.807617188 0 636.25 0 c 0
 629.025390625 0 622.16015625 1.8310546875 616.100585938 5.046875 c 0
 609.990234375 8.1669921875 604.551757812 12.7412109375 600.408203125 18.6611328125 c 2
 190 604.958984375 l 1
 190 43.75 l 2
 190 19.919921875 170.080078125 0 146.25 0 c 0
 122.419921875 0 102.5 19.919921875 102.5 43.75 c 2
 102.5 743.75 l 2
 102.5 750.974609375 104.331054688 757.83984375 107.546875 763.899414062 c 0
 110.666992188 770.009765625 115.241210938 775.448242188 121.161132812 779.591796875 c 0
 124.897460938 782.20703125 128.935546875 784.142578125 133.118164062 785.42578125 c 0
 137.278320312 786.771484375 141.692382812 787.5 146.25 787.5 c 0
 153.474609375 787.5 160.33984375 785.668945312 166.399414062 782.453125 c 0
 172.509765625 779.333007812 177.948242188 774.758789062 182.091796875 768.838867188 c 2
 592.5 182.541015625 l 1
 592.5 743.75 l 2
 592.5 767.580078125 612.419921875 787.5 636.25 787.5 c 0xac
EndSplineSet
Validated: 1
EndChar

StartChar: o
Encoding: 111 111 77
Width: 922
VWidth: 43
Flags: W
HStem: 0 87.5<351.177 571.323> 700 87.5<351.177 571.323>
VStem: 67.5 87.5<283.677 503.823> 767.5 87.5<283.677 503.823>
LayerCount: 2
Back
Fore
SplineSet
461.25 87.5 m 0
 630.475585938 87.5 767.5 224.524414062 767.5 393.75 c 0
 767.5 562.975585938 630.475585938 700 461.25 700 c 0
 292.024414062 700 155 562.975585938 155 393.75 c 0
 155 224.524414062 292.024414062 87.5 461.25 87.5 c 0
461.25 0 m 0
 243.725585938 0 67.5 176.225585938 67.5 393.75 c 0
 67.5 611.274414062 243.725585938 787.5 461.25 787.5 c 0
 678.774414062 787.5 855 611.274414062 855 393.75 c 0
 855 176.225585938 678.774414062 0 461.25 0 c 0
EndSplineSet
Validated: 1
EndChar

StartChar: p
Encoding: 112 112 78
Width: 658
VWidth: 43
Flags: W
HStem: 0 21G<134.335 158.165> 0 21G<134.335 158.165> 280 87.5<190 435.782> 700 87.5<190 434.808>
VStem: 102.5 87.5<6.41116 280 367.5 700> 520.756 87.501<453.071 615.457>
LayerCount: 2
Back
Fore
SplineSet
190 280 m 1xbc
 190 43.75 l 2
 190 19.919921875 170.080078125 0 146.25 0 c 0
 122.419921875 0 102.5 19.919921875 102.5 43.75 c 2
 102.5 743.75 l 2
 102.5 762.52734375 119.767578125 787.5 146.25 787.5 c 2
 356.4140625 787.5 l 2
 496.609375 786.446289062 608.256835938 673.12890625 608.256835938 533.638671875 c 0
 608.256835938 392.731445312 494.373046875 280 354.5 280 c 2
 190 280 l 1xbc
190 367.5 m 1
 354.5 367.5 l 2
 446.319335938 367.5 520.755859375 441.270507812 520.755859375 533.626953125 c 0
 520.755859375 625.38671875 447.551757812 699.311523438 356.0859375 700 c 2
 190 700 l 1
 190 367.5 l 1
EndSplineSet
Validated: 1
EndChar

StartChar: q
Encoding: 113 113 79
Width: 926
VWidth: 43
Flags: W
HStem: 0 87.5<352.73 575.738> 0.175781 21G<807.373 818.627> 700 87.5<352.73 573.27>
VStem: 67.5 87.5<283.685 503.815> 771 87.5<280.607 503.815>
LayerCount: 2
Back
Fore
SplineSet
463 0 m 0xb8
 245.68359375 0 67.5 175.932617188 67.5 393.75 c 0
 67.5 611.567382812 245.68359375 787.5 463 787.5 c 0
 680.31640625 787.5 858.5 611.567382812 858.5 393.75 c 0
 858.5 300.407226562 825.77734375 214.755859375 771.275390625 147.345703125 c 1
 843.935546875 74.685546875 l 2
 852.361328125 66.2607421875 856.57421875 55.0048828125 856.57421875 43.75 c 0
 856.57421875 32.4951171875 852.361328125 21.2392578125 843.935546875 12.814453125 c 0
 835.510742188 4.388671875 824.254882812 0.17578125 813 0.17578125 c 0x78
 801.745117188 0.17578125 790.489257812 4.388671875 782.064453125 12.814453125 c 2
 709.11328125 85.765625 l 1
 641.420898438 32.0654296875 555.776367188 0 463 0 c 0xb8
577.314453125 279.435546875 m 0
 585.739257812 287.861328125 596.995117188 292.07421875 608.25 292.07421875 c 0
 619.504882812 292.07421875 630.760742188 287.861328125 639.185546875 279.435546875 c 2
 708.926757812 209.694335938 l 1
 747.858398438 260.95703125 771 324.713867188 771 393.75 c 0
 771 562.682617188 632.43359375 700 463 700 c 0
 293.56640625 700 155 562.682617188 155 393.75 c 0
 155 224.817382812 293.56640625 87.5 463 87.5 c 0xb8
 531.700195312 87.5 595.326171875 110.076171875 646.697265625 148.181640625 c 1
 577.314453125 217.564453125 l 2
 568.888671875 225.989257812 564.67578125 237.245117188 564.67578125 248.5 c 0
 564.67578125 259.754882812 568.888671875 271.010742188 577.314453125 279.435546875 c 0
EndSplineSet
Validated: 1
EndChar

StartChar: r
Encoding: 114 114 80
Width: 607
VWidth: 43
Flags: W
HStem: 0 21G<134.327 158.157 471.041 482.365> 0 21G<134.327 158.157 471.041 482.365> 350 87.5<189.992 275.889> 700 87.5<189.992 392.964>
VStem: 102.492 87.5<6.41116 350 437.5 700> 452.5 87.5<498.215 639.026>
LayerCount: 2
Back
Fore
SplineSet
189.9921875 350 m 1xbc
 189.9921875 43.75 l 2
 189.9921875 19.919921875 170.072265625 0 146.2421875 0 c 0
 122.412109375 0 102.4921875 19.919921875 102.4921875 43.75 c 2
 102.4921875 743.75 l 2
 102.4921875 770.232421875 127.46484375 787.5 146.2421875 787.5 c 2
 322.9921875 787.5 l 2
 444.233398438 787.5 540 688.56640625 540 568.65234375 c 0
 540 464.108398438 467.629882812 378.018554688 370.974609375 355.650390625 c 1
 517.833984375 63.3935546875 l 2
 520.923828125 57.2451171875 522.3828125 50.6416015625 522.3828125 44.1025390625 c 0
 522.3828125 27.994140625 513.530273438 12.267578125 498.385742188 4.658203125 c 0
 492.237304688 1.568359375 485.634765625 0.109375 479.094726562 0.109375 c 0
 462.986328125 0.109375 447.260742188 8.9619140625 439.650390625 24.1064453125 c 2
 275.888671875 350 l 1
 189.9921875 350 l 1xbc
189.9921875 437.5 m 1
 321.2421875 437.5 l 2
 393.859375 437.5 452.5 495.53515625 452.5 568.654296875 c 0
 452.5 641.487304688 394.897460938 700 322.9921875 700 c 2
 189.9921875 700 l 1
 189.9921875 437.5 l 1
EndSplineSet
Validated: 1
EndChar

StartChar: s
Encoding: 115 115 81
Width: 555
VWidth: 43
Flags: W
HStem: 0 87.5<199.246 340.763> 700 87.5<208.565 329.984>
VStem: 67.584 84.0508<131.624 187.361> 83.25 87.5<546.179 661.836> 400 87.5<146.119 288.514>
LayerCount: 2
Back
Fore
SplineSet
94.4228515625 190.009765625 m 0xe8
 99.7724609375 192.23828125 105.362304688 193.291015625 110.889648438 193.291015625 c 0
 128.091796875 193.291015625 144.698242188 183.099609375 151.634765625 166.452148438 c 0xe8
 158.284179688 150.493164062 167.224609375 137.146484375 178.935546875 125.435546875 c 0
 202.431640625 101.940429688 235.040039062 87.5 271.375 87.5 c 0
 342.328125 87.5 400 145.540039062 400 217 c 0
 400 253.852539062 386.62109375 288.756835938 355.8828125 311.125 c 2
 159.859375 453.766601562 l 2
 115.024414062 486.484375 83.25 545.926757812 83.25 602 c 0
 83.25 703.881835938 165.706054688 787.5 268.75 787.5 c 0
 319.1953125 787.5 366.231445312 766.37109375 398.8984375 734.096679688 c 0
 416.6875 717.26953125 430.018554688 698.173828125 439.458007812 676.032226562 c 0
 441.779296875 670.5859375 442.875976562 664.879882812 442.875976562 659.236328125 c 0
 442.875976562 642.161132812 432.844726562 625.653320312 416.370117188 618.629882812 c 0
 410.923828125 616.307617188 405.217773438 615.211914062 399.573242188 615.211914062 c 0
 382.498046875 615.211914062 365.990234375 625.243164062 358.966796875 641.717773438 c 0
 354.15234375 653.010742188 348.021484375 661.892578125 338.09765625 671.15625 c 0
 319.749023438 689.50390625 295.508789062 700 268.75 700 c 0
 214.293945312 700 170.75 655.868164062 170.75 602 c 0xd8
 170.75 579.31640625 191.453125 539.032226562 211.4140625 524.465820312 c 2
 407.3671875 381.875 l 2
 465.473632812 339.591796875 487.5 274.647460938 487.5 217 c 0
 487.5 97.7099609375 391.171875 0 271.375 0 c 0
 211.459960938 0 156.568359375 24.0595703125 117.064453125 63.564453125 c 0
 97.275390625 83.353515625 81.7158203125 106.756835938 70.865234375 132.797851562 c 0
 68.63671875 138.147460938 67.583984375 143.737304688 67.583984375 149.264648438 c 0
 67.583984375 166.466796875 77.7763671875 183.073242188 94.4228515625 190.009765625 c 0xe8
EndSplineSet
Validated: 1
EndChar

StartChar: t
Encoding: 116 116 82
Width: 642
VWidth: 43
Flags: W
HStem: 0 21G<309.335 333.165> 0 21G<309.335 333.165> 700 87.5<3.91116 277.5 365 638.589>
VStem: 277.5 87.5<6.41116 700>
LayerCount: 2
Back
Fore
SplineSet
-2.5 743.75 m 0xb0
 -2.5 767.580078125 17.419921875 787.5 41.25 787.5 c 2
 321.25 787.5 l 1
 601.25 787.5 l 2
 625.080078125 787.5 645 767.580078125 645 743.75 c 0
 645 719.919921875 625.080078125 700 601.25 700 c 2
 365 700 l 1
 365 43.75 l 2
 365 19.919921875 345.080078125 0 321.25 0 c 0
 297.419921875 0 277.5 19.919921875 277.5 43.75 c 2
 277.5 700 l 1
 41.25 700 l 2
 17.419921875 700 -2.5 719.919921875 -2.5 743.75 c 0xb0
EndSplineSet
Validated: 1
EndChar

StartChar: u
Encoding: 117 117 83
Width: 817
VWidth: 43
Flags: W
HStem: 0 87.5<311.906 505.595> 767.5 20G<116.835 140.665 676.835 700.665> 767.5 20G<116.835 140.665 676.835 700.665>
VStem: 85 87.5<227.435 781.089> 645 87.5<227.401 781.089>
LayerCount: 2
Back
Fore
SplineSet
688.75 787.5 m 0xd8
 712.580078125 787.5 732.5 767.580078125 732.5 743.75 c 2
 732.5 323.75 l 2
 732.5 144.745117188 587.754882812 0 408.75 0 c 0
 229.732421875 0 85 144.836914062 85 323.75 c 2
 85 743.75 l 2
 85 767.580078125 104.919921875 787.5 128.75 787.5 c 0
 152.580078125 787.5 172.5 767.580078125 172.5 743.75 c 2
 172.5 323.75 l 2
 172.5 193.092773438 278.017578125 87.5 408.75 87.5 c 0
 539.495117188 87.5 645 193.004882812 645 323.75 c 2
 645 743.75 l 2
 645 767.580078125 664.919921875 787.5 688.75 787.5 c 0xd8
EndSplineSet
Validated: 1
EndChar

StartChar: v
Encoding: 118 118 84
Width: 677
VWidth: 43
Flags: W
HStem: 767.43 20G<73.3892 84.7798 592.721 604.111> 767.43 20G<73.3892 84.7798 592.721 604.111>
LayerCount: 2
Back
Fore
SplineSet
60.888671875 784.71484375 m 0x80
 65.8037109375 786.557617188 70.8798828125 787.4296875 75.8984375 787.4296875 c 0
 93.6611328125 787.4296875 110.690429688 776.509765625 117.21484375 759.111328125 c 2
 338.75 168.349609375 l 1
 560.28515625 759.111328125 l 2
 566.809570312 776.508789062 583.838867188 787.4296875 601.602539062 787.4296875 c 0
 606.620117188 787.4296875 611.696289062 786.557617188 616.611328125 784.71484375 c 0
 634.009765625 778.190429688 644.9296875 761.161132812 644.9296875 743.3984375 c 0
 644.9296875 738.379882812 644.057617188 733.303710938 642.21484375 728.388671875 c 2
 379.71484375 28.388671875 l 2
 369.818359375 1.9990234375 357.416992188 -6.7978515625 345.279296875 -6.7978515625 c 0
 321.00390625 -6.7978515625 297.78515625 28.388671875 297.78515625 28.388671875 c 1
 35.28515625 728.388671875 l 2
 33.4423828125 733.303710938 32.5703125 738.379882812 32.5703125 743.397460938 c 0
 32.5703125 761.161132812 43.4912109375 778.190429688 60.888671875 784.71484375 c 0x80
EndSplineSet
Validated: 1
EndChar

StartChar: w
Encoding: 119 119 85
Width: 1004
VWidth: 43
Flags: W
HStem: 767.45 20G<73.8711 85.3169 919.443 930.888> 767.45 20G<73.8711 85.3169 919.443 930.888>
VStem: 32.5498 85.5615<733.421 781.331> 886.653 85.5469<733.563 781.342>
LayerCount: 2
Back
Fore
SplineSet
489.659179688 785.611328125 m 0xb0
 493.87890625 786.893554688 498.168945312 787.483398438 502.403320312 787.44921875 c 0
 506.634765625 787.477539062 510.921875 786.8828125 515.138671875 785.596679688 c 0
 522.193359375 783.4453125 528.333007812 779.577148438 533.2421875 774.586914062 c 0
 538.229492188 769.670898438 542.091796875 763.525390625 544.236328125 756.465820312 c 2
 715.0859375 193.998046875 l 1
 886.653320312 756.513671875 l 2
 892.348632812 775.1875 910.067382812 787.450195312 928.819335938 787.450195312 c 0
 932.956054688 787.450195312 937.143554688 786.853515625 941.263671875 785.596679688 c 0
 959.9375 779.901367188 972.200195312 762.18359375 972.200195312 743.430664062 c 0
 972.200195312 739.293945312 971.603515625 735.106445312 970.346679688 730.986328125 c 2
 756.846679688 30.986328125 l 2
 754.6953125 23.931640625 750.827148438 17.7919921875 745.836914062 12.8828125 c 0
 740.920898438 7.8955078125 734.775390625 4.033203125 727.715820312 1.888671875 c 0
 723.5 0.6083984375 719.213867188 0.017578125 714.983398438 0.05078125 c 0
 710.748046875 0.021484375 706.45703125 0.6162109375 702.236328125 1.9033203125 c 0
 695.181640625 4.0546875 689.041992188 7.9228515625 684.1328125 12.9140625 c 0
 679.145507812 17.8291015625 675.283203125 23.974609375 673.138671875 31.0341796875 c 2
 502.2890625 593.501953125 l 1
 330.721679688 30.986328125 l 2
 328.5703125 23.931640625 324.702148438 17.7919921875 319.711914062 12.8828125 c 0
 314.795898438 7.8955078125 308.650390625 4.033203125 301.590820312 1.888671875 c 0
 297.375 0.6083984375 293.088867188 0.017578125 288.858398438 0.05078125 c 0
 284.623046875 0.021484375 280.33203125 0.6162109375 276.111328125 1.9033203125 c 0
 269.056640625 4.0546875 262.916992188 7.9228515625 258.0078125 12.9140625 c 0
 253.020507812 17.8291015625 249.158203125 23.974609375 247.013671875 31.0341796875 c 2
 34.388671875 731.034179688 l 2
 33.1416015625 735.138671875 32.5498046875 739.309570312 32.5498046875 743.430664062 c 0
 32.5498046875 762.202148438 44.837890625 779.932617188 63.5341796875 785.611328125 c 0
 67.638671875 786.858398438 71.810546875 787.450195312 75.931640625 787.450195312 c 0
 94.7021484375 787.450195312 112.432617188 775.163085938 118.111328125 756.465820312 c 2
 288.9609375 193.998046875 l 1
 460.528320312 756.513671875 l 2
 462.6796875 763.568359375 466.547851562 769.708007812 471.5390625 774.6171875 c 0
 476.454101562 779.604492188 482.599609375 783.466796875 489.659179688 785.611328125 c 0xb0
EndSplineSet
Validated: 1
EndChar

StartChar: x
Encoding: 120 120 86
Width: 719
VWidth: 43
Flags: W
HStem: 0.146484 21G<124.352 135.632 583.867 595.147> 0.146484 21G<124.352 135.632 583.867 595.147> 767.354 20G<124.352 135.632 583.867 595.147> 767.354 20G<124.352 135.632 583.867 595.147>
LayerCount: 2
Back
Fore
SplineSet
104.650390625 7.2353515625 m 0xa0
 92.0341796875 15.5625 85.146484375 29.7119140625 85.146484375 44.0224609375 c 0
 85.146484375 52.2724609375 87.435546875 60.576171875 92.2353515625 67.849609375 c 2
 307.330078125 393.75 l 1
 92.2353515625 719.650390625 l 2
 87.435546875 726.923828125 85.146484375 735.227539062 85.146484375 743.477539062 c 0
 85.146484375 757.788085938 92.0341796875 771.9375 104.650390625 780.264648438 c 0
 111.922851562 785.064453125 120.2265625 787.353515625 128.4765625 787.353515625 c 0
 142.788085938 787.353515625 156.9375 780.465820312 165.264648438 767.849609375 c 2
 359.75 473.174804688 l 1
 554.235351562 767.849609375 l 2
 562.5625 780.465820312 576.711914062 787.353515625 591.022460938 787.353515625 c 0
 599.272460938 787.353515625 607.576171875 785.064453125 614.849609375 780.264648438 c 0
 627.465820312 771.9375 634.353515625 757.788085938 634.353515625 743.4765625 c 0
 634.353515625 735.2265625 632.064453125 726.922851562 627.264648438 719.650390625 c 2
 412.169921875 393.75 l 1
 627.264648438 67.849609375 l 2
 632.064453125 60.5771484375 634.353515625 52.2734375 634.353515625 44.0234375 c 0
 634.353515625 29.7119140625 627.465820312 15.5625 614.849609375 7.2353515625 c 0
 607.576171875 2.435546875 599.272460938 0.146484375 591.022460938 0.146484375 c 0
 576.711914062 0.146484375 562.5625 7.0341796875 554.235351562 19.650390625 c 2
 359.75 314.325195312 l 1
 165.264648438 19.650390625 l 2
 156.9375 7.0341796875 142.788085938 0.146484375 128.4765625 0.146484375 c 0
 120.2265625 0.146484375 111.922851562 2.435546875 104.650390625 7.2353515625 c 0xa0
EndSplineSet
Validated: 1
EndChar

StartChar: y
Encoding: 121 121 87
Width: 659
VWidth: 43
Flags: W
HStem: 0 21G<317.21 341.04> 0 21G<317.21 341.04> 767.343 20G<71.5874 82.8579 576.278 587.548> 767.343 20G<71.5874 82.8579 576.278 587.548>
VStem: 285.375 87.5<6.41116 379.559>
LayerCount: 2
Back
Fore
SplineSet
50.6279296875 779.212890625 m 0xa8
 58.2314453125 784.706054688 67.1513671875 787.342773438 76.0234375 787.342773438 c 0
 89.6923828125 787.342773438 103.25 781.084960938 111.712890625 769.372070312 c 2
 329.186523438 468.370117188 l 1
 547.454101562 769.4296875 l 2
 555.920898438 781.107421875 569.456054688 787.342773438 583.099609375 787.342773438 c 0
 591.997070312 787.342773438 600.939453125 784.69140625 608.5546875 779.170898438 c 0
 620.233398438 770.704101562 626.467773438 757.168945312 626.467773438 743.525390625 c 0
 626.467773438 734.62890625 623.81640625 725.685546875 618.295898438 718.0703125 c 2
 372.875 379.55859375 l 1
 372.875 43.75 l 2
 372.875 19.919921875 352.955078125 0 329.125 0 c 0
 305.294921875 0 285.375 19.919921875 285.375 43.75 c 2
 285.375 379.59765625 l 1
 40.787109375 718.127929688 l 2
 35.2939453125 725.731445312 32.6572265625 734.650390625 32.6572265625 743.5234375 c 0
 32.6572265625 757.192382812 38.9150390625 770.75 50.6279296875 779.212890625 c 0xa8
EndSplineSet
Validated: 1
EndChar

StartChar: z
Encoding: 122 122 88
Width: 677
VWidth: 43
Flags: W
HStem: 0 87.5<206.021 586.089> 700 87.5<91.4112 471.479>
LayerCount: 2
Back
Fore
SplineSet
85 743.75 m 0
 85 767.580078125 104.919921875 787.5 128.75 787.5 c 2
 548.75 787.5 l 2
 552.776367188 787.5 556.69140625 786.931640625 560.41796875 785.87109375 c 0
 564.157226562 784.86328125 567.806640625 783.336914062 571.258789062 781.265625 c 0
 577.91796875 777.270507812 583.1328125 771.673828125 586.712890625 765.23828125 c 0
 590.38671875 758.859375 592.5 751.51171875 592.5 743.75 c 0
 592.5 739.731445312 591.93359375 735.82421875 590.877929688 732.10546875 c 0
 589.869140625 728.357421875 588.340820312 724.700195312 586.265625 721.241210938 c 2
 206.020507812 87.5 l 1
 548.75 87.5 l 2
 572.580078125 87.5 592.5 67.580078125 592.5 43.75 c 0
 592.5 19.919921875 572.580078125 0 548.75 0 c 2
 128.75 0 l 2
 89.294921875 0 79.005859375 15.166015625 79.005859375 30.986328125 c 0
 79.005859375 48.234375 91.234375 66.2587890625 91.234375 66.2587890625 c 1
 471.479492188 700 l 1
 128.75 700 l 2
 104.919921875 700 85 719.919921875 85 743.75 c 0
EndSplineSet
Validated: 1
EndChar

StartChar: underscore
Encoding: 95 95 89
Width: 655
VWidth: 43
Flags: W
HStem: -175 87.5<108.911 546.714>
LayerCount: 2
Back
Fore
SplineSet
102.5 -131.25 m 0
 102.5 -107.419921875 122.419921875 -87.5 146.25 -87.5 c 2
 509.375 -87.5 l 2
 533.205078125 -87.5 553.125 -107.419921875 553.125 -131.25 c 0
 553.125 -155.080078125 533.205078125 -175 509.375 -175 c 2
 146.25 -175 l 2
 122.419921875 -175 102.5 -155.080078125 102.5 -131.25 c 0
EndSplineSet
Validated: 1
EndChar

StartChar: grave
Encoding: 96 96 90
Width: 426
VWidth: 43
Flags: W
HStem: 756.154 180.904
VStem: 102.654 221.066
LayerCount: 2
Back
Fore
SplineSet
110.408203125 918.55078125 m 0
 118.830078125 930.58203125 132.598632812 937.05859375 146.494140625 937.05859375 c 0
 155.146484375 937.05859375 163.84765625 934.547851562 171.338867188 929.303710938 c 2
 305.213867188 835.591796875 l 2
 317.245117188 827.169921875 323.720703125 813.401367188 323.720703125 799.505859375 c 0
 323.720703125 790.853515625 321.209960938 782.15234375 315.966796875 774.661132812 c 0
 307.544921875 762.629882812 293.776367188 756.154296875 279.880859375 756.154296875 c 0
 271.228515625 756.154296875 262.52734375 758.665039062 255.036132812 763.908203125 c 2
 121.161132812 857.62109375 l 2
 109.129882812 866.04296875 102.654296875 879.810546875 102.654296875 893.706054688 c 0
 102.654296875 902.358398438 105.165039062 911.059570312 110.408203125 918.55078125 c 0
EndSplineSet
Validated: 1
EndChar

StartChar: bar
Encoding: 124 124 91
Width: 292
VWidth: 43
Flags: W
HStem: 767.5 20G<134.335 158.165> 767.5 20G<134.335 158.165>
VStem: 102.5 87.5<-168.589 781.089>
LayerCount: 2
Back
Fore
SplineSet
146.25 787.5 m 0xa0
 170.080078125 787.5 190 767.580078125 190 743.75 c 2
 190 -131.25 l 2
 190 -155.080078125 170.080078125 -175 146.25 -175 c 0
 122.419921875 -175 102.5 -155.080078125 102.5 -131.25 c 2
 102.5 743.75 l 2
 102.5 767.580078125 122.419921875 787.5 146.25 787.5 c 0xa0
EndSplineSet
Validated: 1
EndChar

StartChar: braceleft
Encoding: 123 123 92
Width: 444
VWidth: 43
Flags: W
HStem: 0 87.5<268.672 336.013> 350 87.5<108.911 177.019> 700 87.5<268.734 336.101>
VStem: 178.712 87.5<89.9559 347.663 439.838 697.547>
CounterMasks: 1 e0
LayerCount: 2
Back
Fore
SplineSet
342.423828125 43.75 m 0
 342.423828125 19.919921875 322.504882812 0 298.673828125 0 c 0
 232.357421875 0 178.711914062 53.6318359375 178.711914062 119.961914062 c 2
 178.711914062 317.538085938 l 2
 178.711914062 335.662109375 164.299804688 350 146.337890625 350 c 2
 146.306640625 350 l 1
 146.25 350 l 2
 122.419921875 350 102.5 369.919921875 102.5 393.75 c 0
 102.5 417.580078125 122.419921875 437.5 146.25 437.5 c 0
 164.3515625 437.5 178.711914062 451.874023438 178.711914062 469.961914062 c 2
 178.711914062 667.538085938 l 2
 178.711914062 733.877929688 232.3828125 787.5 298.76171875 787.5 c 0
 322.591796875 787.5 342.51171875 767.580078125 342.51171875 743.75 c 0
 342.51171875 719.919921875 322.591796875 700 298.76171875 700 c 0
 280.547851562 700 266.211914062 685.616210938 266.211914062 667.538085938 c 2
 266.211914062 469.961914062 l 2
 266.211914062 441.004882812 255.98828125 414.467773438 238.94921875 393.756835938 c 1
 255.98828125 373.0390625 266.211914062 346.493164062 266.211914062 317.538085938 c 2
 266.211914062 119.961914062 l 2
 266.211914062 101.874023438 280.572265625 87.5 298.673828125 87.5 c 0
 322.504882812 87.5 342.423828125 67.580078125 342.423828125 43.75 c 0
EndSplineSet
Validated: 1
EndChar

StartChar: braceright
Encoding: 125 125 93
Width: 444
VWidth: 43
Flags: W
HStem: 0 87.5<108.911 176.198> 350 87.5<268.096 335.927> 700 87.5<108.999 176.266>
VStem: 178.625 87.5<89.9239 347.7 439.795 697.565>
CounterMasks: 1 e0
LayerCount: 2
Back
Fore
SplineSet
102.5 43.75 m 0
 102.5 67.580078125 122.419921875 87.5 146.25 87.5 c 0
 164.076171875 87.5 178.625 102.057617188 178.625 119.875 c 2
 178.625 317.625 l 2
 178.625 346.525390625 188.866210938 373.0390625 205.91796875 393.7421875 c 1
 188.8671875 414.44921875 178.625 440.971679688 178.625 469.875 c 2
 178.625 667.625 l 2
 178.625 685.474609375 164.030273438 700 146.337890625 700 c 0
 122.5078125 700 102.587890625 719.919921875 102.587890625 743.75 c 0
 102.587890625 767.580078125 122.5078125 787.5 146.337890625 787.5 c 0
 212.469726562 787.5 266.125 733.775390625 266.125 667.625 c 2
 266.125 469.875 l 2
 266.125 452.057617188 280.673828125 437.5 298.5 437.5 c 2
 298.53125 437.5 l 1
 298.587890625 437.5 l 2
 322.416992188 437.5 342.337890625 417.580078125 342.337890625 393.75 c 0
 342.337890625 369.919921875 322.416992188 350 298.587890625 350 c 0
 280.643554688 350 266.125 335.428710938 266.125 317.625 c 2
 266.125 119.875 l 2
 266.125 53.6923828125 212.423828125 0 146.25 0 c 0
 122.419921875 0 102.5 19.919921875 102.5 43.75 c 0
EndSplineSet
Validated: 1
EndChar

StartChar: asciitilde
Encoding: 126 126 94
Width: 507
VWidth: 43
Flags: W
HStem: 296.244 87.5<270.92 367.292> 340.792 87.5<140.565 236.896>
VStem: 102.764 302.375<340.909 383.556>
LayerCount: 2
Back
Fore
SplineSet
392.500976562 393.204101562 m 0xa0
 400.92578125 384.778320312 405.138671875 373.5234375 405.138671875 362.267578125 c 0
 405.138671875 351.012695312 400.92578125 339.756835938 392.500976562 331.33203125 c 0
 369.157226562 307.98828125 338.2890625 296.244140625 307.736328125 296.244140625 c 0xa0
 277.17578125 296.244140625 246.323242188 307.979492188 222.971679688 331.33203125 c 0
 216.6171875 337.686523438 208.505859375 340.791992188 200.079101562 340.791992188 c 0
 191.64453125 340.791992188 183.56640625 337.662109375 177.364257812 331.423828125 c 0
 168.930664062 322.940429688 157.6328125 318.694335938 146.333007812 318.694335938 c 0
 135.122070312 318.694335938 123.91015625 322.874023438 115.493164062 331.241210938 c 0
 107.009765625 339.674804688 102.763671875 350.973632812 102.763671875 362.272460938 c 0
 102.763671875 373.483398438 106.943359375 384.696289062 115.310546875 393.112304688 c 0
 138.6328125 416.573242188 169.532226562 428.291992188 200.079101562 428.291992188 c 0x60
 230.631835938 428.291992188 261.499023438 416.547851562 284.84375 393.204101562 c 0
 291.190429688 386.857421875 299.31640625 383.744140625 307.736328125 383.744140625 c 0
 316.163085938 383.744140625 324.274414062 386.848632812 330.62890625 393.204101562 c 0
 339.053710938 401.62890625 350.309570312 405.841796875 361.564453125 405.841796875 c 0
 372.8203125 405.841796875 384.075195312 401.62890625 392.500976562 393.204101562 c 0xa0
EndSplineSet
Validated: 1
EndChar

StartChar: acute
Encoding: 180 180 95
Width: 425
VWidth: 43
Flags: W
HStem: 756.154 180.816
VStem: 102.654 220.191
LayerCount: 2
Back
Fore
SplineSet
315.025390625 918.55859375 m 0
 320.3125 911.047851562 322.845703125 902.307617188 322.845703125 893.616210938 c 0
 322.845703125 879.760742188 316.408203125 866.029296875 304.43359375 857.599609375 c 2
 171.43359375 763.974609375 l 2
 163.922851562 758.6875 155.182617188 756.154296875 146.491210938 756.154296875 c 0
 132.635742188 756.154296875 118.904296875 762.591796875 110.474609375 774.56640625 c 0
 105.1875 782.078125 102.654296875 790.818359375 102.654296875 799.508789062 c 0
 102.654296875 813.364257812 109.091796875 827.095703125 121.06640625 835.525390625 c 2
 254.06640625 929.150390625 l 2
 261.578125 934.4375 270.318359375 936.970703125 279.008789062 936.970703125 c 0
 292.864257812 936.970703125 306.595703125 930.533203125 315.025390625 918.55859375 c 0
EndSplineSet
Validated: 1
EndChar

StartChar: exclamdown
Encoding: 161 161 97
Width: 292
VWidth: 43
Flags: W
HStem: 612.5 87.5<108.299 184.201>
VStem: 102.5 87.5<-81.0888 529.089 618.299 694.201>
LayerCount: 2
Back
Fore
SplineSet
146.25 535.5 m 0
 170.080078125 535.5 190 515.580078125 190 491.75 c 2
 190 -43.75 l 2
 190 -67.580078125 170.080078125 -87.5 146.25 -87.5 c 0
 122.419921875 -87.5 102.5 -67.580078125 102.5 -43.75 c 2
 102.5 491.75 l 2
 102.5 515.580078125 122.419921875 535.5 146.25 535.5 c 0
190 656.25 m 0
 190 632.099609375 170.400390625 612.5 146.25 612.5 c 0
 122.099609375 612.5 102.5 632.099609375 102.5 656.25 c 0
 102.5 680.400390625 122.099609375 700 146.25 700 c 0
 170.400390625 700 190 680.400390625 190 656.25 c 0
EndSplineSet
Validated: 1
EndChar

StartChar: questiondown
Encoding: 191 191 98
Width: 564
VWidth: 43
Flags: W
HStem: -86.625 87.5<227.815 348.99> 612.5 87.5<276.299 352.201>
VStem: 102.5 87.5<39.0392 154.867> 270.5 87.5<391.852 529.012 618.299 694.201>
LayerCount: 2
Back
Fore
SplineSet
435.352539062 83.1962890625 m 0
 451.920898438 76.2197265625 462.040039062 59.658203125 462.040039062 42.5146484375 c 0
 462.040039062 36.93359375 460.967773438 31.291015625 458.696289062 25.8974609375 c 0
 449.5859375 4.2587890625 435.162109375 -17.091796875 418.1484375 -33.2216796875 c 0
 384.28125 -66.6806640625 338.16796875 -86.625 288 -86.625 c 0
 184.956054688 -86.625 102.5 -3.0068359375 102.5 98.875 c 0
 102.5 128.307617188 112.030273438 156.451171875 124.961914062 181.237304688 c 0
 125.3359375 181.953125 125.895507812 182.942382812 126.203125 183.456054688 c 2
 235.578125 366.331054688 l 2
 265.954101562 417.122070312 270.413085938 447.614257812 270.413085938 490.51171875 c 0
 270.413085938 515.17578125 289.53125 535.477539062 314.16015625 535.5 c 0
 338.427734375 535.5 357.913085938 515.380859375 357.913085938 491.004882812 c 0
 357.913085938 438.529296875 348.682617188 384.973632812 310.671875 321.418945312 c 2
 201.994140625 139.709960938 l 2
 194.56640625 125.11328125 190 107.741210938 190 98.875 c 0
 190 45.0068359375 233.543945312 0.875 288 0.875 c 0
 314.760742188 0.875 338.99609375 11.3681640625 357.34765625 29.71875 c 0
 366.517578125 38.2783203125 373.123046875 48.142578125 378.053710938 59.8525390625 c 0
 385.029296875 76.421875 401.591796875 86.5400390625 418.735351562 86.5400390625 c 0
 424.31640625 86.5400390625 429.958984375 85.4677734375 435.352539062 83.1962890625 c 0
358 656.25 m 0
 358 632.099609375 338.400390625 612.5 314.25 612.5 c 0
 290.099609375 612.5 270.5 632.099609375 270.5 656.25 c 0
 270.5 680.400390625 290.099609375 700 314.25 700 c 0
 338.400390625 700 358 680.400390625 358 656.25 c 0
EndSplineSet
Validated: 1
EndChar

StartChar: dieresis
Encoding: 168 168 99
Width: 427
VWidth: 43
Flags: W
HStem: 756 88.375<108.911 183.589 242.786 317.464>
VStem: 102.5 87.5<761.799 837.964> 236.375 87.5<762.411 837.964>
LayerCount: 2
Back
Fore
SplineSet
280.125 844.375 m 0
 303.955078125 844.375 323.875 824.455078125 323.875 800.625 c 2
 323.875 799.75 l 2
 323.875 775.919921875 303.955078125 756 280.125 756 c 0
 256.294921875 756 236.375 775.919921875 236.375 799.75 c 2
 236.375 800.625 l 2
 236.375 824.455078125 256.294921875 844.375 280.125 844.375 c 0
146.25 844.375 m 0
 170.080078125 844.375 190 824.455078125 190 800.625 c 2
 190 799.75 l 2
 190 775.599609375 170.400390625 756 146.25 756 c 0
 122.099609375 756 102.5 775.599609375 102.5 799.75 c 2
 102.5 800.625 l 2
 102.5 824.455078125 122.419921875 844.375 146.25 844.375 c 0
EndSplineSet
Validated: 1
EndChar

StartChar: guillemotleft
Encoding: 171 171 100
Width: 604
VWidth: 43
Flags: W
LayerCount: 2
Back
Fore
SplineSet
484.254882812 7.1923828125 m 0
 476.4765625 1.26953125 467.190429688 -1.5869140625 457.9453125 -1.5869140625 c 0
 444.658203125 -1.5869140625 431.456054688 4.314453125 422.942382812 15.4951171875 c 2
 277.692382812 206.245117188 l 2
 271.799804688 213.984375 268.856445312 223.3671875 268.856445312 232.749023438 c 0
 268.856445312 242.135742188 271.803710938 251.521484375 277.692382812 259.254882812 c 2
 422.942382812 450.004882812 l 2
 431.456054688 461.185546875 444.657226562 467.086914062 457.9453125 467.086914062 c 0
 467.189453125 467.086914062 476.475585938 464.23046875 484.254882812 458.307617188 c 0
 495.435546875 449.793945312 501.336914062 436.591796875 501.336914062 423.3046875 c 0
 501.336914062 414.059570312 498.48046875 404.7734375 492.557617188 396.995117188 c 2
 367.490234375 232.75 l 1
 492.557617188 68.5048828125 l 2
 498.48046875 60.7255859375 501.336914062 51.439453125 501.336914062 42.1953125 c 0
 501.336914062 28.9072265625 495.435546875 15.7060546875 484.254882812 7.1923828125 c 0
318.004882812 7.1923828125 m 0
 310.2265625 1.26953125 300.940429688 -1.5869140625 291.6953125 -1.5869140625 c 0
 278.408203125 -1.5869140625 265.206054688 4.314453125 256.692382812 15.4951171875 c 2
 111.442382812 206.245117188 l 2
 105.549804688 213.984375 102.606445312 223.3671875 102.606445312 232.749023438 c 0
 102.606445312 242.135742188 105.553710938 251.521484375 111.442382812 259.254882812 c 2
 256.692382812 450.004882812 l 2
 265.206054688 461.185546875 278.407226562 467.086914062 291.6953125 467.086914062 c 0
 300.939453125 467.086914062 310.225585938 464.23046875 318.004882812 458.307617188 c 0
 329.185546875 449.793945312 335.086914062 436.591796875 335.086914062 423.3046875 c 0
 335.086914062 414.059570312 332.23046875 404.7734375 326.307617188 396.995117188 c 2
 201.240234375 232.75 l 1
 326.307617188 68.5048828125 l 2
 332.23046875 60.7255859375 335.086914062 51.439453125 335.086914062 42.1953125 c 0
 335.086914062 28.9072265625 329.185546875 15.7060546875 318.004882812 7.1923828125 c 0
EndSplineSet
Validated: 1
EndChar

StartChar: guillemotright
Encoding: 187 187 101
Width: 604
VWidth: 43
Flags: W
LayerCount: 2
Back
Fore
SplineSet
119.745117188 7.1923828125 m 0
 108.564453125 15.7060546875 102.663085938 28.9072265625 102.663085938 42.1953125 c 0
 102.663085938 51.439453125 105.51953125 60.7255859375 111.442382812 68.5048828125 c 2
 236.509765625 232.75 l 1
 111.442382812 396.995117188 l 2
 105.51953125 404.7734375 102.663085938 414.059570312 102.663085938 423.3046875 c 0
 102.663085938 436.591796875 108.564453125 449.793945312 119.745117188 458.307617188 c 0
 127.524414062 464.23046875 136.810546875 467.086914062 146.0546875 467.086914062 c 0
 159.342773438 467.086914062 172.543945312 461.185546875 181.057617188 450.004882812 c 2
 326.307617188 259.254882812 l 2
 332.196289062 251.521484375 335.143554688 242.135742188 335.143554688 232.749023438 c 0
 335.143554688 223.3671875 332.200195312 213.984375 326.307617188 206.245117188 c 2
 181.057617188 15.4951171875 l 2
 172.543945312 4.314453125 159.341796875 -1.5869140625 146.0546875 -1.5869140625 c 0
 136.809570312 -1.5869140625 127.5234375 1.26953125 119.745117188 7.1923828125 c 0
285.995117188 7.1923828125 m 0
 274.814453125 15.7060546875 268.913085938 28.9072265625 268.913085938 42.1953125 c 0
 268.913085938 51.439453125 271.76953125 60.7255859375 277.692382812 68.5048828125 c 2
 402.759765625 232.75 l 1
 277.692382812 396.995117188 l 2
 271.76953125 404.7734375 268.913085938 414.059570312 268.913085938 423.3046875 c 0
 268.913085938 436.591796875 274.814453125 449.793945312 285.995117188 458.307617188 c 0
 293.774414062 464.23046875 303.060546875 467.086914062 312.3046875 467.086914062 c 0
 325.592773438 467.086914062 338.793945312 461.185546875 347.307617188 450.004882812 c 2
 492.557617188 259.254882812 l 2
 498.446289062 251.521484375 501.393554688 242.135742188 501.393554688 232.749023438 c 0
 501.393554688 223.3671875 498.450195312 213.984375 492.557617188 206.245117188 c 2
 347.307617188 15.4951171875 l 2
 338.793945312 4.314453125 325.591796875 -1.5869140625 312.3046875 -1.5869140625 c 0
 303.059570312 -1.5869140625 293.7734375 1.26953125 285.995117188 7.1923828125 c 0
EndSplineSet
Validated: 1
EndChar

StartChar: uni00AD
Encoding: 173 173 102
Width: 522
VWidth: 43
Flags: W
HStem: 287 87.5<108.911 413.714>
VStem: 102.5 317.625<293.411 368.089>
LayerCount: 2
Back
Fore
SplineSet
102.5 330.75 m 0
 102.5 354.580078125 122.419921875 374.5 146.25 374.5 c 2
 376.375 374.5 l 2
 400.205078125 374.5 420.125 354.580078125 420.125 330.75 c 0
 420.125 306.919921875 400.205078125 287 376.375 287 c 2
 146.25 287 l 2
 122.419921875 287 102.5 306.919921875 102.5 330.75 c 0
EndSplineSet
Validated: 1
EndChar

StartChar: degree
Encoding: 176 176 103
Width: 520
VWidth: 43
Flags: W
HStem: 472.5 87.5<209.341 310.659> 700 87.5<209.341 310.659>
VStem: 102.5 87.5<579.341 680.659> 330 87.5<579.341 680.659>
LayerCount: 2
Back
Fore
SplineSet
190 630 m 0
 190 591.112304688 221.107421875 560 260 560 c 0
 298.887695312 560 330 591.107421875 330 630 c 0
 330 668.887695312 298.892578125 700 260 700 c 0
 221.112304688 700 190 668.892578125 190 630 c 0
102.5 630 m 0
 102.5 717.107421875 172.887695312 787.5 260 787.5 c 0
 347.107421875 787.5 417.5 717.112304688 417.5 630 c 0
 417.5 542.892578125 347.112304688 472.5 260 472.5 c 0
 172.892578125 472.5 102.5 542.887695312 102.5 630 c 0
EndSplineSet
Validated: 1
EndChar

StartChar: periodcentered
Encoding: 183 183 104
Width: 292
VWidth: 43
Flags: W
HStem: 350 87.5<108.299 184.201>
VStem: 102.5 87.5<355.799 431.701>
LayerCount: 2
Back
Fore
SplineSet
102.5 393.75 m 0
 102.5 417.900390625 122.099609375 437.5 146.25 437.5 c 0
 170.400390625 437.5 190 417.900390625 190 393.75 c 0
 190 369.599609375 170.400390625 350 146.25 350 c 0
 122.099609375 350 102.5 369.599609375 102.5 393.75 c 0
EndSplineSet
Validated: 1
EndChar

StartChar: cedilla
Encoding: 184 184 105
Width: 292
VWidth: 43
Flags: W
HStem: -132.125 219.625<108.911 183.589>
VStem: 102.5 87.5<-125.714 81.0888>
LayerCount: 2
Back
Fore
SplineSet
146.25 -132.125 m 0
 122.419921875 -132.125 102.5 -112.205078125 102.5 -88.375 c 2
 102.5 43.75 l 2
 102.5 67.580078125 122.419921875 87.5 146.25 87.5 c 0
 170.080078125 87.5 190 67.580078125 190 43.75 c 2
 190 -88.375 l 2
 190 -112.205078125 170.080078125 -132.125 146.25 -132.125 c 0
EndSplineSet
Validated: 1
EndChar

StartChar: Agrave
Encoding: 192 192 106
Width: 639
VWidth: 43
Flags: W
HStem: 0.0625 21G<73.5703 84.9805 554.908 566.316> 0.0625 21G<73.5703 84.9805 554.908 566.316> 238 87.5<220.475 418.851> 767.5 20G<319.579 320.516> 767.5 20G<319.579 320.516>
VStem: 522.323 84.9883<6.14374 83.6985>
LayerCount: 2
Back
Fore
SplineSet
213.658203125 918.55078125 m 0xb4
 222.080078125 930.58203125 235.848632812 937.05859375 249.744140625 937.05859375 c 0
 258.396484375 937.05859375 267.09765625 934.547851562 274.588867188 929.303710938 c 2
 408.463867188 835.591796875 l 2
 420.495117188 827.169921875 426.970703125 813.401367188 426.970703125 799.505859375 c 0
 426.970703125 790.853515625 424.459960938 782.15234375 419.216796875 774.661132812 c 0
 410.794921875 762.629882812 397.026367188 756.154296875 383.130859375 756.154296875 c 0
 374.536132812 756.154296875 365.892578125 758.631835938 358.434570312 763.8046875 c 1
 359.34375 762.073242188 360.138671875 760.270507812 360.810546875 758.405273438 c 0
 366.033203125 743.180664062 511.40234375 325.884765625 604.926757812 58.1796875 c 0
 606.544921875 53.546875 607.311523438 48.7919921875 607.311523438 44.0927734375 c 0
 607.311523438 25.974609375 595.91796875 8.689453125 578.0546875 2.4482421875 c 0
 573.421875 0.830078125 568.666015625 0.0634765625 563.966796875 0.0634765625 c 0
 545.848632812 0.0634765625 528.563476562 11.4560546875 522.323242188 29.3203125 c 0
 499.953125 93.3515625 474.827148438 165.256835938 449.4140625 238 c 1
 190.068359375 238 l 1
 117.576171875 29.3896484375 l 2
 111.356445312 11.4921875 94.052734375 0.0625 75.908203125 0.0625 c 0
 71.232421875 0.0625 66.5009765625 0.8212890625 61.8896484375 2.423828125 c 0
 43.9912109375 8.6435546875 32.5625 25.9482421875 32.5625 44.091796875 c 0
 32.5625 48.767578125 33.3212890625 53.4990234375 34.923828125 58.1103515625 c 2
 278.173828125 758.110351562 l 2
 284.352539062 775.892578125 301.471679688 787.288085938 319.486328125 787.435546875 c 0
 319.536132812 787.478515625 319.5703125 787.5 319.587890625 787.5 c 0
 321.443359375 787.5 323.284179688 787.376953125 325.100585938 787.138671875 c 2
 224.411132812 857.62109375 l 2
 212.379882812 866.04296875 205.904296875 879.810546875 205.904296875 893.706054688 c 0
 205.904296875 902.358398438 208.415039062 911.059570312 213.658203125 918.55078125 c 0xb4
220.474609375 325.5 m 1
 418.850585938 325.5 l 1
 381.522460938 432.384765625 345.734375 534.930664062 319.474609375 610.392578125 c 1
 220.474609375 325.5 l 1
EndSplineSet
Validated: 1
EndChar

StartChar: Aacute
Encoding: 193 193 107
Width: 639
VWidth: 43
Flags: W
HStem: 0.0625 21G<73.5703 84.9805 554.908 566.316> 0.0625 21G<73.5703 84.9805 554.908 566.316> 238 87.5<220.475 418.851> 767.5 20G<319.579 321.004> 767.5 20G<319.579 321.004>
VStem: 522.323 84.9883<6.14374 83.6985>
LayerCount: 2
Back
Fore
SplineSet
416.525390625 918.55859375 m 0xb4
 421.8125 911.047851562 424.345703125 902.307617188 424.345703125 893.616210938 c 0
 424.345703125 879.760742188 417.908203125 866.029296875 405.93359375 857.599609375 c 2
 298.237304688 781.787109375 l 2
 304.6875 785.375976562 312.009765625 787.374023438 319.486328125 787.435546875 c 0
 319.536132812 787.478515625 319.5703125 787.5 319.587890625 787.5 c 0
 322.420898438 787.5 325.21875 787.213867188 327.947265625 786.665039062 c 0
 329.930664062 786.282226562 331.90625 785.754882812 333.860351562 785.076171875 c 0
 338.872070312 783.334960938 343.375976562 780.723632812 347.264648438 777.46875 c 0
 353.309570312 772.518554688 358.083984375 765.978515625 360.810546875 758.405273438 c 0
 366.033203125 743.180664062 511.40234375 325.884765625 604.926757812 58.1796875 c 0
 606.544921875 53.546875 607.311523438 48.7919921875 607.311523438 44.0927734375 c 0
 607.311523438 25.974609375 595.91796875 8.689453125 578.0546875 2.4482421875 c 0
 573.421875 0.830078125 568.666015625 0.0634765625 563.966796875 0.0634765625 c 0
 545.848632812 0.0634765625 528.563476562 11.4560546875 522.323242188 29.3203125 c 0
 499.953125 93.3515625 474.827148438 165.256835938 449.4140625 238 c 1
 190.068359375 238 l 1
 117.576171875 29.3896484375 l 2
 111.356445312 11.4921875 94.052734375 0.0625 75.908203125 0.0625 c 0
 71.232421875 0.0625 66.5009765625 0.8212890625 61.8896484375 2.423828125 c 0
 43.9912109375 8.6435546875 32.5625 25.9482421875 32.5625 44.091796875 c 0
 32.5625 48.767578125 33.3212890625 53.4990234375 34.923828125 58.1103515625 c 2
 278.173828125 758.110351562 l 2
 280.692382812 765.357421875 285.02734375 771.543945312 290.5 776.33984375 c 2
 272.93359375 763.974609375 l 2
 265.422851562 758.6875 256.682617188 756.154296875 247.991210938 756.154296875 c 0
 234.135742188 756.154296875 220.404296875 762.591796875 211.974609375 774.56640625 c 0
 206.6875 782.078125 204.154296875 790.818359375 204.154296875 799.508789062 c 0
 204.154296875 813.364257812 210.591796875 827.095703125 222.56640625 835.525390625 c 2
 355.56640625 929.150390625 l 2
 363.078125 934.4375 371.818359375 936.970703125 380.508789062 936.970703125 c 0
 394.364257812 936.970703125 408.095703125 930.533203125 416.525390625 918.55859375 c 0xb4
220.474609375 325.5 m 1
 418.850585938 325.5 l 1
 381.522460938 432.384765625 345.734375 534.930664062 319.474609375 610.392578125 c 1
 220.474609375 325.5 l 1
EndSplineSet
Validated: 1
EndChar

StartChar: Acircumflex
Encoding: 194 194 108
Width: 639
VWidth: 43
Flags: W
HStem: 0.0625 21G<73.5703 84.9805 554.908 566.316> 0.0625 21G<73.5703 84.9805 554.908 566.316> 238 87.5<220.475 418.851> 767.5 20G<319.579 321.004> 767.5 20G<319.579 321.004>
VStem: 522.323 84.9883<6.14374 83.6985>
LayerCount: 2
Back
Fore
SplineSet
147.158203125 774.661132812 m 0x24
 141.9140625 782.15234375 139.403320312 790.853515625 139.403320312 799.505859375 c 0
 139.403320312 813.401367188 145.879882812 827.169921875 157.911132812 835.591796875 c 2
 291.786132812 929.303710938 l 2
 299.236328125 934.518554688 308.055664062 937.122070312 316.872070312 937.122070312 c 0
 325.69921875 937.122070312 334.522460938 934.512695312 341.963867188 929.303710938 c 2
 475.838867188 835.591796875 l 2
 487.870117188 827.169921875 494.345703125 813.401367188 494.345703125 799.505859375 c 0
 494.345703125 790.853515625 491.834960938 782.15234375 486.591796875 774.661132812 c 0
 478.169921875 762.629882812 464.401367188 756.154296875 450.505859375 756.154296875 c 0
 441.853515625 756.154296875 433.15234375 758.665039062 425.661132812 763.908203125 c 2
 316.875 840.05859375 l 1
 208.088867188 763.908203125 l 2
 200.59765625 758.665039062 191.895507812 756.154296875 183.244140625 756.154296875 c 0
 169.348632812 756.154296875 155.580078125 762.629882812 147.158203125 774.661132812 c 0x24
220.474609375 325.5 m 1
 418.850585938 325.5 l 1
 381.522460938 432.384765625 345.734375 534.930664062 319.474609375 610.392578125 c 1
 220.474609375 325.5 l 1
360.810546875 758.405273438 m 0
 366.033203125 743.180664062 511.40234375 325.884765625 604.926757812 58.1796875 c 0
 606.544921875 53.546875 607.311523438 48.7919921875 607.311523438 44.0927734375 c 0
 607.311523438 25.974609375 595.91796875 8.689453125 578.0546875 2.4482421875 c 0
 573.421875 0.830078125 568.666015625 0.0634765625 563.966796875 0.0634765625 c 0
 545.848632812 0.0634765625 528.563476562 11.4560546875 522.323242188 29.3203125 c 0
 499.953125 93.3515625 474.827148438 165.256835938 449.4140625 238 c 1
 190.068359375 238 l 1
 117.576171875 29.3896484375 l 2
 111.356445312 11.4921875 94.052734375 0.0625 75.908203125 0.0625 c 0
 71.232421875 0.0625 66.5009765625 0.8212890625 61.8896484375 2.423828125 c 0
 43.9912109375 8.6435546875 32.5625 25.9482421875 32.5625 44.091796875 c 0
 32.5625 48.767578125 33.3212890625 53.4990234375 34.923828125 58.1103515625 c 2
 278.173828125 758.110351562 l 2
 284.352539062 775.892578125 301.471679688 787.288085938 319.486328125 787.435546875 c 0
 319.536132812 787.478515625 319.5703125 787.5 319.587890625 787.5 c 0xb4
 322.420898438 787.5 325.21875 787.213867188 327.947265625 786.665039062 c 0
 329.930664062 786.282226562 331.90625 785.754882812 333.860351562 785.076171875 c 0
 338.872070312 783.334960938 343.375976562 780.723632812 347.264648438 777.46875 c 0
 353.309570312 772.518554688 358.083984375 765.978515625 360.810546875 758.405273438 c 0
EndSplineSet
Validated: 1
EndChar

StartChar: Atilde
Encoding: 195 195 109
Width: 639
VWidth: 43
Flags: W
HStem: 0.0625 21G<73.5703 84.9805 554.908 566.316> 0.0625 21G<73.5703 84.9805 554.908 566.316> 238 87.5<220.475 418.851> 754.744 87.5<361.985 435.542> 799.292 87.5<208.815 298.734>
VStem: 522.323 84.9883<6.14374 82.8403>
LayerCount: 2
Back
Fore
SplineSet
460.750976562 851.704101562 m 0x34
 469.17578125 843.278320312 473.388671875 832.0234375 473.388671875 820.767578125 c 0
 473.388671875 809.512695312 469.17578125 798.256835938 460.750976562 789.83203125 c 0
 437.407226562 766.48828125 406.5390625 754.744140625 375.986328125 754.744140625 c 0x34
 371.249023438 754.744140625 366.505859375 755.026367188 361.783203125 755.58984375 c 1
 375.60546875 715.703125 514.5 317.018554688 604.926757812 58.1796875 c 0
 606.544921875 53.546875 607.311523438 48.7919921875 607.311523438 44.0927734375 c 0
 607.311523438 25.974609375 595.91796875 8.689453125 578.0546875 2.4482421875 c 0
 573.421875 0.830078125 568.666015625 0.0634765625 563.966796875 0.0634765625 c 0
 545.848632812 0.0634765625 528.563476562 11.4560546875 522.323242188 29.3203125 c 0
 499.953125 93.3515625 474.827148438 165.256835938 449.4140625 238 c 1
 190.068359375 238 l 1
 117.576171875 29.3896484375 l 2
 111.356445312 11.4921875 94.052734375 0.0625 75.908203125 0.0625 c 0
 71.232421875 0.0625 66.5009765625 0.8212890625 61.8896484375 2.423828125 c 0
 43.9912109375 8.6435546875 32.5625 25.9482421875 32.5625 44.091796875 c 0
 32.5625 48.767578125 33.3212890625 53.4990234375 34.923828125 58.1103515625 c 2
 278.173828125 758.110351562 l 2
 281.9375 768.94140625 289.759765625 777.403320312 299.37109375 782.396484375 c 1
 296.567382812 784.728515625 293.846679688 787.20703125 291.221679688 789.83203125 c 0
 284.8671875 796.186523438 276.755859375 799.291992188 268.329101562 799.291992188 c 0
 259.89453125 799.291992188 251.81640625 796.162109375 245.614257812 789.923828125 c 0
 237.180664062 781.440429688 225.8828125 777.194335938 214.583007812 777.194335938 c 0
 203.372070312 777.194335938 192.16015625 781.374023438 183.743164062 789.741210938 c 0
 175.259765625 798.174804688 171.013671875 809.473632812 171.013671875 820.772460938 c 0
 171.013671875 831.983398438 175.193359375 843.196289062 183.560546875 851.612304688 c 0
 206.8828125 875.073242188 237.782226562 886.791992188 268.329101562 886.791992188 c 0xac
 298.881835938 886.791992188 329.749023438 875.047851562 353.09375 851.704101562 c 0
 359.440429688 845.357421875 367.56640625 842.244140625 375.986328125 842.244140625 c 0
 384.413085938 842.244140625 392.524414062 845.348632812 398.87890625 851.704101562 c 0
 407.303710938 860.12890625 418.55859375 864.341796875 429.814453125 864.341796875 c 0
 441.069335938 864.341796875 452.325195312 860.12890625 460.750976562 851.704101562 c 0x34
220.474609375 325.5 m 1
 418.850585938 325.5 l 1
 381.522460938 432.384765625 345.734375 534.930664062 319.474609375 610.392578125 c 1
 220.474609375 325.5 l 1
EndSplineSet
Validated: 1
EndChar

StartChar: Adieresis
Encoding: 196 196 110
Width: 639
VWidth: 43
Flags: W
HStem: 0.0625 21G<73.5703 84.9805 554.908 566.316> 0.0625 21G<73.5703 84.9805 554.908 566.316> 238 87.5<220.475 418.851> 756 88.375<211.286 285.964 359.081 419.839> 767.5 20G<319.579 321.004> 767.5 20G<319.579 321.004>
VStem: 204.875 87.5<761.799 837.964> 338.75 87.5<780.927 837.964> 522.323 84.9883<6.14374 83.6985>
LayerCount: 2
Back
Fore
SplineSet
382.5 844.375 m 0x3380
 406.330078125 844.375 426.25 824.455078125 426.25 800.625 c 2
 426.25 799.75 l 2
 426.25 775.919921875 406.330078125 756 382.5 756 c 0x3380
 373.806640625 756 365.633789062 758.651367188 358.7578125 763.17578125 c 1
 359.533203125 761.637695312 360.219726562 760.045898438 360.810546875 758.405273438 c 0
 366.033203125 743.180664062 511.40234375 325.884765625 604.926757812 58.1796875 c 0
 606.544921875 53.546875 607.311523438 48.7919921875 607.311523438 44.0927734375 c 0
 607.311523438 25.974609375 595.91796875 8.689453125 578.0546875 2.4482421875 c 0
 573.421875 0.830078125 568.666015625 0.0634765625 563.966796875 0.0634765625 c 0
 545.848632812 0.0634765625 528.563476562 11.4560546875 522.323242188 29.3203125 c 0
 499.953125 93.3515625 474.827148438 165.256835938 449.4140625 238 c 1
 190.068359375 238 l 1
 117.576171875 29.3896484375 l 2
 111.356445312 11.4921875 94.052734375 0.0625 75.908203125 0.0625 c 0
 71.232421875 0.0625 66.5009765625 0.8212890625 61.8896484375 2.423828125 c 0
 43.9912109375 8.6435546875 32.5625 25.9482421875 32.5625 44.091796875 c 0
 32.5625 48.767578125 33.3212890625 53.4990234375 34.923828125 58.1103515625 c 2
 278.173828125 758.110351562 l 2
 284.352539062 775.892578125 301.471679688 787.288085938 319.486328125 787.435546875 c 0
 319.536132812 787.478515625 319.5703125 787.5 319.587890625 787.5 c 0xab80
 322.420898438 787.5 325.21875 787.213867188 327.947265625 786.665039062 c 0
 329.930664062 786.282226562 331.90625 785.754882812 333.860351562 785.076171875 c 0
 337.29296875 783.883789062 340.48828125 782.282226562 343.41015625 780.345703125 c 1
 340.434570312 786.220703125 338.75 792.8203125 338.75 799.75 c 2
 338.75 800.625 l 2
 338.75 824.455078125 358.669921875 844.375 382.5 844.375 c 0x3380
248.625 844.375 m 0
 272.455078125 844.375 292.375 824.455078125 292.375 800.625 c 2
 292.375 799.75 l 2
 292.375 775.599609375 272.775390625 756 248.625 756 c 0
 224.474609375 756 204.875 775.599609375 204.875 799.75 c 2
 204.875 800.625 l 2
 204.875 824.455078125 224.794921875 844.375 248.625 844.375 c 0
220.474609375 325.5 m 1
 418.850585938 325.5 l 1
 381.522460938 432.384765625 345.734375 534.930664062 319.474609375 610.392578125 c 1
 220.474609375 325.5 l 1
EndSplineSet
Validated: 1
EndChar

StartChar: Aring
Encoding: 197 197 111
Width: 639
VWidth: 43
Flags: W
HStem: 0.0625 21G<73.5703 84.9805 554.908 566.316> 0.0625 21G<73.5703 84.9805 554.908 566.316> 238 87.5<220.475 418.851> 767.5 20G<319.579 321.004> 767.5 20G<319.579 321.004> 925.75 87.5<270.591 371.909>
VStem: 163.75 87.5<805.493 906.409> 391.25 87.5<804.748 906.409> 522.323 84.9883<6.14374 89.1852>
LayerCount: 2
Back
Fore
SplineSet
163.75 855.75 m 0xa780
 163.75 942.857421875 234.137695312 1013.25 321.25 1013.25 c 0
 408.357421875 1013.25 478.75 942.862304688 478.75 855.75 c 0
 478.75 788.682617188 437.0234375 731.5234375 378.063476562 708.7734375 c 1
 420.125976562 587.931640625 529.421875 274.305664062 604.926757812 58.1796875 c 0
 606.544921875 53.546875 607.311523438 48.7919921875 607.311523438 44.0927734375 c 0
 607.311523438 25.974609375 595.91796875 8.689453125 578.0546875 2.4482421875 c 0
 573.421875 0.830078125 568.666015625 0.0634765625 563.966796875 0.0634765625 c 0
 545.848632812 0.0634765625 528.563476562 11.4560546875 522.323242188 29.3203125 c 0
 499.953125 93.3515625 474.827148438 165.256835938 449.4140625 238 c 1
 190.068359375 238 l 1
 117.576171875 29.3896484375 l 2
 111.356445312 11.4921875 94.052734375 0.0625 75.908203125 0.0625 c 0
 71.232421875 0.0625 66.5009765625 0.8212890625 61.8896484375 2.423828125 c 0
 43.9912109375 8.6435546875 32.5625 25.9482421875 32.5625 44.091796875 c 0
 32.5625 48.767578125 33.3212890625 53.4990234375 34.923828125 58.1103515625 c 2
 261.443359375 709.963867188 l 1
 204.071289062 733.469726562 163.75 789.8203125 163.75 855.75 c 0xa780
220.474609375 325.5 m 1
 418.850585938 325.5 l 1
 381.522460938 432.384765625 345.734375 534.930664062 319.474609375 610.392578125 c 1
 220.474609375 325.5 l 1
329.818359375 786.259765625 m 0
 364.608398438 790.4375 391.25 819.760742188 391.25 855.75 c 0
 391.25 894.637695312 360.142578125 925.75 321.25 925.75 c 0
 282.362304688 925.75 251.25 894.642578125 251.25 855.75 c 0
 251.25 820.39453125 276.962890625 791.465820312 310.862304688 786.502929688 c 0
 313.684570312 787.09375 316.57421875 787.412109375 319.486328125 787.435546875 c 0
 319.536132812 787.478515625 319.5703125 787.5 319.587890625 787.5 c 0x3780
 322.420898438 787.5 325.21875 787.213867188 327.947265625 786.665039062 c 0
 328.572265625 786.544921875 329.1953125 786.409179688 329.818359375 786.259765625 c 0
EndSplineSet
Validated: 1
EndChar

StartChar: Ccedilla
Encoding: 199 199 112
Width: 718
VWidth: 43
Flags: W
HStem: 2.91895 84.5811<315.33 365.875 453.375 506.784> 700 87.5<312.66 506.456>
VStem: 85 87.5<227.927 560.167> 365.875 87.5<-125.714 5.24639>
LayerCount: 2
Back
Fore
SplineSet
409.625 -132.125 m 0
 385.794921875 -132.125 365.875 -112.205078125 365.875 -88.375 c 2
 365.875 2.9189453125 l 1
 207.581054688 24.212890625 85 159.419921875 85 323.75 c 2
 85 463.75 l 2
 85 642.938476562 230.75 787.5 409.625 787.5 c 0
 499.561523438 787.5 579.903320312 750.830078125 638.372070312 692.462890625 c 0
 646.814453125 684.03515625 651.036132812 672.767578125 651.036132812 661.499023438 c 0
 651.036132812 650.256835938 646.833984375 639.013671875 638.424804688 630.590820312 c 0
 629.997070312 622.1484375 618.729492188 617.926757812 607.4609375 617.926757812 c 0
 596.21875 617.926757812 584.9765625 622.12890625 576.553710938 630.537109375 c 0
 533.346679688 673.669921875 475.438476562 700 409.625 700 c 0
 278.75 700 172.5 594.311523438 172.5 463.75 c 2
 172.5 323.75 l 2
 172.5 193.188476562 278.75 87.5 409.625 87.5 c 0
 475.442382812 87.5 533.337890625 113.834960938 576.439453125 156.935546875 c 0
 584.864257812 165.361328125 596.120117188 169.57421875 607.375 169.57421875 c 0
 618.629882812 169.57421875 629.885742188 165.361328125 638.310546875 156.935546875 c 0
 646.736328125 148.510742188 650.94921875 137.254882812 650.94921875 126 c 0
 650.94921875 114.745117188 646.736328125 103.489257812 638.310546875 95.064453125 c 0
 589.563476562 46.3173828125 525.518554688 12.712890625 453.375 2.9375 c 1
 453.375 -88.375 l 2
 453.375 -112.205078125 433.455078125 -132.125 409.625 -132.125 c 0
EndSplineSet
Validated: 1
EndChar

StartChar: Egrave
Encoding: 200 200 113
Width: 633
VWidth: 43
Flags: W
HStem: 0 87.5<190 568.589> 350 87.5<190 498.589> 700 87.5<190 345.365 446.093 568.589>
VStem: 102.5 87.5<87.5 350 437.5 700>
CounterMasks: 1 e0
LayerCount: 2
Back
Fore
SplineSet
234.439453125 918.55078125 m 0
 242.861328125 930.58203125 256.629882812 937.05859375 270.525390625 937.05859375 c 0
 279.176757812 937.05859375 287.87890625 934.547851562 295.370117188 929.303710938 c 2
 429.245117188 835.591796875 l 2
 441.276367188 827.169921875 447.751953125 813.401367188 447.751953125 799.505859375 c 0
 447.751953125 795.471679688 447.206054688 791.427734375 446.092773438 787.5 c 2
 531.25 787.5 l 2
 555.080078125 787.5 575 767.580078125 575 743.75 c 0
 575 719.919921875 555.080078125 700 531.25 700 c 2
 190 700 l 1
 190 437.5 l 1
 461.25 437.5 l 2
 485.080078125 437.5 505 417.580078125 505 393.75 c 0
 505 369.919921875 485.080078125 350 461.25 350 c 2
 190 350 l 1
 190 87.5 l 1
 531.25 87.5 l 2
 555.080078125 87.5 575 67.580078125 575 43.75 c 0
 575 19.919921875 555.080078125 0 531.25 0 c 2
 146.25 0 l 2
 127.47265625 0 102.5 17.267578125 102.5 43.75 c 2
 102.5 393.75 l 1
 102.5 743.75 l 2
 102.5 762.52734375 119.767578125 787.5 146.25 787.5 c 2
 345.365234375 787.5 l 1
 245.192382812 857.62109375 l 2
 233.161132812 866.04296875 226.684570312 879.810546875 226.684570312 893.706054688 c 0
 226.684570312 902.358398438 229.1953125 911.059570312 234.439453125 918.55078125 c 0
EndSplineSet
Validated: 1
EndChar

StartChar: Eacute
Encoding: 201 201 114
Width: 633
VWidth: 43
Flags: W
HStem: 0 87.5<190 568.589> 350 87.5<190 498.589> 700 87.5<190 237.971 338.509 568.589>
VStem: 102.5 87.5<87.5 350 437.5 700>
CounterMasks: 1 e0
LayerCount: 2
Back
Fore
SplineSet
448.681640625 918.55859375 m 0
 453.96875 911.047851562 456.501953125 902.307617188 456.501953125 893.616210938 c 0
 456.501953125 879.760742188 450.064453125 866.029296875 438.08984375 857.599609375 c 2
 338.508789062 787.5 l 1
 531.25 787.5 l 2
 555.080078125 787.5 575 767.580078125 575 743.75 c 0
 575 719.919921875 555.080078125 700 531.25 700 c 2
 190 700 l 1
 190 437.5 l 1
 461.25 437.5 l 2
 485.080078125 437.5 505 417.580078125 505 393.75 c 0
 505 369.919921875 485.080078125 350 461.25 350 c 2
 190 350 l 1
 190 87.5 l 1
 531.25 87.5 l 2
 555.080078125 87.5 575 67.580078125 575 43.75 c 0
 575 19.919921875 555.080078125 0 531.25 0 c 2
 146.25 0 l 2
 127.47265625 0 102.5 17.267578125 102.5 43.75 c 2
 102.5 393.75 l 1
 102.5 743.75 l 2
 102.5 762.52734375 119.767578125 787.5 146.25 787.5 c 2
 237.970703125 787.5 l 2
 236.856445312 791.428710938 236.310546875 795.473632812 236.310546875 799.508789062 c 0
 236.310546875 813.364257812 242.747070312 827.095703125 254.72265625 835.525390625 c 2
 387.72265625 929.150390625 l 2
 395.233398438 934.4375 403.973632812 936.970703125 412.665039062 936.970703125 c 0
 426.520507812 936.970703125 440.250976562 930.533203125 448.681640625 918.55859375 c 0
EndSplineSet
Validated: 1
EndChar

StartChar: Ecircumflex
Encoding: 202 202 115
Width: 633
VWidth: 43
Flags: W
HStem: 0 87.5<190 568.589> 350 87.5<190 498.589> 700 87.5<268.697 418.865 519.593 568.589>
VStem: 102.5 87.5<87.5 350 437.5 700>
CounterMasks: 1 e0
LayerCount: 2
Back
Fore
SplineSet
575 743.75 m 0
 575 719.919921875 555.080078125 700 531.25 700 c 2
 190 700 l 1
 190 437.5 l 1
 461.25 437.5 l 2
 485.080078125 437.5 505 417.580078125 505 393.75 c 0
 505 369.919921875 485.080078125 350 461.25 350 c 2
 190 350 l 1
 190 87.5 l 1
 531.25 87.5 l 2
 555.080078125 87.5 575 67.580078125 575 43.75 c 0
 575 19.919921875 555.080078125 0 531.25 0 c 2
 146.25 0 l 2
 127.47265625 0 102.5 17.267578125 102.5 43.75 c 2
 102.5 393.75 l 1
 102.5 743.75 l 2
 102.5 762.52734375 119.767578125 787.5 146.25 787.5 c 2
 167.969726562 787.5 l 2
 166.856445312 791.427734375 166.310546875 795.471679688 166.310546875 799.505859375 c 0
 166.310546875 813.401367188 172.786132812 827.169921875 184.817382812 835.591796875 c 2
 318.692382812 929.303710938 l 2
 326.142578125 934.518554688 334.962890625 937.122070312 343.779296875 937.122070312 c 0
 352.60546875 937.122070312 361.428710938 934.512695312 368.870117188 929.303710938 c 2
 502.745117188 835.591796875 l 2
 514.776367188 827.169921875 521.252929688 813.401367188 521.252929688 799.505859375 c 0
 521.252929688 795.471679688 520.70703125 791.427734375 519.592773438 787.5 c 2
 531.25 787.5 l 2
 555.080078125 787.5 575 767.580078125 575 743.75 c 0
418.865234375 787.5 m 1
 343.78125 840.05859375 l 1
 268.697265625 787.5 l 1
 418.865234375 787.5 l 1
EndSplineSet
Validated: 1
EndChar

StartChar: Edieresis
Encoding: 203 203 116
Width: 633
VWidth: 43
Flags: W
HStem: 0 87.5<190 568.589> 350 87.5<190 498.589> 700 142.625<233.817 308.495 367.692 442.37> 700 87.5<190 228.676 313.637 362.596 447.467 568.589>
VStem: 102.5 87.5<87.5 350 437.5 700> 227.406 87.5<787.658 836.214> 361.281 87.5<787.658 836.214>
LayerCount: 2
Back
Fore
SplineSet
405.03125 842.625 m 0xee
 428.861328125 842.625 448.78125 822.705078125 448.78125 798.875 c 2
 448.78125 798 l 2
 448.78125 794.391601562 448.32421875 790.873046875 447.466796875 787.5 c 2
 531.25 787.5 l 2
 555.080078125 787.5 575 767.580078125 575 743.75 c 0
 575 719.919921875 555.080078125 700 531.25 700 c 2
 190 700 l 1
 190 437.5 l 1
 461.25 437.5 l 2
 485.080078125 437.5 505 417.580078125 505 393.75 c 0
 505 369.919921875 485.080078125 350 461.25 350 c 2
 190 350 l 1
 190 87.5 l 1
 531.25 87.5 l 2
 555.080078125 87.5 575 67.580078125 575 43.75 c 0
 575 19.919921875 555.080078125 0 531.25 0 c 2
 146.25 0 l 2
 127.47265625 0 102.5 17.267578125 102.5 43.75 c 2
 102.5 393.75 l 1
 102.5 743.75 l 2
 102.5 762.52734375 119.767578125 787.5 146.25 787.5 c 2
 228.67578125 787.5 l 2xde
 227.846679688 790.864257812 227.40625 794.380859375 227.40625 798 c 2
 227.40625 798.875 l 2
 227.40625 822.705078125 247.326171875 842.625 271.15625 842.625 c 0xee
 294.986328125 842.625 314.90625 822.705078125 314.90625 798.875 c 2
 314.90625 798 l 2
 314.90625 794.380859375 314.465820312 790.864257812 313.63671875 787.5 c 2
 362.595703125 787.5 l 2xde
 361.73828125 790.873046875 361.28125 794.391601562 361.28125 798 c 2
 361.28125 798.875 l 2
 361.28125 822.705078125 381.201171875 842.625 405.03125 842.625 c 0xee
EndSplineSet
Validated: 1
EndChar

StartChar: Igrave
Encoding: 204 204 117
Width: 313
VWidth: 43
Flags: W
HStem: 0 21G<146.147 169.978> 0 21G<146.147 169.978> 767.5 20G<146.147 159.405> 767.5 20G<146.147 159.405>
VStem: 114.312 87.5<6.41116 765.379>
LayerCount: 2
Back
Fore
SplineSet
53.970703125 918.55078125 m 0xa8
 62.392578125 930.58203125 76.1611328125 937.05859375 90.056640625 937.05859375 c 0
 98.708984375 937.05859375 107.41015625 934.547851562 114.901367188 929.303710938 c 2
 248.776367188 835.591796875 l 2
 260.807617188 827.169921875 267.283203125 813.401367188 267.283203125 799.505859375 c 0
 267.283203125 790.853515625 264.772460938 782.15234375 259.529296875 774.661132812 c 0
 251.107421875 762.629882812 237.338867188 756.154296875 223.443359375 756.154296875 c 0
 214.791015625 756.154296875 206.08984375 758.665039062 198.598632812 763.908203125 c 2
 195.551757812 766.041015625 l 2
 199.516601562 759.478515625 201.8125 751.83984375 201.8125 743.75 c 2
 201.8125 43.75 l 2
 201.8125 19.919921875 181.892578125 0 158.0625 0 c 0
 134.232421875 0 114.3125 19.919921875 114.3125 43.75 c 2
 114.3125 743.75 l 2
 114.3125 767.580078125 134.232421875 787.5 158.0625 787.5 c 0
 160.748046875 787.5 163.384765625 787.247070312 165.948242188 786.763671875 c 2
 64.7236328125 857.62109375 l 2
 52.6923828125 866.04296875 46.2158203125 879.810546875 46.2158203125 893.706054688 c 0
 46.2158203125 902.358398438 48.7265625 911.059570312 53.970703125 918.55078125 c 0xa8
EndSplineSet
Validated: 1
EndChar

StartChar: Iacute
Encoding: 205 205 118
Width: 313
VWidth: 43
Flags: W
HStem: 0 21G<148.335 172.165> 0 21G<148.335 172.165> 767.5 20G<157.517 172.165> 767.5 20G<157.517 172.165>
VStem: 116.5 87.5<6.41116 772.059>
LayerCount: 2
Back
Fore
SplineSet
259.025390625 918.55859375 m 0xa8
 264.313476562 911.047851562 266.845703125 902.307617188 266.845703125 893.616210938 c 0
 266.845703125 879.760742188 260.409179688 866.029296875 248.43359375 857.599609375 c 2
 144.659179688 784.547851562 l 2
 149.521484375 786.451171875 154.783203125 787.5 160.25 787.5 c 0
 184.080078125 787.5 204 767.580078125 204 743.75 c 2
 204 43.75 l 2
 204 19.919921875 184.080078125 0 160.25 0 c 0
 136.419921875 0 116.5 19.919921875 116.5 43.75 c 2
 116.5 743.75 l 2
 116.5 754.630859375 120.653320312 764.696289062 127.435546875 772.422851562 c 2
 115.43359375 763.974609375 l 2
 107.922851562 758.6875 99.1826171875 756.154296875 90.4921875 756.154296875 c 0
 76.63671875 756.154296875 62.9052734375 762.591796875 54.474609375 774.56640625 c 0
 49.1875 782.078125 46.654296875 790.818359375 46.654296875 799.508789062 c 0
 46.654296875 813.364257812 53.091796875 827.095703125 65.06640625 835.525390625 c 2
 198.06640625 929.150390625 l 2
 205.578125 934.4375 214.318359375 936.970703125 223.008789062 936.970703125 c 0
 236.864257812 936.970703125 250.595703125 930.533203125 259.025390625 918.55859375 c 0xa8
EndSplineSet
Validated: 1
EndChar

StartChar: Icircumflex
Encoding: 206 206 119
Width: 313
VWidth: 43
Flags: W
HStem: 0 21G<142.21 166.04> 0 21G<142.21 166.04> 767.5 20G<142.21 166.04> 767.5 20G<142.21 166.04>
VStem: 110.375 87.5<6.41116 781.089>
LayerCount: 2
Back
Fore
SplineSet
-12.966796875 774.661132812 m 0x08
 -18.2099609375 782.15234375 -20.720703125 790.853515625 -20.720703125 799.505859375 c 0
 -20.720703125 813.401367188 -14.2451171875 827.169921875 -2.2138671875 835.591796875 c 2
 131.661132812 929.303710938 l 2
 139.111328125 934.518554688 147.930664062 937.122070312 156.748046875 937.122070312 c 0
 165.57421875 937.122070312 174.397460938 934.512695312 181.838867188 929.303710938 c 2
 315.713867188 835.591796875 l 2
 327.745117188 827.169921875 334.220703125 813.401367188 334.220703125 799.505859375 c 0
 334.220703125 790.853515625 331.709960938 782.15234375 326.466796875 774.661132812 c 0
 318.044921875 762.629882812 304.276367188 756.154296875 290.380859375 756.154296875 c 0
 281.728515625 756.154296875 273.02734375 758.665039062 265.536132812 763.908203125 c 2
 156.75 840.05859375 l 1
 47.9638671875 763.908203125 l 2
 40.47265625 758.665039062 31.771484375 756.154296875 23.119140625 756.154296875 c 0
 9.2236328125 756.154296875 -4.544921875 762.629882812 -12.966796875 774.661132812 c 0x08
154.125 787.5 m 0xa8
 177.955078125 787.5 197.875 767.580078125 197.875 743.75 c 2
 197.875 43.75 l 2
 197.875 19.919921875 177.955078125 0 154.125 0 c 0
 130.294921875 0 110.375 19.919921875 110.375 43.75 c 2
 110.375 743.75 l 2
 110.375 767.580078125 130.294921875 787.5 154.125 787.5 c 0xa8
EndSplineSet
Validated: 1
EndChar

StartChar: Idieresis
Encoding: 207 207 120
Width: 313
VWidth: 43
Flags: W
HStem: 0 21G<154.46 178.29> 0 21G<154.46 178.29> 757.75 88.375<52.0362 126.714 207.345 260.589> 767.5 20G<154.46 169.35> 767.5 20G<154.46 169.35>
VStem: 45.625 87.5<763.549 839.714> 122.625 87.5<6.41116 760.639> 179.5 87.5<784.611 839.714>
LayerCount: 2
Back
Fore
SplineSet
223.25 846.125 m 0x21
 247.080078125 846.125 267 826.205078125 267 802.375 c 2
 267 801.5 l 2
 267 777.669921875 247.080078125 757.75 223.25 757.75 c 0x21
 217.30078125 757.75 211.595703125 758.991210938 206.383789062 761.224609375 c 1
 208.78515625 755.849609375 210.125 749.931640625 210.125 743.75 c 2
 210.125 43.75 l 2
 210.125 19.919921875 190.205078125 0 166.375 0 c 0
 142.544921875 0 122.625 19.919921875 122.625 43.75 c 2
 122.625 743.75 l 2
 122.625 767.580078125 142.544921875 787.5 166.375 787.5 c 0x92
 172.32421875 787.5 178.029296875 786.258789062 183.241210938 784.025390625 c 1
 180.83984375 789.400390625 179.5 795.318359375 179.5 801.5 c 2
 179.5 802.375 l 2
 179.5 826.205078125 199.419921875 846.125 223.25 846.125 c 0x21
89.375 846.125 m 0
 113.205078125 846.125 133.125 826.205078125 133.125 802.375 c 2
 133.125 801.5 l 2
 133.125 777.349609375 113.525390625 757.75 89.375 757.75 c 0
 65.224609375 757.75 45.625 777.349609375 45.625 801.5 c 2
 45.625 802.375 l 2x24
 45.625 826.205078125 65.544921875 846.125 89.375 846.125 c 0
EndSplineSet
Validated: 1
EndChar

StartChar: Ntilde
Encoding: 209 209 121
Width: 782
VWidth: 43
Flags: W
HStem: 0 21G<134.335 158.165 632.638 638.529> 0 21G<134.335 158.165 632.638 638.529> 754.744 87.5<408.076 504.449> 767.5 20G<143.971 149.862 624.335 648.165> 767.5 20G<143.971 149.862 624.335 648.165> 799.292 87.5<277.721 374.052>
VStem: 102.5 87.5<6.41116 604.959> 592.5 87.5<182.541 781.089>
LayerCount: 2
Back
Fore
SplineSet
529.657226562 851.704101562 m 0x23
 538.08203125 843.278320312 542.294921875 832.0234375 542.294921875 820.767578125 c 0
 542.294921875 809.512695312 538.08203125 798.256835938 529.657226562 789.83203125 c 0
 506.313476562 766.48828125 475.4453125 754.744140625 444.892578125 754.744140625 c 0x23
 414.33203125 754.744140625 383.479492188 766.479492188 360.127929688 789.83203125 c 0
 353.7734375 796.186523438 345.662109375 799.291992188 337.235351562 799.291992188 c 0
 328.80078125 799.291992188 320.72265625 796.162109375 314.520507812 789.923828125 c 0
 306.086914062 781.440429688 294.7890625 777.194335938 283.489257812 777.194335938 c 0
 272.278320312 777.194335938 261.06640625 781.374023438 252.649414062 789.741210938 c 0
 244.166015625 798.174804688 239.919921875 809.473632812 239.919921875 820.772460938 c 0
 239.919921875 831.983398438 244.099609375 843.196289062 252.466796875 851.612304688 c 0
 275.7890625 875.073242188 306.688476562 886.791992188 337.235351562 886.791992188 c 0x07
 367.788085938 886.791992188 398.655273438 875.047851562 422 851.704101562 c 0
 428.346679688 845.357421875 436.47265625 842.244140625 444.892578125 842.244140625 c 0
 453.319335938 842.244140625 461.430664062 845.348632812 467.78515625 851.704101562 c 0
 476.209960938 860.12890625 487.46484375 864.341796875 498.720703125 864.341796875 c 0
 509.975585938 864.341796875 521.231445312 860.12890625 529.657226562 851.704101562 c 0x23
636.25 787.5 m 0x93
 660.080078125 787.5 680 767.580078125 680 743.75 c 2
 680 43.75 l 2
 680 36.525390625 678.169921875 29.66015625 674.954101562 23.6005859375 c 0
 671.833984375 17.490234375 667.258789062 12.0517578125 661.338867188 7.908203125 c 0
 657.602539062 5.29296875 653.564453125 3.357421875 649.381835938 2.07421875 c 0
 645.22265625 0.728515625 640.807617188 0 636.25 0 c 0
 629.025390625 0 622.161132812 1.8310546875 616.100585938 5.046875 c 0
 609.990234375 8.1669921875 604.552734375 12.7412109375 600.408203125 18.6611328125 c 2
 190 604.958984375 l 1
 190 43.75 l 2
 190 19.919921875 170.080078125 0 146.25 0 c 0
 122.419921875 0 102.5 19.919921875 102.5 43.75 c 2
 102.5 743.75 l 2
 102.5 750.974609375 104.331054688 757.83984375 107.546875 763.899414062 c 0
 110.666992188 770.009765625 115.2421875 775.448242188 121.161132812 779.591796875 c 0
 124.8984375 782.20703125 128.936523438 784.142578125 133.119140625 785.42578125 c 0
 137.278320312 786.771484375 141.692382812 787.5 146.25 787.5 c 0
 153.474609375 787.5 160.33984375 785.668945312 166.399414062 782.453125 c 0
 172.510742188 779.333007812 177.948242188 774.758789062 182.091796875 768.838867188 c 2
 592.5 182.541015625 l 1
 592.5 743.75 l 2
 592.5 767.580078125 612.419921875 787.5 636.25 787.5 c 0x93
EndSplineSet
Validated: 1
EndChar

StartChar: Ograve
Encoding: 210 210 122
Width: 922
VWidth: 43
Flags: W
HStem: 0 87.5<351.177 571.323> 700 87.5<353.434 468.169>
VStem: 67.5 87.5<283.677 503.823> 767.5 87.5<283.677 503.392>
LayerCount: 2
Back
Fore
SplineSet
357.158203125 918.55078125 m 0
 365.580078125 930.58203125 379.348632812 937.05859375 393.244140625 937.05859375 c 0
 401.896484375 937.05859375 410.59765625 934.547851562 418.088867188 929.303710938 c 2
 551.963867188 835.591796875 l 2
 563.995117188 827.169921875 570.470703125 813.401367188 570.470703125 799.505859375 c 0
 570.470703125 790.853515625 567.959960938 782.15234375 562.716796875 774.661132812 c 0
 562.6484375 774.5625 562.579101562 774.46484375 562.509765625 774.3671875 c 1
 730.936523438 729.703125 855 576.263671875 855 393.75 c 0
 855 176.225585938 678.774414062 0 461.25 0 c 0
 243.725585938 0 67.5 176.225585938 67.5 393.75 c 0
 67.5 611.274414062 243.725585938 787.5 461.25 787.5 c 0
 463.560546875 787.5 465.8671875 787.48046875 468.168945312 787.440429688 c 2
 367.911132812 857.62109375 l 2
 355.879882812 866.04296875 349.404296875 879.810546875 349.404296875 893.706054688 c 0
 349.404296875 902.358398438 351.915039062 911.059570312 357.158203125 918.55078125 c 0
461.25 87.5 m 0
 630.475585938 87.5 767.5 224.524414062 767.5 393.75 c 0
 767.5 562.975585938 630.475585938 700 461.25 700 c 0
 292.024414062 700 155 562.975585938 155 393.75 c 0
 155 224.524414062 292.024414062 87.5 461.25 87.5 c 0
EndSplineSet
Validated: 1
EndChar

StartChar: Oacute
Encoding: 211 211 123
Width: 922
VWidth: 43
Flags: W
HStem: 0 87.5<351.177 571.323> 700 87.5<453.342 569.066>
VStem: 67.5 87.5<283.677 506.904> 767.5 87.5<283.677 503.823>
LayerCount: 2
Back
Fore
SplineSet
560.025390625 918.55859375 m 0
 565.3125 911.047851562 567.845703125 902.307617188 567.845703125 893.616210938 c 0
 567.845703125 879.760742188 561.408203125 866.029296875 549.43359375 857.599609375 c 2
 449.61328125 787.331054688 l 2
 453.478515625 787.443359375 457.357421875 787.5 461.25 787.5 c 0
 678.774414062 787.5 855 611.274414062 855 393.75 c 0
 855 176.225585938 678.774414062 0 461.25 0 c 0
 243.725585938 0 67.5 176.225585938 67.5 393.75 c 0
 67.5 574.943359375 189.774414062 727.48046875 356.340820312 773.380859375 c 1
 356.045898438 773.76953125 355.756835938 774.165039062 355.474609375 774.56640625 c 0
 350.1875 782.078125 347.654296875 790.818359375 347.654296875 799.508789062 c 0
 347.654296875 813.364257812 354.091796875 827.095703125 366.06640625 835.525390625 c 2
 499.06640625 929.150390625 l 2
 506.578125 934.4375 515.318359375 936.970703125 524.008789062 936.970703125 c 0
 537.864257812 936.970703125 551.595703125 930.533203125 560.025390625 918.55859375 c 0
461.25 87.5 m 0
 630.475585938 87.5 767.5 224.524414062 767.5 393.75 c 0
 767.5 562.975585938 630.475585938 700 461.25 700 c 0
 292.024414062 700 155 562.975585938 155 393.75 c 0
 155 224.524414062 292.024414062 87.5 461.25 87.5 c 0
EndSplineSet
Validated: 1
EndChar

StartChar: Ocircumflex
Encoding: 212 212 124
Width: 922
VWidth: 43
Flags: W
HStem: 0 87.5<351.177 571.323> 700 87.5<375.759 548.034>
VStem: 67.5 87.5<283.677 505.651> 767.5 87.5<283.677 505.552>
LayerCount: 2
Back
Fore
SplineSet
292.408203125 774.661132812 m 0
 287.165039062 782.15234375 284.654296875 790.853515625 284.654296875 799.505859375 c 0
 284.654296875 813.401367188 291.129882812 827.169921875 303.161132812 835.591796875 c 2
 437.036132812 929.303710938 l 2
 444.486328125 934.518554688 453.305664062 937.122070312 462.123046875 937.122070312 c 0
 470.94921875 937.122070312 479.772460938 934.512695312 487.213867188 929.303710938 c 2
 621.088867188 835.591796875 l 2
 633.120117188 827.169921875 639.595703125 813.401367188 639.595703125 799.505859375 c 0
 639.595703125 790.853515625 637.084960938 782.15234375 631.841796875 774.661132812 c 0
 626.346679688 766.810546875 618.575195312 761.326171875 609.977539062 758.461914062 c 1
 753.734375 699.805664062 855 558.643554688 855 393.75 c 0
 855 176.225585938 678.774414062 0 461.25 0 c 0
 243.725585938 0 67.5 176.225585938 67.5 393.75 c 0
 67.5 558.951171875 169.143554688 700.33203125 313.326171875 758.7890625 c 1
 305.10546875 761.733398438 297.701171875 767.099609375 292.408203125 774.661132812 c 0
461.25 87.5 m 0
 630.475585938 87.5 767.5 224.524414062 767.5 393.75 c 0
 767.5 562.975585938 630.475585938 700 461.25 700 c 0
 292.024414062 700 155 562.975585938 155 393.75 c 0
 155 224.524414062 292.024414062 87.5 461.25 87.5 c 0
552.317382812 776.923828125 m 1
 462.125 840.05859375 l 1
 372.805664062 777.53515625 l 1
 401.234375 784.055664062 430.838867188 787.5 461.25 787.5 c 0
 492.59765625 787.5 523.087890625 783.83984375 552.317382812 776.923828125 c 1
EndSplineSet
Validated: 1
EndChar

StartChar: Otilde
Encoding: 213 213 125
Width: 922
VWidth: 43
Flags: W
HStem: 0 87.5<351.177 571.323> 700 164.342<449.463 574.417> 700 142.244<480.971 566.584> 799.292 87.5<350.565 435.956>
VStem: 67.5 87.5<283.677 506.32> 767.5 87.5<283.677 505.743>
LayerCount: 2
Back
Fore
SplineSet
602.500976562 851.704101562 m 0xcc
 610.92578125 843.278320312 615.138671875 832.0234375 615.138671875 820.767578125 c 0
 615.138671875 809.512695312 610.92578125 798.256835938 602.500976562 789.83203125 c 0
 594.681640625 782.012695312 586.017578125 775.495117188 576.8046875 770.284179688 c 1
 737.909179688 720.930664062 855 571.060546875 855 393.75 c 1
 855 176.225585938 678.774414062 0 461.25 0 c 0
 243.725585938 0 67.5 176.225585938 67.5 393.75 c 0
 67.5 602.861328125 230.358398438 773.806640625 436.204101562 786.716796875 c 1
 435.112304688 787.731445312 434.034179688 788.76953125 432.971679688 789.83203125 c 0
 426.6171875 796.186523438 418.505859375 799.291992188 410.079101562 799.291992188 c 0
 401.64453125 799.291992188 393.56640625 796.162109375 387.364257812 789.923828125 c 0
 378.930664062 781.440429688 367.6328125 777.194335938 356.333007812 777.194335938 c 0
 345.122070312 777.194335938 333.91015625 781.374023438 325.493164062 789.741210938 c 0
 317.009765625 798.174804688 312.763671875 809.473632812 312.763671875 820.772460938 c 0
 312.763671875 831.983398438 316.943359375 843.196289062 325.310546875 851.612304688 c 0
 348.6328125 875.073242188 379.532226562 886.791992188 410.079101562 886.791992188 c 0x9c
 440.631835938 886.791992188 471.499023438 875.047851562 494.84375 851.704101562 c 0
 501.190429688 845.357421875 509.31640625 842.244140625 517.736328125 842.244140625 c 0xac
 526.163085938 842.244140625 534.274414062 845.348632812 540.62890625 851.704101562 c 0
 549.053710938 860.12890625 560.309570312 864.341796875 571.564453125 864.341796875 c 0
 582.8203125 864.341796875 594.075195312 860.12890625 602.500976562 851.704101562 c 0xcc
461.25 87.5 m 0
 630.475585938 87.5 767.5 224.524414062 767.5 393.75 c 0
 767.5 562.975585938 630.475585938 700 461.25 700 c 0xcc
 292.024414062 700 155 562.975585938 155 393.75 c 0
 155 224.524414062 292.024414062 87.5 461.25 87.5 c 0
EndSplineSet
Validated: 1
EndChar

StartChar: Odieresis
Encoding: 214 214 126
Width: 922
VWidth: 43
Flags: W
HStem: 0 87.5<351.177 571.323> 700 87.5<437.676 477.017>
VStem: 67.5 87.5<283.677 506.905> 347.5 87.5<786.86 837.964> 481.375 87.5<787.279 837.964> 767.5 87.5<283.677 503.557>
LayerCount: 2
Back
Fore
SplineSet
525.125 844.375 m 0
 548.955078125 844.375 568.875 824.455078125 568.875 800.625 c 2
 568.875 799.75 l 2
 568.875 790.540039062 565.899414062 781.915039062 560.873046875 774.796875 c 1
 730.131835938 730.6953125 855 576.854492188 855 393.75 c 0
 855 176.225585938 678.774414062 0 461.25 0 c 0
 243.725585938 0 67.5 176.225585938 67.5 393.75 c 0
 67.5 574.944335938 189.776367188 727.482421875 356.34375 773.380859375 c 1
 350.79296875 780.71484375 347.5 789.850585938 347.5 799.75 c 2
 347.5 800.625 l 2
 347.5 824.455078125 367.419921875 844.375 391.25 844.375 c 0
 415.080078125 844.375 435 824.455078125 435 800.625 c 2
 435 799.75 l 2
 435 795.131835938 434.283203125 790.6796875 432.955078125 786.5 c 1
 442.299804688 787.163085938 451.735351562 787.5 461.25 787.5 c 0
 468.670898438 787.5 476.04296875 787.294921875 483.362304688 786.889648438 c 1
 482.072265625 790.969726562 481.375 795.291992188 481.375 799.75 c 2
 481.375 800.625 l 2
 481.375 824.455078125 501.294921875 844.375 525.125 844.375 c 0
461.25 87.5 m 0
 630.475585938 87.5 767.5 224.524414062 767.5 393.75 c 0
 767.5 562.975585938 630.475585938 700 461.25 700 c 0
 292.024414062 700 155 562.975585938 155 393.75 c 0
 155 224.524414062 292.024414062 87.5 461.25 87.5 c 0
EndSplineSet
Validated: 1
EndChar

StartChar: multiply
Encoding: 215 215 127
Width: 454
VWidth: 43
Flags: W
HStem: 172.145 249.871<165.931 216.789 300.306 351.164>
VStem: 133.612 249.87<204.463 255.321 338.839 389.697>
LayerCount: 2
Back
Fore
SplineSet
146.25 184.782226562 m 0
 137.82421875 193.20703125 133.612304688 204.462890625 133.612304688 215.71875 c 0
 133.612304688 226.973632812 137.82421875 238.228515625 146.25 246.654296875 c 2
 196.67578125 297.080078125 l 1
 146.25 347.505859375 l 2
 137.82421875 355.931640625 133.612304688 367.186523438 133.612304688 378.44140625 c 0
 133.612304688 389.697265625 137.82421875 400.953125 146.25 409.377929688 c 0
 154.67578125 417.802734375 165.930664062 422.015625 177.185546875 422.015625 c 0
 188.44140625 422.015625 199.697265625 417.802734375 208.122070312 409.377929688 c 2
 258.546875 358.952148438 l 1
 308.97265625 409.377929688 l 2
 317.3984375 417.802734375 328.653320312 422.015625 339.908203125 422.015625 c 0
 351.1640625 422.015625 362.419921875 417.802734375 370.844726562 409.377929688 c 0
 379.26953125 400.953125 383.482421875 389.697265625 383.482421875 378.44140625 c 0
 383.482421875 367.186523438 379.26953125 355.931640625 370.844726562 347.505859375 c 2
 320.418945312 297.080078125 l 1
 370.844726562 246.654296875 l 2
 379.26953125 238.228515625 383.482421875 226.973632812 383.482421875 215.71875 c 0
 383.482421875 204.462890625 379.26953125 193.20703125 370.844726562 184.782226562 c 0
 362.419921875 176.357421875 351.1640625 172.14453125 339.908203125 172.14453125 c 0
 328.653320312 172.14453125 317.3984375 176.357421875 308.97265625 184.782226562 c 2
 258.546875 235.208007812 l 1
 208.122070312 184.782226562 l 2
 199.697265625 176.357421875 188.44140625 172.14453125 177.185546875 172.14453125 c 0
 165.930664062 172.14453125 154.67578125 176.357421875 146.25 184.782226562 c 0
EndSplineSet
Validated: 1
EndChar

StartChar: Ugrave
Encoding: 217 217 128
Width: 819
VWidth: 43
Flags: W
HStem: 0 87.5<311.906 505.595> 767.5 20G<116.835 140.665 676.835 700.665> 767.5 20G<116.835 140.665 676.835 700.665>
VStem: 85 87.5<227.435 781.089> 645 87.5<227.401 781.089>
LayerCount: 2
Back
Fore
SplineSet
307.939453125 918.55078125 m 0x98
 316.361328125 930.58203125 330.129882812 937.05859375 344.025390625 937.05859375 c 0
 352.676757812 937.05859375 361.37890625 934.547851562 368.870117188 929.303710938 c 2
 502.745117188 835.591796875 l 2
 514.776367188 827.169921875 521.251953125 813.401367188 521.251953125 799.505859375 c 0
 521.251953125 790.853515625 518.741210938 782.15234375 513.498046875 774.661132812 c 0
 505.076171875 762.629882812 491.307617188 756.154296875 477.412109375 756.154296875 c 0
 468.759765625 756.154296875 460.05859375 758.665039062 452.567382812 763.908203125 c 2
 318.692382812 857.62109375 l 2
 306.661132812 866.04296875 300.184570312 879.810546875 300.184570312 893.706054688 c 0
 300.184570312 902.358398438 302.6953125 911.059570312 307.939453125 918.55078125 c 0x98
688.75 787.5 m 0xd8
 712.580078125 787.5 732.5 767.580078125 732.5 743.75 c 2
 732.5 323.75 l 2
 732.5 144.745117188 587.754882812 0 408.75 0 c 0
 229.732421875 0 85 144.836914062 85 323.75 c 2
 85 743.75 l 2
 85 767.580078125 104.919921875 787.5 128.75 787.5 c 0
 152.580078125 787.5 172.5 767.580078125 172.5 743.75 c 2
 172.5 323.75 l 2
 172.5 193.092773438 278.017578125 87.5 408.75 87.5 c 0
 539.495117188 87.5 645 193.004882812 645 323.75 c 2
 645 743.75 l 2
 645 767.580078125 664.919921875 787.5 688.75 787.5 c 0xd8
EndSplineSet
Validated: 1
EndChar

StartChar: Uacute
Encoding: 218 218 129
Width: 819
VWidth: 43
Flags: W
HStem: 0 87.5<311.906 505.595> 767.5 20G<116.835 140.665 676.835 700.665> 767.5 20G<116.835 140.665 676.835 700.665>
VStem: 85 87.5<227.435 781.089> 645 87.5<227.401 781.089>
LayerCount: 2
Back
Fore
SplineSet
510.806640625 918.55859375 m 0x98
 516.09375 911.047851562 518.626953125 902.307617188 518.626953125 893.616210938 c 0
 518.626953125 879.760742188 512.189453125 866.029296875 500.21484375 857.599609375 c 2
 367.21484375 763.974609375 l 2
 359.703125 758.6875 350.963867188 756.154296875 342.272460938 756.154296875 c 0
 328.416992188 756.154296875 314.685546875 762.591796875 306.255859375 774.56640625 c 0
 300.967773438 782.078125 298.435546875 790.818359375 298.435546875 799.508789062 c 0
 298.435546875 813.364257812 304.872070312 827.095703125 316.84765625 835.525390625 c 2
 449.84765625 929.150390625 l 2
 457.358398438 934.4375 466.098632812 936.970703125 474.790039062 936.970703125 c 0
 488.645507812 936.970703125 502.375976562 930.533203125 510.806640625 918.55859375 c 0x98
688.75 787.5 m 0xd8
 712.580078125 787.5 732.5 767.580078125 732.5 743.75 c 2
 732.5 323.75 l 2
 732.5 144.745117188 587.754882812 0 408.75 0 c 0
 229.732421875 0 85 144.836914062 85 323.75 c 2
 85 743.75 l 2
 85 767.580078125 104.919921875 787.5 128.75 787.5 c 0
 152.580078125 787.5 172.5 767.580078125 172.5 743.75 c 2
 172.5 323.75 l 2
 172.5 193.092773438 278.017578125 87.5 408.75 87.5 c 0
 539.495117188 87.5 645 193.004882812 645 323.75 c 2
 645 743.75 l 2
 645 767.580078125 664.919921875 787.5 688.75 787.5 c 0xd8
EndSplineSet
Validated: 1
EndChar

StartChar: Ucircumflex
Encoding: 219 219 130
Width: 819
VWidth: 43
Flags: W
HStem: 0 87.5<311.906 505.595> 767.5 20G<116.835 140.665 676.835 700.665> 767.5 20G<116.835 140.665 676.835 700.665>
VStem: 85 87.5<227.435 781.089> 645 87.5<227.401 781.089>
LayerCount: 2
Back
Fore
SplineSet
239.689453125 774.661132812 m 0x98
 234.4453125 782.15234375 231.934570312 790.853515625 231.934570312 799.505859375 c 0
 231.934570312 813.401367188 238.411132812 827.169921875 250.442382812 835.591796875 c 2
 384.317382812 929.303710938 l 2
 391.766601562 934.518554688 400.586914062 937.122070312 409.403320312 937.122070312 c 0
 418.23046875 937.122070312 427.052734375 934.512695312 434.495117188 929.303710938 c 2
 568.370117188 835.591796875 l 2
 580.401367188 827.169921875 586.876953125 813.401367188 586.876953125 799.505859375 c 0
 586.876953125 790.853515625 584.366210938 782.15234375 579.123046875 774.661132812 c 0
 570.701171875 762.629882812 556.932617188 756.154296875 543.037109375 756.154296875 c 0
 534.384765625 756.154296875 525.68359375 758.665039062 518.192382812 763.908203125 c 2
 409.40625 840.05859375 l 1
 300.620117188 763.908203125 l 2
 293.12890625 758.665039062 284.426757812 756.154296875 275.775390625 756.154296875 c 0
 261.87890625 756.154296875 248.111328125 762.629882812 239.689453125 774.661132812 c 0x98
688.75 787.5 m 0xd8
 712.580078125 787.5 732.5 767.580078125 732.5 743.75 c 2
 732.5 323.75 l 2
 732.5 144.745117188 587.754882812 0 408.75 0 c 0
 229.732421875 0 85 144.836914062 85 323.75 c 2
 85 743.75 l 2
 85 767.580078125 104.919921875 787.5 128.75 787.5 c 0
 152.580078125 787.5 172.5 767.580078125 172.5 743.75 c 2
 172.5 323.75 l 2
 172.5 193.092773438 278.017578125 87.5 408.75 87.5 c 0
 539.495117188 87.5 645 193.004882812 645 323.75 c 2
 645 743.75 l 2
 645 767.580078125 664.919921875 787.5 688.75 787.5 c 0xd8
EndSplineSet
Validated: 1
EndChar

StartChar: Udieresis
Encoding: 220 220 131
Width: 817
VWidth: 43
Flags: W
HStem: 0 87.5<311.906 505.595> 756 88.375<304.036 378.714 437.911 512.589> 767.5 20G<116.835 140.665 676.835 700.665> 767.5 20G<116.835 140.665 676.835 700.665>
VStem: 85 87.5<227.435 781.089> 297.625 87.5<761.799 837.964> 431.5 87.5<762.411 837.964> 645 87.5<227.401 781.089>
LayerCount: 2
Back
Fore
SplineSet
475.25 844.375 m 0xcf
 499.080078125 844.375 519 824.455078125 519 800.625 c 2
 519 799.75 l 2
 519 775.919921875 499.080078125 756 475.25 756 c 0
 451.419921875 756 431.5 775.919921875 431.5 799.75 c 2
 431.5 800.625 l 2
 431.5 824.455078125 451.419921875 844.375 475.25 844.375 c 0xcf
341.375 844.375 m 0
 365.205078125 844.375 385.125 824.455078125 385.125 800.625 c 2
 385.125 799.75 l 2
 385.125 775.599609375 365.525390625 756 341.375 756 c 0
 317.224609375 756 297.625 775.599609375 297.625 799.75 c 2
 297.625 800.625 l 2
 297.625 824.455078125 317.544921875 844.375 341.375 844.375 c 0
688.75 787.5 m 0xaf
 712.580078125 787.5 732.5 767.580078125 732.5 743.75 c 2
 732.5 323.75 l 2
 732.5 144.745117188 587.754882812 0 408.75 0 c 0
 229.732421875 0 85 144.836914062 85 323.75 c 2
 85 743.75 l 2
 85 767.580078125 104.919921875 787.5 128.75 787.5 c 0
 152.580078125 787.5 172.5 767.580078125 172.5 743.75 c 2
 172.5 323.75 l 2
 172.5 193.092773438 278.017578125 87.5 408.75 87.5 c 0
 539.495117188 87.5 645 193.004882812 645 323.75 c 2
 645 743.75 l 2
 645 767.580078125 664.919921875 787.5 688.75 787.5 c 0xaf
EndSplineSet
Validated: 1
EndChar

StartChar: Yacute
Encoding: 221 221 132
Width: 659
VWidth: 43
Flags: W
HStem: 0 21G<317.21 341.04> 0 21G<317.21 341.04> 767.343 20G<71.5874 82.8579 576.278 587.548> 767.343 20G<71.5874 82.8579 576.278 587.548>
VStem: 285.375 87.5<6.41116 379.559>
LayerCount: 2
Back
Fore
SplineSet
440.938476562 918.55859375 m 0x08
 446.225585938 911.047851562 448.758789062 902.307617188 448.758789062 893.616210938 c 0
 448.758789062 879.760742188 442.321289062 866.029296875 430.346679688 857.599609375 c 2
 297.346679688 763.974609375 l 2
 289.8359375 758.6875 281.095703125 756.154296875 272.404296875 756.154296875 c 0
 258.548828125 756.154296875 244.817382812 762.591796875 236.387695312 774.56640625 c 0
 231.100585938 782.078125 228.567382812 790.818359375 228.567382812 799.508789062 c 0
 228.567382812 813.364257812 235.004882812 827.095703125 246.979492188 835.525390625 c 2
 379.979492188 929.150390625 l 2
 387.491210938 934.4375 396.23046875 936.970703125 404.921875 936.970703125 c 0
 418.77734375 936.970703125 432.508789062 930.533203125 440.938476562 918.55859375 c 0x08
50.6279296875 779.212890625 m 0
 58.2314453125 784.706054688 67.1513671875 787.342773438 76.0234375 787.342773438 c 0
 89.6923828125 787.342773438 103.25 781.084960938 111.712890625 769.372070312 c 2
 329.186523438 468.370117188 l 1
 547.454101562 769.4296875 l 2
 555.920898438 781.107421875 569.456054688 787.342773438 583.099609375 787.342773438 c 0
 591.997070312 787.342773438 600.939453125 784.69140625 608.5546875 779.170898438 c 0
 620.233398438 770.704101562 626.467773438 757.168945312 626.467773438 743.525390625 c 0
 626.467773438 734.62890625 623.81640625 725.685546875 618.295898438 718.0703125 c 2
 372.875 379.55859375 l 1
 372.875 43.75 l 2
 372.875 19.919921875 352.955078125 0 329.125 0 c 0xa8
 305.294921875 0 285.375 19.919921875 285.375 43.75 c 2
 285.375 379.59765625 l 1
 40.787109375 718.127929688 l 2
 35.2939453125 725.731445312 32.6572265625 734.650390625 32.6572265625 743.5234375 c 0
 32.6572265625 757.192382812 38.9150390625 770.75 50.6279296875 779.212890625 c 0
EndSplineSet
Validated: 1
EndChar

StartChar: Oslash
Encoding: 216 216 133
Width: 922
VWidth: 43
Flags: W
HStem: 0 87.5<418 571.323> 0.0537109 21G<353.766 360.489> 700 87.5<351.177 516.944> 767.446 20G<574.51 581.859>
VStem: 67.5 87.5<282.968 503.823> 767.5 87.5<283.677 503.26>
LayerCount: 2
Back
Fore
SplineSet
517.849609375 694.788085938 m 1x2c
 499.5078125 698.2109375 480.588867188 700 461.25 700 c 0
 292.024414062 700 155 562.975585938 155 393.75 c 0
 155 270.25390625 227.975585938 163.90625 333.185546875 115.44921875 c 1
 517.849609375 694.788085938 l 1x2c
551.341796875 777.153320312 m 1
 559.236328125 783.690429688 569.317382812 787.446289062 579.703125 787.446289062 c 0
 584.015625 787.446289062 588.379882812 786.798828125 592.662109375 785.43359375 c 0
 607.744140625 780.625976562 618.512695312 767.967773438 621.921875 753.35546875 c 1
 759.311523438 691.90234375 855 554.038085938 855 393.75 c 0
 855 176.225585938 678.774414062 0 461.25 0 c 0x9c
 433.869140625 0 407.142578125 2.7919921875 381.338867188 8.107421875 c 1
 373.956054688 2.958984375 365.056640625 0.0537109375 355.921875 0.0537109375 c 0x4c
 351.609375 0.0537109375 347.245117188 0.701171875 342.962890625 2.06640625 c 0
 330.131835938 6.15625 320.421875 15.9296875 315.7109375 27.75390625 c 1
 170.264648438 85.61328125 67.5 227.639648438 67.5 393.75 c 0
 67.5 611.274414062 243.725585938 787.5 461.25 787.5 c 0
 492.25 787.5 522.41015625 783.920898438 551.341796875 777.153320312 c 1
461.25 87.5 m 0
 630.475585938 87.5 767.5 224.524414062 767.5 393.75 c 0
 767.5 512.749023438 699.743164062 615.82421875 600.6796875 666.528320312 c 1
 417.119140625 90.6513671875 l 1
 431.528320312 88.5751953125 446.262695312 87.5 461.25 87.5 c 0
EndSplineSet
Validated: 1
EndChar

StartChar: Eth
Encoding: 208 208 134
Width: 800
VWidth: 43
Flags: W
HStem: 0 87.5<209.688 451.56> 350 87.5<12.2237 122.188 209.688 317.026> 700 87.5<209.688 452.268>
VStem: 122.188 87.5<87.5 350 437.5 700> 646.299 87.5273<281.676 505.824>
CounterMasks: 1 e0
LayerCount: 2
Back
Fore
SplineSet
5.8125 393.75 m 0
 5.8125 417.580078125 25.732421875 437.5 49.5625 437.5 c 2
 122.1875 437.5 l 1
 122.1875 743.75 l 2
 122.1875 770.232421875 147.16015625 787.5 165.9375 787.5 c 2
 340.9375 787.5 l 2
 441.307617188 787.5 541.927734375 749.005859375 618.623046875 672.310546875 c 0
 695.42578125 595.508789062 733.826171875 494.62890625 733.826171875 393.75 c 0
 733.826171875 292.87109375 695.42578125 191.991210938 618.623046875 115.189453125 c 0
 541.713867188 38.2802734375 439.530273438 0 340.0625 0 c 2
 165.9375 0 l 2
 139.455078125 0 122.1875 24.97265625 122.1875 43.75 c 2
 122.1875 350 l 1
 49.5625 350 l 2
 25.732421875 350 5.8125 369.919921875 5.8125 393.75 c 0
209.6875 87.5 m 1
 340.0625 87.5 l 2
 417.344726562 87.5 497.161132812 117.469726562 556.751953125 177.060546875 c 0
 616.44921875 236.758789062 646.298828125 315.25390625 646.298828125 393.75 c 0
 646.298828125 472.24609375 616.44921875 550.741210938 556.751953125 610.439453125 c 0
 496.947265625 670.244140625 419.067382812 700 340.9375 700 c 2
 209.6875 700 l 1
 209.6875 437.5 l 1
 279.6875 437.5 l 2
 303.517578125 437.5 323.4375 417.580078125 323.4375 393.75 c 0
 323.4375 369.919921875 303.517578125 350 279.6875 350 c 2
 209.6875 350 l 1
 209.6875 87.5 l 1
EndSplineSet
Validated: 1
EndChar

StartChar: AE
Encoding: 198 198 135
Width: 1020
VWidth: 43
Flags: W
HStem: 0 87.5<537.375 915.964> 239.588 87.1699<301.357 449.875> 350 87.5<537.375 845.964> 700 87.5<537.375 915.964>
VStem: 449.875 87.5<87.5 238.285 325.787 350 437.5 581.723>
LayerCount: 2
Back
Fore
SplineSet
301.357421875 326.7578125 m 1
 449.875 325.787109375 l 1
 449.875 393.75 l 1
 449.875 581.72265625 l 1
 301.357421875 326.7578125 l 1
922.375 743.75 m 0
 922.375 719.919921875 902.455078125 700 878.625 700 c 2
 537.375 700 l 1
 537.375 437.5 l 1
 808.625 437.5 l 2
 832.455078125 437.5 852.375 417.580078125 852.375 393.75 c 0
 852.375 369.919921875 832.455078125 350 808.625 350 c 2
 537.375 350 l 1
 537.375 87.5 l 1
 878.625 87.5 l 2
 902.455078125 87.5 922.375 67.580078125 922.375 43.75 c 0
 922.375 19.919921875 902.455078125 0 878.625 0 c 2
 493.625 0 l 2
 474.84765625 0 449.875 17.267578125 449.875 43.75 c 2
 449.875 238.28515625 l 1
 250.581054688 239.587890625 l 1
 123.678710938 21.7294921875 l 2
 115.629882812 7.912109375 100.717773438 0.1298828125 85.5546875 0.1298828125 c 0
 78.1220703125 0.1298828125 70.62890625 2 63.8544921875 5.9462890625 c 0
 50.037109375 13.9951171875 42.2548828125 28.908203125 42.2548828125 44.0703125 c 0
 42.2548828125 51.50390625 44.125 58.9970703125 48.0712890625 65.7705078125 c 2
 455.821289062 765.770507812 l 2
 461.23828125 775.071289062 469.765625 781.63671875 479.385742188 784.935546875 c 0
 483.750976562 786.5703125 488.516601562 787.5 493.625 787.5 c 2
 878.625 787.5 l 2
 902.455078125 787.5 922.375 767.580078125 922.375 743.75 c 0
EndSplineSet
Validated: 1
EndChar

StartChar: plusminus
Encoding: 177 177 136
Width: 522
VWidth: 43
Flags: W
HStem: 112 87.5<108.911 220.753 301.872 413.714> 287 87.5<108.911 217.562 305.062 413.714>
VStem: 217.562 87.5<199.736 287 374.5 483.151>
LayerCount: 2
Back
Fore
SplineSet
102.5 155.75 m 0
 102.5 179.580078125 122.419921875 199.5 146.25 199.5 c 2
 220.752929688 199.5 l 1
 218.69921875 204.52734375 217.5625 209.99609375 217.5625 215.6875 c 2
 217.5625 287 l 1
 146.25 287 l 2
 122.419921875 287 102.5 306.919921875 102.5 330.75 c 0
 102.5 354.580078125 122.419921875 374.5 146.25 374.5 c 2
 217.5625 374.5 l 1
 217.5625 445.8125 l 2
 217.5625 469.642578125 237.482421875 489.5625 261.3125 489.5625 c 0
 285.142578125 489.5625 305.0625 469.642578125 305.0625 445.8125 c 2
 305.0625 374.5 l 1
 376.375 374.5 l 2
 400.205078125 374.5 420.125 354.580078125 420.125 330.75 c 0
 420.125 306.919921875 400.205078125 287 376.375 287 c 2
 305.0625 287 l 1
 305.0625 215.6875 l 2
 305.0625 209.99609375 303.92578125 204.52734375 301.872070312 199.5 c 1
 376.375 199.5 l 2
 400.205078125 199.5 420.125 179.580078125 420.125 155.75 c 0
 420.125 131.919921875 400.205078125 112 376.375 112 c 2
 146.25 112 l 2
 122.419921875 112 102.5 131.919921875 102.5 155.75 c 0
EndSplineSet
Validated: 1
EndChar

